<svg width="62" height="64" viewBox="0 0 62 64" fill="none" xmlns="http://www.w3.org/2000/svg">
<path d="M20 19C21.1046 19 22 17.6569 22 16C22 14.3431 21.1046 13 20 13C18.8954 13 18 14.3431 18 16C18 17.6569 18.8954 19 20 19Z" fill="#EEF2FA"/>
<path d="M38 19C39.1046 19 40 17.6569 40 16C40 14.3431 39.1046 13 38 13C36.8954 13 36 14.3431 36 16C36 17.6569 36.8954 19 38 19Z" fill="#EEF2FA"/>
<path d="M33 28L29 32L25 28C25.4657 27.379 26.0697 26.875 26.7639 26.5279C27.4582 26.1807 28.2238 26 29 26C29.7762 26 30.5418 26.1807 31.2361 26.5279C31.9303 26.875 32.5343 27.379 33 28V28Z" fill="#5E3117"/>
<path d="M29 35C29 35 32.37 38.37 36.01 38.92L36 39H22L21.99 38.92C25.63 38.37 29 35 29 35Z" fill="#EBA5AF"/>
<path d="M29 32L33 28C32.5343 27.379 31.9304 26.875 31.2361 26.5279C30.5418 26.1807 29.7762 26 29 26C28.2238 26 27.4582 26.1807 26.7639 26.5279C26.0697 26.875 25.4657 27.379 25 28L29 32ZM29 35C29 35 25.63 38.37 21.99 38.92C21.6625 38.9715 21.3315 38.9982 21 39C18.24 39 16 37.42 16 33V31.66C15.9984 31.4427 16.0118 31.2255 16.04 31.01C16.1317 30.1465 16.4116 29.3136 16.86 28.57L23.54 19.07C24.4898 17.7241 24.9998 16.1173 25 14.47V5C25 3.93913 25.4214 2.92172 26.1716 2.17157C26.9217 1.42143 27.9391 1 29 1C30.0609 1 31.0783 1.42143 31.8284 2.17157C32.5786 2.92172 33 3.93913 33 5V14.47C33.0002 16.1173 33.5102 17.7241 34.46 19.07L41.14 28.57C41.5884 29.3136 41.8683 30.1465 41.96 31.01C41.9883 31.2255 42.0016 31.4427 42 31.66V33C42 37.42 39.76 39 37 39C36.6685 38.9982 36.3375 38.9715 36.01 38.92C32.37 38.37 29 35 29 35Z" fill="#FFE2C2"/>
<path d="M20.0001 19C21.1001 19 22.0001 17.66 22.0001 16C22.0001 14.34 21.1001 13 20.0001 13C18.9001 13 18.0001 14.34 18.0001 16C18.0001 17.66 18.9001 19 20.0001 19ZM25.0001 14.47C24.9999 16.1173 24.4899 17.7241 23.5401 19.07L16.8601 28.57C16.4117 29.3136 16.1318 30.1465 16.0401 31.01L16.0001 31L11.7201 19.87C10.7601 17.3793 10.7601 14.6207 11.7201 12.13L13.5301 7.41C14.2649 5.52836 15.5484 3.91105 17.2139 2.76801C18.8794 1.62497 20.8501 1.00898 22.8701 1H29.0001C28.4746 0.999345 27.9542 1.10236 27.4686 1.30314C26.983 1.50393 26.5418 1.79854 26.1702 2.17011C25.7986 2.54167 25.504 2.98289 25.3032 3.46849C25.1025 3.95409 24.9994 4.47453 25.0001 5V14.47Z" fill="#E9B789"/>
<path d="M36 16C36 17.66 36.9 19 38 19C39.1 19 40 17.66 40 16C40 14.34 39.1 13 38 13C36.9 13 36 14.34 36 16ZM34.46 19.07C33.5102 17.7241 33.0002 16.1173 33 14.47V5C33 3.93913 32.5786 2.92172 31.8284 2.17157C31.0783 1.42143 30.0609 1 29 1H35.13C37.15 1.00898 39.1207 1.62497 40.7862 2.76801C42.4517 3.91105 43.7352 5.52836 44.47 7.41L46.28 12.13C47.24 14.6207 47.24 17.3793 46.28 19.87L42 31L41.96 31.01C41.8683 30.1465 41.5884 29.3136 41.14 28.57L34.46 19.07Z" fill="#E9B789"/>
<path d="M36.92 45.03C37.8 47.35 39 48.58 39 53C39 59 29 59 29 59C29 59 19 59 19 53C19 48.58 20.2 47.35 21.08 45.03C21.7653 43.0963 22.0775 41.0501 22 39H36C35.9225 41.0501 36.2347 43.0963 36.92 45.03V45.03Z" fill="#C98C65"/>
<path d="M21.08 45.03C20.2 47.35 19 48.58 19 53C19 59 29 59 29 59C29 59 39 59 39 53C39 48.58 37.8 47.35 36.92 45.03L37 45L43 53L45 51C45 51 48.29 51.82 48.9 54.95C48.9023 54.9668 48.9057 54.9835 48.91 55L49 56V63H9V56L9.09 55.06C9.65 52 13 52 13 52L15 53L21 45L21.08 45.03Z" fill="#FFE2C2"/>
<path d="M46.25 41.07C47.408 43.671 48.131 46.4446 48.39 49.28L48.9 54.95C48.29 51.82 45 51 45 51L43 53L37 45L36.92 45.03C36.2347 43.0963 35.9225 41.0501 36 39L36.01 38.92C36.3375 38.9715 36.6684 38.9982 37 39C39.76 39 42 37.42 42 33V31.66C42.0016 31.4427 41.9882 31.2255 41.96 31.01L42 31L46 41L46.19 40.92L46.25 41.07Z" fill="#9A6948"/>
<path d="M22.0001 39C22.0776 41.0501 21.7654 43.0963 21.0801 45.03L21.0001 45L15.0001 53L13.0001 52C13.0001 52 9.65009 52 9.09009 55.06L9.61009 49.28C9.86908 46.4446 10.592 43.671 11.7501 41.07L11.8101 40.92L12.0001 41L16.0001 31L16.0401 31.01C16.0118 31.2255 15.9985 31.4427 16.0001 31.66V33C16.0001 37.42 18.2401 39 21.0001 39C21.3316 38.9982 21.6626 38.9715 21.9901 38.92L22.0001 39Z" fill="#9A6948"/>
<path d="M13.48 4.01L16.81 3.06C15.3352 4.17849 14.1997 5.68438 13.53 7.41L11.72 12.13C10.76 14.6207 10.76 17.3793 11.72 19.87L16 31L12 41L11.81 40.92L8.73001 39.69C7.60319 39.2421 6.64018 38.4605 5.97001 37.45L2.34001 32.02C1.46832 30.7031 1.00239 29.1593 1.00001 27.58V25.8C0.997886 24.6136 1.26097 23.4417 1.77001 22.37L8.45001 8.27C8.9377 7.24336 9.63855 6.33243 10.5059 5.59787C11.3732 4.86332 12.3871 4.32201 13.48 4.01Z" fill="#E9B789"/>
<path d="M57.0001 25.8V27.58C56.9977 29.1593 56.5318 30.7031 55.6601 32.02L52.0301 37.45C51.3599 38.4605 50.3969 39.2421 49.2701 39.69L46.1901 40.92L46.0001 41L42.0001 31L46.2801 19.87C47.24 17.3793 47.24 14.6207 46.2801 12.13L44.4701 7.41C43.8004 5.68438 42.6649 4.17849 41.1901 3.06L44.5201 4.01C45.613 4.32201 46.6269 4.86332 47.4942 5.59787C48.3615 6.33243 49.0624 7.24336 49.5501 8.27L56.2301 22.37C56.7391 23.4417 57.0022 24.6136 57.0001 25.8V25.8Z" fill="#E9B789"/>
<path d="M32 29L33 28C32.5343 27.379 31.9303 26.875 31.2361 26.5279C30.5418 26.1807 29.7762 26 29 26C28.2238 26 27.4582 26.1807 26.7639 26.5279C26.0697 26.875 25.4657 27.379 25 28L26 29C26.8655 28.3509 27.9181 28 29 28C30.0819 28 31.1345 28.3509 32 29Z" fill="#845335"/>
<path d="M47.2001 33.748L46.3601 32.699C45.9431 32.1776 45.6632 31.5601 45.546 30.9028C45.4288 30.2456 45.478 29.5694 45.6891 28.936L49.2501 18.254C49.7308 16.8054 49.6414 15.228 49.0001 13.843L44.4581 3.992L41.1901 3.06C42.6649 4.17849 43.8004 5.68438 44.4701 7.41L46.2801 12.13C47.24 14.6207 47.24 17.3793 46.2801 19.87L42.0001 31L46.0001 41L46.1901 40.92L49.2701 39.69C50.3969 39.2421 51.3599 38.4605 52.0301 37.45L53.0001 36H51.8841C50.9844 35.9998 50.0964 35.7973 49.2856 35.4075C48.4748 35.0177 47.762 34.4505 47.2001 33.748V33.748Z" fill="#AF7A58"/>
<path d="M11 16C10.9988 14.6766 11.2429 13.3644 11.72 12.13L13.53 7.41C14.1997 5.68438 15.3351 4.17849 16.81 3.06L13.542 3.992L9 13.843C8.3603 15.2287 8.27269 16.806 8.755 18.254L12.316 28.936C12.5271 29.5694 12.5763 30.2456 12.4591 30.9028C12.3419 31.5601 12.062 32.1776 11.645 32.699L10.805 33.748C10.2425 34.4512 9.52895 35.0187 8.71724 35.4086C7.90552 35.7984 7.01647 36.0005 6.116 36H5L5.969 37.45C6.63917 38.4605 7.60218 39.2421 8.729 39.69L11.809 40.92L12 41L16 31L11.72 19.87C11.2429 18.6356 10.9988 17.3234 11 16V16Z" fill="#AF7A58"/>
<path d="M49.326 17.919C49.985 20.884 51.886 26.3 57 26.932V25.8C57.0021 24.6136 56.7391 23.4417 56.23 22.37L49.55 8.27C49.0623 7.24337 48.3615 6.33243 47.4941 5.59788C46.6268 4.86332 45.6129 4.32201 44.52 4.01L44.458 3.992L49 13.843C49.5842 15.1212 49.6997 16.5642 49.326 17.919V17.919Z" fill="#F2CFA9"/>
<path d="M8.67401 17.919C8.01501 20.884 6.11401 26.3 1.00001 26.932V25.8C0.997886 24.6136 1.26097 23.4417 1.77001 22.37L8.45001 8.27C8.9377 7.24337 9.63855 6.33243 10.5059 5.59788C11.3732 4.86332 12.3871 4.32201 13.48 4.01L13.542 3.992L9.00001 13.843C8.41578 15.1212 8.30036 16.5642 8.67401 17.919Z" fill="#F2CFA9"/>
<path d="M22.7 45H35.3C35.8212 44.9984 36.341 44.9458 36.852 44.843C36.2182 42.9626 35.9295 40.9831 36 39H22C22.0698 40.9832 21.7805 42.9627 21.146 44.843C21.6576 44.946 22.1781 44.9986 22.7 45V45Z" fill="#AF7A58"/>
<path d="M9.09 55.06L9 56V63H12V52.141C11.2753 52.273 10.6082 52.6233 10.0881 53.145C9.56799 53.6667 9.21974 54.3349 9.09 55.06V55.06Z" fill="#FFEFDE"/>
<path d="M48.91 55C48.9057 54.9835 48.9023 54.9668 48.9 54.95C48.7297 54.1707 48.3785 53.4425 47.8747 52.824C47.3709 52.2056 46.7287 51.7144 46 51.39V63H49V56L48.91 55Z" fill="#FFEFDE"/>
<path d="M44.3831 43.227C45.4499 45.7164 46.0001 48.3966 46.0001 51.105V51.39C46.7288 51.7144 47.371 52.2056 47.8748 52.824C48.3786 53.4425 48.7298 54.1707 48.9001 54.95L48.3901 49.28C48.1311 46.4446 47.4081 43.671 46.2501 41.07L46.1901 40.92L46.0001 41L43.8401 41.96L44.3831 43.227Z" fill="#AF7A58"/>
<path d="M42.0001 31L41.9601 31.01C41.9883 31.2255 42.0017 31.4427 42.0001 31.66V33C42.032 34.1284 41.8329 35.2514 41.4151 36.3C41.0527 37.1543 40.4322 37.8738 39.6405 38.358C38.8489 38.8421 37.9256 39.0666 37.0001 39C36.6685 38.9982 36.3376 38.9715 36.0101 38.92L36.0001 39C35.9302 40.9832 36.2195 42.9627 36.8541 44.843C37.4389 44.7297 38.0092 44.5509 38.5541 44.31L43.8431 41.96L46.0001 41L42.0001 31Z" fill="#845335"/>
<path d="M12.0001 52.141V51.105C12.0001 48.3966 12.5502 45.7164 13.6171 43.227L14.1601 41.96L12.0001 41L11.8101 40.92L11.7501 41.07C10.592 43.671 9.86908 46.4446 9.61009 49.28L9.09009 55.06C9.21983 54.3349 9.56808 53.6667 10.0882 53.145C10.6083 52.6233 11.2754 52.273 12.0001 52.141V52.141Z" fill="#AF7A58"/>
<path d="M21.99 38.92C21.6625 38.9715 21.3315 38.9982 21 39C20.0744 39.0666 19.1512 38.8421 18.3595 38.358C17.5679 37.8738 16.9474 37.1543 16.585 36.3C16.1672 35.2514 15.9681 34.1284 16 33V31.66C15.9984 31.4427 16.0117 31.2255 16.04 31.01L16 31L12 41L14.16 41.96L19.449 44.31C19.9939 44.5509 20.5641 44.7297 21.149 44.843C21.7825 42.9625 22.0708 40.983 22 39L21.99 38.92Z" fill="#845335"/>
<path d="M32 29L29 32L26 29C25.6171 29.2798 25.2798 29.6171 25 30L27.586 32.586C27.9611 32.9609 28.4697 33.1716 29 33.1716C29.5303 33.1716 30.0389 32.9609 30.414 32.586L33 30C32.7202 29.6171 32.3829 29.2798 32 29V29Z" fill="#F2CFA9"/>
<path d="M41.538 29.379C40.045 31.736 35.009 34 29 34C22.991 34 17.955 31.736 16.462 29.379C16.244 29.8997 16.1019 30.4489 16.04 31.01C16.0118 31.2255 15.9984 31.4427 16 31.66V33C16 37.42 18.24 39 21 39C21.3315 38.9982 21.6625 38.9715 21.99 38.92C25.63 38.37 29 35 29 35C29 35 32.37 38.37 36.01 38.92C36.3375 38.9715 36.6685 38.9982 37 39C39.76 39 42 37.42 42 33V31.66C42.0016 31.4427 41.9883 31.2255 41.96 31.01C41.8981 30.4489 41.756 29.8997 41.538 29.379Z" fill="#F2CFA9"/>
<path d="M25.556 3H32.446C32.0979 2.39335 31.5961 1.88911 30.9912 1.53801C30.3862 1.18691 29.6995 1.00135 29 1C27.9394 1.00189 26.9224 1.42236 26.17 2.17C25.9314 2.41983 25.7251 2.69868 25.556 3Z" fill="#FFEFDE"/>
<path d="M13.72 14.13L15.53 9.41C16.2648 7.52836 17.5483 5.91105 19.2138 4.76801C20.8793 3.62497 22.85 3.00898 24.87 3H25.556C25.7251 2.69868 25.9313 2.41983 26.17 2.17C26.9223 1.42236 27.9394 1.00189 29 1H22.87C20.85 1.00898 18.8793 1.62497 17.2138 2.76801C15.5483 3.91105 14.2648 5.52836 13.53 7.41L11.72 12.13C11.2429 13.3644 10.9988 14.6766 11 16C11.0523 16.8769 11.3238 17.7266 11.7896 18.4713C12.2554 19.2161 12.9005 19.8321 13.666 20.263C13.2385 19.585 13.0079 18.8015 13 18C12.9988 16.6766 13.2429 15.3644 13.72 14.13V14.13Z" fill="#F2CFA9"/>
<path d="M47 16C47.0012 14.6766 46.7571 13.3644 46.28 12.13L44.47 7.41C43.7352 5.52836 42.4517 3.91105 40.7862 2.76801C39.1207 1.62497 37.15 1.00898 35.13 1H29C29.6994 1.00135 30.3862 1.18691 30.9911 1.53801C31.5961 1.88911 32.0979 2.39335 32.446 3H33.13C35.15 3.00898 37.1207 3.62497 38.7862 4.76801C40.4517 5.91105 41.7352 7.52836 42.47 9.41L44.28 14.13C44.7571 15.3644 45.0012 16.6766 45 18C44.9921 18.8015 44.7615 19.585 44.334 20.263C45.0994 19.8321 45.7445 19.216 46.2103 18.4713C46.676 17.7265 46.9476 16.8768 47 16V16Z" fill="#F2CFA9"/>
<path d="M37.5 18.893C38.3284 18.893 39 17.5978 39 16C39 14.4022 38.3284 13.107 37.5 13.107C36.6716 13.107 36 14.4022 36 16C36 17.5978 36.6716 18.893 37.5 18.893Z" fill="#5E3117"/>
<path d="M20.5 18.893C21.3284 18.893 22 17.5978 22 16C22 14.4022 21.3284 13.107 20.5 13.107C19.6716 13.107 19 14.4022 19 16C19 17.5978 19.6716 18.893 20.5 18.893Z" fill="#5E3117"/>
<path d="M52.494 19.5186C52.8161 19.1963 52.7136 18.5717 52.2651 18.1236C51.8166 17.6754 51.192 17.5734 50.8699 17.8957C50.5478 18.218 50.6503 18.8425 51.0988 19.2907C51.5473 19.7389 52.1719 19.8409 52.494 19.5186Z" fill="#F6FAFD"/>
<path d="M55.3014 24.3101C55.9424 23.6687 55.7381 22.4252 54.8451 21.5328C53.952 20.6404 52.7084 20.4369 52.0674 21.0784C51.4264 21.7198 51.6307 22.9633 52.5237 23.8557C53.4168 24.7482 54.6604 24.9516 55.3014 24.3101Z" fill="#F6FAFD"/>
<path d="M61 51H45V58H61V51Z" fill="#31C0E5"/>
<path d="M60 36V42H58H48H46V36H48H51H55H58H60Z" fill="#7BAEF5"/>
<path d="M48 36V33C48 31 51 29 51 27H55C55 29 58 31 58 33V36H48Z" fill="#31C0E5"/>
<path d="M61 58V61C60.9984 61.5299 60.7872 62.0377 60.4125 62.4125C60.0377 62.7872 59.5299 62.9984 59 63H47C46.4701 62.9984 45.9623 62.7872 45.5875 62.4125C45.2128 62.0377 45.0016 61.5299 45 61V58H61Z" fill="#FECFD5"/>
<path d="M61 50V51H45V50C45 46 48 45 48 42H58C58 45 61 46 61 50Z" fill="#FECFD5"/>
<path d="M53 27H51C51 29 48 31 48 33H50C50 31 53 29 53 27Z" fill="#696CD1"/>
<path d="M58 33C58 31 55 29 55 27H53C53 29 50 31 50 33H58Z" fill="#8A8DFF"/>
<path d="M52 35C51.4696 35 50.9609 34.7893 50.5858 34.4142C50.2107 34.0391 50 33.5304 50 33H48V36H58V35H52Z" fill="#2B8FFC"/>
<path d="M52 35H58V33H50C50 33.5304 50.2107 34.0391 50.5858 34.4142C50.9609 34.7893 51.4696 35 52 35Z" fill="#25B1E8"/>
<path d="M48 36V38C48 38.5304 48.2107 39.0391 48.5858 39.4142C48.9609 39.7893 49.4696 40 50 40H56C56.5304 40 57.0391 39.7893 57.4142 39.4142C57.7893 39.0391 58 38.5304 58 38V36H60V42H46V36H48Z" fill="#71A2E6"/>
<path d="M60 41H46V42H60V41Z" fill="#7A7EF4"/>
<path d="M49 51H45V58H49V51Z" fill="#1DA7EA"/>
<path d="M49 61V58H45V61C45.0016 61.5299 45.2128 62.0377 45.5875 62.4125C45.9623 62.7872 46.4701 62.9984 47 63H51C50.4701 62.9984 49.9623 62.7872 49.5875 62.4125C49.2128 62.0377 49.0016 61.5299 49 61V61Z" fill="#F3AFBA"/>
<path d="M58 42H48C47.9596 43.0884 47.5807 44.1371 46.916 45C45.737 46.406 45.0626 48.1662 45 50V51H49V50C49 49.936 49 49.872 49 49.81C49.0432 48.5151 49.5898 47.2881 50.5235 46.3899C51.4572 45.4917 52.7044 44.993 54 45H59.081C58.4174 44.1368 58.0395 43.0881 58 42Z" fill="#F3AFBA"/>
<path d="M45 61V51L43 53L41 50.333V61C41.0016 61.5299 41.2128 62.0377 41.5875 62.4125C41.9623 62.7872 42.4701 62.9984 43 63H46V62.721C45.6976 62.5464 45.4461 62.2957 45.2707 61.9937C45.0953 61.6918 45.0019 61.3492 45 61V61Z" fill="#C98C65"/>
<path d="M46.359 32.7L47.199 33.749C47.4389 34.0457 47.7068 34.3187 47.999 34.564V33C47.999 31 50.999 29 50.999 27H47C46.8114 28.1324 46.2859 29.1818 45.492 30.011C45.4443 30.983 45.7525 31.939 46.359 32.7Z" fill="#C98C65"/>
<path d="M44 36L46 41V36H48V34.563C47.7078 34.3177 47.4399 34.0447 47.2 33.748L46.36 32.699C45.7538 31.9382 45.4455 30.9826 45.493 30.011C44.706 30.8344 44.1856 31.8762 44 33V36Z" fill="#845335"/>
<path d="M46.619 42H46V41L43.84 41.96L43.857 42H44C44 42.1 43.988 42.194 43.982 42.291C43.793 45.065 41 46.135 41 50V50.333L43 53L45 51V50C44.9904 49.0257 45.1974 48.0615 45.606 47.177C46.127 46.039 46.87 45.177 47.391 44.215C47.1683 43.4663 46.911 42.728 46.619 42Z" fill="#845335"/>
<path d="M42 36V42H43.75L43.84 41.96L46 41L44 36H42Z" fill="#714226"/>
<path d="M57.4936 48.5188C57.8157 48.1965 57.7132 47.5719 57.2647 47.1237C56.8163 46.6756 56.1916 46.5735 55.8695 46.8958C55.5475 47.2181 55.6499 47.8427 56.0984 48.2909C56.5469 48.739 57.1715 48.8411 57.4936 48.5188Z" fill="#F6FAFD"/>
<path d="M55.4939 31.5189C55.8159 31.1966 55.7135 30.572 55.265 30.1238C54.8165 29.6757 54.1919 29.5736 53.8698 29.8959C53.5477 30.2182 53.6502 30.8428 54.0987 31.291C54.5471 31.7391 55.1718 31.8412 55.4939 31.5189Z" fill="#F6FAFD"/>
<path d="M55.8335 46.6135C55.9947 46.4521 55.9436 46.1397 55.7194 45.9156C55.4951 45.6915 55.1827 45.6407 55.0214 45.802C54.8602 45.9634 54.9113 46.2758 55.1355 46.4999C55.3598 46.724 55.6722 46.7748 55.8335 46.6135Z" fill="#F6FAFD"/>
<path d="M24.1671 27.446C24.0392 27.6384 23.9819 27.8691 24.0048 28.099C24.0278 28.3289 24.1297 28.5437 24.2931 28.707L28.2931 32.707C28.4806 32.8945 28.7349 32.9998 29.0001 32.9998C29.2652 32.9998 29.5196 32.8945 29.7071 32.707L33.7071 28.707C33.8705 28.5437 33.9724 28.3289 33.9953 28.099C34.0183 27.8691 33.961 27.6384 33.8331 27.446C33.2756 26.6882 32.5476 26.0721 31.7081 25.6474C30.8685 25.2228 29.9409 25.0016 29.0001 25.0016C28.0593 25.0016 27.1316 25.2228 26.2921 25.6474C25.4525 26.0721 24.7246 26.6882 24.1671 27.446V27.446ZM29.0001 27C29.961 26.9956 30.8908 27.3399 31.6171 27.969L29.0001 30.586L26.3841 27.969C27.1098 27.3396 28.0395 26.9953 29.0001 27V27Z" fill="black"/>
<path d="M38 12C36.317 12 35 13.757 35 16C35 18.243 36.317 20 38 20C39.683 20 41 18.243 41 16C41 13.757 39.683 12 38 12ZM38 18C37.6 18 37 17.2 37 16C37 14.8 37.6 14 38 14C38.4 14 39 14.8 39 16C39 17.2 38.4 18 38 18Z" fill="black"/>
<path d="M20 20C21.683 20 23 18.243 23 16C23 13.757 21.683 12 20 12C18.317 12 17 13.757 17 16C17 18.243 18.317 20 20 20ZM20 14C20.4 14 21 14.8 21 16C21 17.2 20.4 18 20 18C19.6 18 19 17.2 19 16C19 14.8 19.6 14 20 14Z" fill="black"/>
<path d="M43.05 51.4L37.8 44.4L37.769 44.423C37.2888 42.9972 37.0373 41.5044 37.024 40C38.839 39.994 43 39.293 43 33V31.66C43.0021 31.4079 42.9868 31.156 42.954 30.906C42.8434 29.8729 42.5016 28.878 41.954 27.995L35.273 18.495C34.4418 17.3177 33.997 15.9112 34 14.47V5C33.9964 3.91453 33.6358 2.86039 32.974 2H35.13C36.948 2.00842 38.7214 2.56295 40.2203 3.59164C41.7192 4.62033 42.8744 6.07572 43.536 7.769L45.348 12.491C46.218 14.7501 46.218 17.2519 45.348 19.511L42.6 26.641L44.468 27.358L47.209 20.231C48.2577 17.5085 48.2577 14.4935 47.209 11.771L45.4 7.047C45.1105 6.32861 44.7465 5.64253 44.314 5C45.2551 5.27857 46.1272 5.75193 46.8735 6.38936C47.6198 7.02679 48.2237 7.81404 48.646 8.7L55.325 22.8C55.6681 23.5245 55.8845 24.3024 55.965 25.1L57.955 24.9C57.8521 23.8737 57.5744 22.8727 57.134 21.94L50.453 7.84C49.9038 6.68547 49.1151 5.66106 48.1394 4.83484C47.1637 4.00862 46.0233 3.39951 44.794 3.048L41.626 2.148C39.7447 0.758481 37.4689 0.00593957 35.13 0L22.87 0C20.5364 0.0050791 18.2649 0.75323 16.385 2.136L13.206 3.048C11.9765 3.39962 10.836 4.00898 9.86026 4.83557C8.88453 5.66216 8.09597 6.68702 7.54704 7.842L0.867039 21.942C0.2924 23.1467 -0.00391282 24.4653 3.90144e-05 25.8V27.58C0.000861412 29.3587 0.525711 31.0978 1.50904 32.58L5.13704 38C5.918 39.1812 7.04262 40.0943 8.35904 40.616L9.13304 40.925L10.678 41.544C9.60618 43.9732 8.91021 46.5514 8.61404 49.19L8.09204 54.982C8.0304 55.3178 7.99961 55.6586 8.00004 56V63C8.00004 63.2652 8.1054 63.5196 8.29293 63.7071C8.48047 63.8946 8.73482 64 9.00004 64H42V62H10V56.1L10.071 55.322C10.071 55.297 10.071 55.27 10.078 55.245C10.2125 54.6218 10.5539 54.0624 11.0467 53.6579C11.5394 53.2534 12.1546 53.0275 12.792 53.017L14.558 53.9C14.7681 54.0041 15.008 54.0311 15.236 53.9762C15.4639 53.9214 15.6653 53.7882 15.805 53.6L18.166 50.452C18.0533 51.2966 17.9978 52.1479 18 53C18 59.921 28.551 60 29 60C29.449 60 40 59.921 40 53C40.0042 52.1484 39.9508 51.2974 39.84 50.453L41.45 52.6L43.05 51.4ZM32 5V14.47C31.998 16.3235 32.5718 18.1318 33.642 19.645L40.282 29.084C40.6611 29.712 40.8961 30.4162 40.97 31.146C40.9915 31.3165 41.0015 31.4882 41 31.66V33C41 36.317 39.654 38 37 38C36.7184 37.9985 36.4372 37.9754 36.159 37.931C32.896 37.438 29.738 34.323 29.706 34.292C29.5186 34.1051 29.2647 34.0002 29 34.0002C28.7354 34.0002 28.4815 34.1051 28.294 34.292C28.262 34.323 25.104 37.438 21.841 37.931C21.5629 37.9754 21.2817 37.9985 21 38C18.346 38 17 36.317 17 33V31.66C16.9989 31.4774 17.0102 31.295 17.034 31.114C17.1052 30.419 17.3252 29.7474 17.679 29.145L24.357 19.645C25.4277 18.1319 26.0018 16.3236 26 14.47V5C26 4.20435 26.3161 3.44129 26.8787 2.87868C27.4413 2.31607 28.2044 2 29 2C29.7957 2 30.5587 2.31607 31.1214 2.87868C31.684 3.44129 32 4.20435 32 5V5ZM31.212 38H26.788C27.5624 37.5029 28.3014 36.9529 29 36.354C29.6986 36.9529 30.4377 37.5029 31.212 38V38ZM9.50504 40L9.87604 39.071L9.10104 38.762C8.16185 38.3909 7.35883 37.7411 6.80004 36.9L3.17504 31.47C2.41001 30.3168 2.00136 28.9639 2.00004 27.58V25.8C1.99712 24.7622 2.2271 23.7371 2.67304 22.8L9.35404 8.7C9.77648 7.81393 10.3806 7.02662 11.127 6.38919C11.8735 5.75175 12.7457 5.27845 13.687 5C13.2536 5.64391 12.8893 6.33171 12.6 7.052L10.79 11.769C9.74135 14.4915 9.74135 17.5065 10.79 20.229L13.531 27.356L15.399 26.639L12.656 19.509C11.7861 17.2495 11.7861 14.7475 12.656 12.488L14.465 7.773C15.1262 6.07929 16.281 4.62331 17.7797 3.59392C19.2784 2.56452 21.0519 2.00921 22.87 2H25.025C24.3651 2.86133 24.0051 3.91493 24 5V14.47C24.0027 15.9134 23.5561 17.3219 22.722 18.5L16 28.055C15.5249 28.8448 15.2137 29.7223 15.085 30.635L15.068 30.628L11.443 39.7L9.87704 39.072L9.50504 40ZM14.705 51.732L13.451 51.105C13.311 51.0352 13.1565 50.9992 13 51C12.0882 51.0216 11.1949 51.2616 10.395 51.7L10.606 49.372C10.9346 46.6088 11.7139 43.9181 12.913 41.407H12.907C12.912 41.395 12.924 41.387 12.929 41.374L15.278 35.5C15.5263 36.8111 16.2397 37.9884 17.2871 38.8153C18.3344 39.6421 19.6451 40.0628 20.978 40C20.963 41.5053 20.7112 42.9989 20.232 44.426L20.2 44.4L14.705 51.732ZM29 58C28.91 58 20 57.942 20 53C19.9099 50.9061 20.3695 48.8252 21.333 46.964C21.565 46.464 21.799 45.955 22.016 45.384C22.646 43.6584 22.9731 41.837 22.983 40H35.017C35.0204 42.4157 35.5857 44.7974 36.668 46.957C37.6308 48.8209 38.09 50.904 38 53C38 57.93 29.089 58 29 58Z" fill="black"/>
<path d="M60.169 44.826C59.7551 44.2662 59.421 43.6517 59.176 43H60C60.2652 43 60.5196 42.8946 60.7071 42.7071C60.8946 42.5196 61 42.2652 61 42V36C61 35.7348 60.8946 35.4804 60.7071 35.2929C60.5196 35.1054 60.2652 35 60 35H59V33C58.8322 31.6493 58.2365 30.3877 57.3 29.4C56.6625 28.7287 56.214 27.9007 56 27C56 26.7348 55.8946 26.4804 55.7071 26.2929C55.5196 26.1054 55.2652 26 55 26H51C50.7348 26 50.4804 26.1054 50.2929 26.2929C50.1054 26.4804 50 26.7348 50 27C49.786 27.9007 49.3375 28.7287 48.7 29.4C47.7635 30.3877 47.1678 31.6493 47 33V35H46C45.7348 35 45.4804 35.1054 45.2929 35.2929C45.1054 35.4804 45 35.7348 45 36V42C45 42.2652 45.1054 42.5196 45.2929 42.7071C45.4804 42.8946 45.7348 43 46 43H46.824C46.579 43.6517 46.2449 44.2662 45.831 44.826C44.6728 46.3049 44.0298 48.1218 44 50V61C44 61.7956 44.3161 62.5587 44.8787 63.1213C45.4413 63.6839 46.2044 64 47 64H59C59.7956 64 60.5587 63.6839 61.1213 63.1213C61.6839 62.5587 62 61.7956 62 61V50C61.9702 48.1218 61.3272 46.3049 60.169 44.826ZM49 33C49.214 32.0993 49.6625 31.2713 50.3 30.6C50.9557 29.8256 51.4769 28.9468 51.842 28H54.158C54.5231 28.9468 55.0443 29.8256 55.7 30.6C56.3375 31.2713 56.786 32.0993 57 33V35H56V32H54V35H52V32H50V35H49V33ZM47 37H59V41H47V37ZM47.491 45.942C48.1605 45.0702 48.6405 44.0681 48.9 43H57.1C57.3592 44.0681 57.8388 45.0702 58.508 45.942C59.4439 47.0905 59.9691 48.5188 60 50H50V52H60V57H46V52H48V50H46C46.0306 48.5189 46.5554 47.0906 47.491 45.942V45.942ZM59 62H47C46.7348 62 46.4804 61.8946 46.2929 61.7071C46.1054 61.5196 46 61.2652 46 61V59H60V61C60 61.2652 59.8946 61.5196 59.7071 61.7071C59.5196 61.8946 59.2652 62 59 62Z" fill="black"/>
</svg>
