<svg width="64" height="64" viewBox="0 0 64 64" fill="none" xmlns="http://www.w3.org/2000/svg">
<g clip-path="url(#clip0_182_1865)">
<path d="M18 60C25.1797 60 31 54.1797 31 47C31 39.8203 25.1797 34 18 34C10.8203 34 5 39.8203 5 47C5 54.1797 10.8203 60 18 60Z" fill="#FAFCFF"/>
<path d="M62 31H28V55H62V31Z" fill="#FECFD5"/>
<path d="M36 15V19H54V15H47H43H36Z" fill="#FECFD5"/>
<path d="M29 5L32 8L35 5H39V1H33L29 5Z" fill="#FECFD5"/>
<path d="M42 5V9H43H47H48V5H42Z" fill="#FECFD5"/>
<path d="M39 1V5H42H48H51V1H39Z" fill="#7DD5F5"/>
<path d="M47 9H43V15H47V9Z" fill="#31C0E5"/>
<path d="M28 59V63H62V55H28V59Z" fill="#31C0E5"/>
<path d="M28 27V31H62V27C62 24.8783 61.1571 22.8434 59.6569 21.3431C58.1566 19.8429 56.1217 19 54 19H36C33.8783 19 31.8434 19.8429 30.3431 21.3431C28.8429 22.8434 28 24.8783 28 27V27Z" fill="#31C0E5"/>
<path d="M45 55C51.6274 55 57 49.6274 57 43C57 36.3726 51.6274 31 45 31C38.3726 31 33 36.3726 33 43C33 49.6274 38.3726 55 45 55Z" fill="#E68D79"/>
<path d="M45 51C49.4183 51 53 47.4183 53 43C53 38.5817 49.4183 35 45 35C40.5817 35 37 38.5817 37 43C37 47.4183 40.5817 51 45 51Z" fill="#AF7A58"/>
<path d="M23 49C23.0044 50.0825 22.653 51.1365 22 52C21.6061 52.5253 21.1125 52.9678 20.5475 53.3024C19.9825 53.6369 19.3572 53.8569 18.7072 53.9497C17.3944 54.1373 16.0609 53.7956 15 53L14.92 52.92L22.92 44.92L23 45V49Z" fill="#80DBFF"/>
<path d="M18 40C19.082 39.9989 20.135 40.3499 21 41L21.09 41.09L13.09 49.09L13 49V45C13 43.6739 13.5268 42.4022 14.4645 41.4645C15.4021 40.5268 16.6739 40 18 40V40Z" fill="#80DBFF"/>
<path d="M31 15C31 15.7956 30.6839 16.5587 30.1213 17.1213C29.5587 17.6839 28.7956 18 28 18C27.2044 18 26.4413 17.6839 25.8787 17.1213C25.3161 16.5587 25 15.7956 25 15C25 13.34 28 10 28 10C28 10 31 13.34 31 15Z" fill="#FECFD5"/>
<path d="M23 23C23 23.7956 22.6839 24.5587 22.1213 25.1213C21.5587 25.6839 20.7956 26 20 26C19.2044 26 18.4413 25.6839 17.8787 25.1213C17.3161 24.5587 17 23.7956 17 23C17 21.34 20 18 20 18C20 18 23 21.34 23 23Z" fill="#FECFD5"/>
<path d="M23 45C23 42.2386 20.7614 40 18 40C15.2386 40 13 42.2386 13 45V49C13 51.7614 15.2386 54 18 54C20.7614 54 23 51.7614 23 49V45Z" fill="#349C9D"/>
<path d="M18 51C16.6739 51 15.4021 50.4732 14.4645 49.5355C13.5268 48.5979 13 47.3261 13 46V49C13 50.3261 13.5268 51.5979 14.4645 52.5355C15.4021 53.4732 16.6739 54 18 54C19.3261 54 20.5979 53.4732 21.5355 52.5355C22.4732 51.5979 23 50.3261 23 49V46C23 46.6566 22.8707 47.3068 22.6194 47.9134C22.3681 48.52 21.9998 49.0712 21.5355 49.5355C21.0712 49.9998 20.52 50.3681 19.9134 50.6194C19.3068 50.8707 18.6566 51 18 51V51Z" fill="#287585"/>
<path d="M18 40C16.6739 40 15.4021 40.5268 14.4645 41.4645C13.5268 42.4021 13 43.6739 13 45V48C13 46.6739 13.5268 45.4021 14.4645 44.4645C15.4021 43.5268 16.6739 43 18 43C19.3261 43 20.5979 43.5268 21.5355 44.4645C22.4732 45.4021 23 46.6739 23 48V45C23 44.3434 22.8707 43.6932 22.6194 43.0866C22.3681 42.48 21.9998 41.9288 21.5355 41.4645C21.0712 41.0002 20.52 40.6319 19.9134 40.3806C19.3068 40.1293 18.6566 40 18 40Z" fill="#43AE9B"/>
<path d="M62 31H28V55H62V31Z" fill="#FECFD5"/>
<path d="M36 15V19H54V15H47H43H36Z" fill="#FECFD5"/>
<path d="M29 5L32 8L35 5H39V1H33L29 5Z" fill="#FECFD5"/>
<path d="M42 5V9H43H47H48V5H42Z" fill="#FECFD5"/>
<path d="M17 23C17 23.7956 17.3161 24.5587 17.8787 25.1213C18.4413 25.6839 19.2044 26 20 26C20.7956 26 21.5587 25.6839 22.1213 25.1213C22.6839 24.5587 23 23.7956 23 23C23 21.34 20 18 20 18C20 18 17 21.34 17 23Z" fill="#FECFD5"/>
<path d="M25 15C25 15.7956 25.3161 16.5587 25.8787 17.1213C26.4413 17.6839 27.2044 18 28 18C28.7956 18 29.5587 17.6839 30.1213 17.1213C30.6839 16.5587 31 15.7956 31 15C31 13.34 28 10 28 10C28 10 25 13.34 25 15Z" fill="#FECFD5"/>
<path d="M39 1V5H42H48H51V1H39Z" fill="#7DD5F5"/>
<path d="M28 59V63H62V55H28V59Z" fill="#31C0E5"/>
<path d="M28 27V31H62V27C62 24.8783 61.1571 22.8434 59.6569 21.3431C58.1566 19.8429 56.1217 19 54 19H36C33.8783 19 31.8434 19.8429 30.3431 21.3431C28.8429 22.8434 28 24.8783 28 27V27Z" fill="#31C0E5"/>
<path d="M45 55C51.6274 55 57 49.6274 57 43C57 36.3726 51.6274 31 45 31C38.3726 31 33 36.3726 33 43C33 49.6274 38.3726 55 45 55Z" fill="#F2AAB5"/>
<path d="M45 51C49.4183 51 53 47.4183 53 43C53 38.5817 49.4183 35 45 35C40.5817 35 37 38.5817 37 43C37 47.4183 40.5817 51 45 51Z" fill="#8CB8F5"/>
<path d="M44 15H46V11C46 10.7348 45.8946 10.4804 45.7071 10.2929C45.5196 10.1054 45.2652 10 45 10C44.7348 10 44.4804 10.1054 44.2929 10.2929C44.1054 10.4804 44 10.7348 44 11V15Z" fill="#7DD5F5"/>
<path d="M47 9H43V15H47V9Z" fill="#31C0E5"/>
<path d="M30 13C29.9943 12.8262 29.9667 12.6539 29.918 12.487C30.4839 13.2206 30.856 14.0848 31 15C30.9999 15.7726 30.7011 16.5152 30.166 17.0725C29.6309 17.6297 28.9011 17.9585 28.1292 17.99C27.3572 18.0216 26.603 17.7534 26.0243 17.2416C25.4456 16.7298 25.0871 16.014 25.024 15.244C25.4553 15.6278 25.9885 15.8785 26.5592 15.9657C27.1298 16.053 27.7136 15.9732 28.2398 15.7358C28.7661 15.4985 29.2124 15.1139 29.5247 14.6284C29.8371 14.1429 30.0022 13.5773 30 13V13Z" fill="#F3AFBA"/>
<path d="M22 21C21.9943 20.8262 21.9667 20.6539 21.918 20.487C22.4839 21.2206 22.856 22.0848 23 23C22.9999 23.7726 22.7011 24.5152 22.166 25.0725C21.6309 25.6297 20.9011 25.9585 20.1292 25.99C19.3572 26.0216 18.603 25.7534 18.0243 25.2416C17.4456 24.7298 17.0871 24.014 17.024 23.244C17.4553 23.6278 17.9885 23.8785 18.5592 23.9657C19.1298 24.053 19.7136 23.9732 20.2398 23.7358C20.7661 23.4985 21.2124 23.1139 21.5247 22.6284C21.8371 22.1429 22.0022 21.5773 22 21V21Z" fill="#F3AFBA"/>
<path d="M62 31H58V55H62V31Z" fill="#FED9D8"/>
<path d="M32 31H28V55H32V31Z" fill="#FED9D8"/>
<path d="M62 55H58V63H62V55Z" fill="#7DD5F5"/>
<path d="M32 55H28V63H32V55Z" fill="#7DD5F5"/>
<path d="M32 27V31H28V27C28 24.8783 28.8429 22.8434 30.3431 21.3431C31.8434 19.8429 33.8783 19 36 19H40C37.8783 19 35.8434 19.8429 34.3431 21.3431C32.8429 22.8434 32 24.8783 32 27V27Z" fill="#7DD5F5"/>
<path d="M58 27C58 24.8783 57.1571 22.8434 55.6569 21.3431C54.1566 19.8429 52.1217 19 50 19H54C56.1217 19 58.1566 19.8429 59.6569 21.3431C61.1571 22.8434 62 24.8783 62 27V31H58V27Z" fill="#7DD5F5"/>
<path d="M54 15H51V16C51 16.5304 50.7893 17.0391 50.4142 17.4142C50.0391 17.7893 49.5304 18 49 18H41C40.4696 18 39.9609 17.7893 39.5858 17.4142C39.2107 17.0391 39 16.5304 39 16V15H36V19H54V15Z" fill="#F3AFBA"/>
<path d="M46 9V8C46 7.46957 45.7893 6.96086 45.4142 6.58579C45.0391 6.21071 44.5304 6 44 6H42V5H48V9H46Z" fill="#F3AFBA"/>
<path d="M49 1V2C49 2.53043 48.7893 3.03914 48.4142 3.41421C48.0391 3.78929 47.5304 4 47 4H43C42.4696 4 41.9609 3.78929 41.5858 3.41421C41.2107 3.03914 41 2.53043 41 2V1H39V5H51V1H49Z" fill="#31C0E5"/>
<path d="M33 1L34 3L30.5 6.5L29 5L33 1Z" fill="#FECFD5"/>
<path d="M36 3C36.2652 3 36.5196 2.89464 36.7071 2.70711C36.8946 2.51957 37 2.26522 37 2V1H39V5H35L34 3H36Z" fill="#E0A3AB"/>
<path d="M35 5L32 8L30.5 6.5L34 3L35 5Z" fill="#F3AFBA"/>
<path d="M37.477 24.8569C38.3701 23.9645 38.5744 22.721 37.9334 22.0795C37.2924 21.4381 36.0488 21.6415 35.1557 22.5339C34.2627 23.4264 34.0583 24.6698 34.6994 25.3113C35.3404 25.9528 36.584 25.7493 37.477 24.8569Z" fill="#F6FAFD"/>
<path d="M38.9013 27.2921C39.3498 26.8439 39.4523 26.2194 39.1302 25.8971C38.8081 25.5748 38.1835 25.6768 37.735 26.125C37.2865 26.5731 37.1841 27.1977 37.5061 27.52C37.8282 27.8423 38.4529 27.7403 38.9013 27.2921Z" fill="#F6FAFD"/>
<path d="M19.9012 23.292C20.3497 22.8439 20.4522 22.2193 20.1301 21.897C19.808 21.5747 19.1834 21.6767 18.7349 22.1249C18.2864 22.5731 18.1839 23.1976 18.506 23.5199C18.8281 23.8422 19.4527 23.7402 19.9012 23.292Z" fill="#F6FAFD"/>
<path d="M27.9012 15.2923C28.3497 14.8442 28.4522 14.2196 28.1301 13.8973C27.808 13.575 27.1834 13.677 26.7349 14.1252C26.2864 14.5734 26.1839 15.1979 26.506 15.5202C26.8281 15.8425 27.4527 15.7405 27.9012 15.2923Z" fill="#F6FAFD"/>
<path d="M47.8645 24.5003C48.0888 24.2762 48.1398 23.9638 47.9786 23.8024C47.8174 23.6411 47.5049 23.6919 47.2807 23.916C47.0564 24.1401 47.0053 24.4526 47.1666 24.6139C47.3278 24.7752 47.6403 24.7244 47.8645 24.5003Z" fill="#F6FAFD"/>
<path d="M50 41C49.6342 41.001 49.2758 41.1027 48.9639 41.2939C48.6521 41.4851 48.3988 41.7585 48.232 42.084C48.157 41.961 48.078 41.842 47.993 41.726C48.2984 41.5513 48.5523 41.2991 48.7291 40.9949C48.9059 40.6908 48.9994 40.3453 49 39.9935C49.0006 39.6416 48.9084 39.2958 48.7327 38.991C48.5569 38.6862 48.3039 38.4332 47.9991 38.2574C47.6943 38.0816 47.3486 37.9894 46.9967 37.9899C46.6449 37.9905 46.2994 38.0839 45.9952 38.2607C45.691 38.4374 45.4388 38.6913 45.264 38.9967C45.0893 39.3021 44.9982 39.6482 45 40C45.0018 39.6482 44.9107 39.3021 44.736 38.9967C44.5612 38.6913 44.309 38.4374 44.0048 38.2607C43.7006 38.0839 43.3551 37.9905 43.0033 37.9899C42.6515 37.9894 42.3057 38.0816 42.0009 38.2574C41.6961 38.4332 41.4431 38.6862 41.2674 38.991C41.0916 39.2958 40.9994 39.6416 41 39.9935C41.0007 40.3453 41.0941 40.6908 41.2709 40.9949C41.4477 41.2991 41.7016 41.5513 42.007 41.726C41.922 41.842 41.843 41.961 41.768 42.084C41.585 41.7277 41.2992 41.4345 40.9476 41.2426C40.596 41.0506 40.1949 40.9686 39.7962 41.0072C39.3975 41.0458 39.0195 41.2033 38.7113 41.4592C38.4032 41.7151 38.1789 42.0576 38.0677 42.4425C37.9564 42.8273 37.9633 43.2367 38.0874 43.6175C38.2115 43.9984 38.4472 44.3332 38.7638 44.5786C39.0804 44.824 39.4634 44.9687 39.8632 44.9939C40.2629 45.0191 40.6611 44.9237 41.006 44.72C41.036 46.892 42.81 48 45 48C47.19 48 48.964 46.892 48.994 44.72C49.2592 44.8774 49.5573 44.9713 49.8648 44.9943C50.1723 45.0174 50.481 44.9691 50.7668 44.8531C51.0525 44.7371 51.3075 44.5566 51.512 44.3257C51.7164 44.0948 51.8647 43.8198 51.9452 43.5221C52.0257 43.2244 52.0362 42.9121 51.9761 42.6096C51.9159 42.3072 51.7865 42.0227 51.5982 41.7785C51.4099 41.5343 51.1676 41.337 50.8904 41.2019C50.6131 41.0669 50.3084 40.9978 50 41Z" fill="#E9B789"/>
<path d="M47 41C47.5523 41 48 40.5523 48 40C48 39.4477 47.5523 39 47 39C46.4477 39 46 39.4477 46 40C46 40.5523 46.4477 41 47 41Z" fill="#FFC9BD"/>
<path d="M43 41C43.5523 41 44 40.5523 44 40C44 39.4477 43.5523 39 43 39C42.4477 39 42 39.4477 42 40C42 40.5523 42.4477 41 43 41Z" fill="#FFC9BD"/>
<path d="M50 44C50.5523 44 51 43.5523 51 43C51 42.4477 50.5523 42 50 42C49.4477 42 49 42.4477 49 43C49 43.5523 49.4477 44 50 44Z" fill="#FFC9BD"/>
<path d="M40 44C40.5523 44 41 43.5523 41 43C41 42.4477 40.5523 42 40 42C39.4477 42 39 42.4477 39 43C39 43.5523 39.4477 44 40 44Z" fill="#FFC9BD"/>
<path d="M48 44.5C48 46.157 46.657 47 45 47C43.343 47 42 46.157 42 44.5C42 42.843 43.343 41 45 41C46.657 41 48 42.843 48 44.5Z" fill="#FFC9BD"/>
<path d="M46 43C46 42.7348 45.8946 42.4804 45.7071 42.2929C45.5196 42.1054 45.2652 42 45 42C44.7348 42 44.4804 42.1054 44.2929 42.2929C44.1054 42.4804 44 42.7348 44 43C43.7348 43 43.4804 43.1054 43.2929 43.2929C43.1054 43.4804 43 43.7348 43 44C43 44.5304 43.2107 45.0391 43.5858 45.4142C43.9609 45.7893 44.4696 46 45 46C45.5304 46 46.0391 45.7893 46.4142 45.4142C46.7893 45.0391 47 44.5304 47 44C47 43.7348 46.8946 43.4804 46.7071 43.2929C46.5196 43.1054 46.2652 43 46 43Z" fill="#FAA592"/>
<path d="M31 47C31.0035 44.244 30.1239 41.5594 28.49 39.34L22.92 44.92L14.92 52.92L10.34 57.49C12.2764 58.9085 14.5682 59.7625 16.9607 59.9572C19.3532 60.152 21.7528 59.6797 23.8932 58.593C26.0335 57.5062 27.8307 55.8475 29.0853 53.8011C30.3398 51.7546 31.0026 49.4004 31 47V47ZM18 63C14.5006 62.9965 11.099 61.8447 8.31743 59.7214C5.53583 57.5981 3.52789 54.6206 2.60183 51.2459C1.67577 47.8713 1.88276 44.286 3.19103 41.0403C4.4993 37.7947 6.83655 35.068 9.84403 33.2789C12.8515 31.4898 16.363 30.7371 19.8396 31.1364C23.3161 31.5356 26.5656 33.0647 29.0892 35.489C31.6129 37.9133 33.2712 41.0988 33.8096 44.5565C34.3481 48.0142 33.7369 51.5531 32.07 54.63C30.6958 57.1629 28.6631 59.2776 26.1866 60.7508C23.7101 62.2241 20.8816 63.0012 18 63V63ZM25.66 36.51C23.1586 34.6776 20.0841 33.8007 16.9924 34.0379C13.9007 34.2752 10.996 35.6108 8.8034 37.8034C6.61083 39.996 5.27517 42.9007 5.03795 45.9924C4.80072 49.0841 5.6776 52.1586 7.51 54.66L13.09 49.09L21.09 41.09L25.66 36.51Z" fill="#E68D79"/>
<path d="M32.949 55.106C34.2946 52.616 34.9995 49.8303 35 47C34.9964 42.8601 33.4809 38.8641 30.7384 35.763C27.9959 32.6618 24.2153 30.6691 20.1069 30.1592C15.9986 29.6493 11.8454 30.6575 8.42809 32.9942C5.01073 35.3309 2.56444 38.8352 1.54896 42.8486C0.533483 46.862 1.01874 51.1081 2.91354 54.7889C4.80834 58.4696 7.98221 61.3317 11.8387 62.8371C15.6951 64.3425 19.9686 64.3876 23.856 62.964C27.7434 61.5403 30.977 58.746 32.949 55.106V55.106ZM18 62C14.0218 62 10.2065 60.4196 7.39345 57.6066C4.5804 54.7936 3.00005 50.9782 3.00005 47C3.00005 43.0218 4.5804 39.2064 7.39345 36.3934C10.2065 33.5804 14.0218 32 18 32C21.3069 31.9867 24.5236 33.0777 27.14 35.1V35.1C29.627 37.0084 31.4535 39.6481 32.363 42.648C33.2725 45.648 33.2193 48.8575 32.2108 51.8257C31.2023 54.7939 29.2892 57.3715 26.7403 59.1963C24.1914 61.0212 21.1349 62.0017 18 62V62Z" fill="black"/>
<path d="M13.8001 49.8L26.3681 37.216C26.4697 37.114 26.5482 36.9913 26.5981 36.8563C26.6479 36.7212 26.6681 36.5769 26.657 36.4334C26.646 36.2898 26.6041 36.1503 26.5342 36.0244C26.4643 35.8986 26.3681 35.7892 26.2521 35.704C23.8626 33.9408 20.9696 32.9928 18.0001 33C14.2882 33.004 10.7296 34.4802 8.10494 37.1049C5.48029 39.7295 4.00402 43.2882 4.00005 47C3.99203 49.969 4.93858 52.862 6.70005 55.252C6.78586 55.3672 6.89548 55.4625 7.02145 55.5316C7.14742 55.6006 7.28678 55.6417 7.43005 55.652C7.45505 55.652 7.48005 55.652 7.50605 55.652C7.77076 55.6519 8.02464 55.5469 8.21205 55.36L13.8001 49.8ZM14.0001 46.76V45C13.9963 44.3469 14.1534 43.7028 14.4576 43.1248C14.7617 42.5468 15.2036 42.0526 15.7441 41.6859C16.2846 41.3192 16.907 41.0912 17.5565 41.0222C18.206 40.9531 18.8625 41.0451 19.4681 41.29L14.0001 46.76ZM7.66705 53.09C6.57097 51.2481 5.99487 49.1434 6.00005 47C6.00349 43.8185 7.26888 40.7682 9.51857 38.5185C11.7683 36.2688 14.8185 35.0034 18.0001 35C20.1435 34.9947 22.2482 35.5708 24.0901 36.667L20.9611 39.8C20.0612 39.2785 19.0401 39.0027 18.0001 39C16.7605 39.0014 15.5517 39.3867 14.54 40.103C13.5283 40.8193 12.7632 41.8313 12.3501 43H11.4141L9.70705 41.293L8.29305 42.707L10.2931 44.707C10.4805 44.8945 10.7349 44.9999 11.0001 45H12.0001V47H9.00005V49H11.7571L7.66705 53.09Z" fill="black"/>
<path d="M29.3001 38.748C29.2142 38.6327 29.1044 38.5373 28.9782 38.4682C28.8521 38.3992 28.7125 38.3582 28.5691 38.348C28.4254 38.3364 28.2809 38.3564 28.1458 38.4067C28.0107 38.457 27.8882 38.5363 27.7871 38.639L9.63309 56.782C9.53031 56.8839 9.45089 57.007 9.40031 57.1426C9.34973 57.2782 9.3292 57.4232 9.34014 57.5676C9.35107 57.7119 9.39321 57.8521 9.46365 57.9786C9.53408 58.1051 9.63113 58.2147 9.74809 58.3C12.138 60.0617 15.031 61.0083 18.0001 61C21.7119 60.996 25.2705 59.5198 27.8952 56.8951C30.5198 54.2705 31.9961 50.7118 32.0001 47C32.0081 44.031 31.0616 41.138 29.3001 38.748V38.748ZM21.2001 51.4C20.8261 51.8952 20.3426 52.2973 19.7875 52.5749C19.2324 52.8524 18.6207 52.9979 18.0001 53C17.4986 52.9973 17.0022 52.8996 16.5371 52.712L22.0001 47.253V49C22.0057 49.8664 21.7244 50.7103 21.2001 51.4V51.4ZM18.0001 59C15.8575 59.0052 13.7535 58.4294 11.9121 57.334L15.0421 54.206C15.9417 54.7249 16.9616 54.9986 18.0001 55C18.842 54.9963 19.6739 54.8164 20.4422 54.4719C21.2105 54.1275 21.8982 53.6261 22.4611 53H23.5861L25.2931 54.707L26.7071 53.293L24.7071 51.293C24.5196 51.1054 24.2653 51.0001 24.0001 51H23.6541C23.8824 50.3579 23.9994 49.6815 24.0001 49H27.0001V47H24.0001V45.253L28.3341 40.912C29.4294 42.7535 30.0052 44.8574 30.0001 47C29.9966 50.1815 28.7313 53.2318 26.4816 55.4815C24.2319 57.7312 21.1816 58.9966 18.0001 59V59Z" fill="black"/>
<path d="M55 18.059V15C55 14.7348 54.8946 14.4804 54.7071 14.2929C54.5196 14.1054 54.2652 14 54 14H48V10C48.2652 10 48.5196 9.89464 48.7071 9.70711C48.8946 9.51957 49 9.26522 49 9V6H51C51.2652 6 51.5196 5.89464 51.7071 5.70711C51.8946 5.51957 52 5.26522 52 5V1C52 0.734784 51.8946 0.48043 51.7071 0.292893C51.5196 0.105357 51.2652 0 51 0L33 0C32.7348 5.66374e-05 32.4805 0.105451 32.293 0.293L28.293 4.293C28.1055 4.48053 28.0002 4.73484 28.0002 5C28.0002 5.26516 28.1055 5.51947 28.293 5.707L31.293 8.707C31.4805 8.89447 31.7348 8.99979 32 8.99979C32.2652 8.99979 32.5195 8.89447 32.707 8.707L35.414 6H41V9C41 9.26522 41.1054 9.51957 41.2929 9.70711C41.4804 9.89464 41.7348 10 42 10V14H36C35.7348 14 35.4804 14.1054 35.2929 14.2929C35.1054 14.4804 35 14.7348 35 15V18.059C32.8013 18.307 30.7708 19.3554 29.2954 21.0043C27.8201 22.6532 27.003 24.7874 27 27V29H29V27C29.0021 25.1441 29.7403 23.3649 31.0526 22.0526C32.3649 20.7403 34.1441 20.0021 36 20H54C55.8559 20.0021 57.6351 20.7403 58.9474 22.0526C60.2597 23.3649 60.9979 25.1441 61 27V30H28V32H38.075C37.4588 32.3836 36.8761 32.8184 36.333 33.3L37.667 34.79C39.2502 33.3729 41.2098 32.4444 43.3091 32.1167C45.4085 31.789 47.5578 32.076 49.4976 32.943C51.4374 33.8101 53.0847 35.2202 54.2406 37.0031C55.3965 38.7859 56.0116 40.8652 56.0116 42.99C56.0116 45.1148 55.3965 47.1941 54.2406 48.9769C53.0847 50.7598 51.4374 52.1699 49.4976 53.037C47.5578 53.904 45.4085 54.191 43.3091 53.8633C41.2098 53.5356 39.2502 52.6071 37.667 51.19L36.333 52.681C36.8794 53.1693 37.4662 53.6106 38.087 54H35V56H61V62H28V64H62C62.2652 64 62.5196 63.8946 62.7071 63.7071C62.8946 63.5196 63 63.2652 63 63V52H61V54H51.9C53.7674 52.8353 55.3076 51.2144 56.3755 49.2899C57.4433 47.3655 58.0036 45.2009 58.0036 43C58.0036 40.7991 57.4433 38.6345 56.3755 36.7101C55.3076 34.7856 53.7674 33.1647 51.9 32H61V46H63V27C62.997 24.7874 62.1799 22.6532 60.7046 21.0043C59.2292 19.3554 57.1987 18.307 55 18.059V18.059ZM35 4C34.7348 4.00006 34.4805 4.10545 34.293 4.293L32 6.586L30.414 5L33.414 2H38V4H35ZM40 2H50V4H40V2ZM47 6V8H43V6H47ZM44 10H46V14H44V10ZM53 16V18H37V16H53Z" fill="black"/>
<path d="M63 48H61V50H63V48Z" fill="black"/>
<path d="M45 52C46.78 52 48.5201 51.4722 50.0001 50.4832C51.4802 49.4943 52.6337 48.0887 53.3149 46.4442C53.9961 44.7996 54.1743 42.99 53.8271 41.2442C53.4798 39.4984 52.6226 37.8947 51.364 36.636C50.1053 35.3774 48.5016 34.5202 46.7558 34.1729C45.01 33.8257 43.2004 34.0039 41.5559 34.6851C39.9113 35.3663 38.5057 36.5198 37.5168 37.9999C36.5278 39.4799 36 41.22 36 43C36.0026 45.3861 36.9517 47.6738 38.639 49.361C40.3262 51.0483 42.6139 51.9974 45 52V52ZM45 36C46.3845 36 47.7378 36.4105 48.889 37.1797C50.0401 37.9489 50.9373 39.0421 51.4672 40.3212C51.997 41.6003 52.1356 43.0078 51.8655 44.3656C51.5954 45.7235 50.9287 46.9708 49.9497 47.9498C48.9708 48.9287 47.7235 49.5954 46.3656 49.8655C45.0078 50.1356 43.6003 49.997 42.3212 49.4672C41.0421 48.9373 39.9489 48.0401 39.1797 46.889C38.4105 45.7379 38 44.3845 38 43C38.0021 41.1441 38.7403 39.3649 40.0526 38.0526C41.3649 36.7403 43.1441 36.0021 45 36V36Z" fill="black"/>
<path d="M28 19C29.0609 19 30.0783 18.5786 30.8284 17.8284C31.5786 17.0783 32 16.0609 32 15C32 13.056 29.288 9.938 28.744 9.332C28.6476 9.23195 28.5321 9.15236 28.4042 9.098C28.2764 9.04364 28.1389 9.01562 28 9.01562C27.8611 9.01562 27.7236 9.04364 27.5958 9.098C27.4679 9.15236 27.3524 9.23195 27.256 9.332C26.712 9.938 24 13.056 24 15C24 16.0609 24.4214 17.0783 25.1716 17.8284C25.9217 18.5786 26.9391 19 28 19ZM28 11.548C29.062 12.88 30 14.379 30 15C30 15.5304 29.7893 16.0391 29.4142 16.4142C29.0391 16.7893 28.5304 17 28 17C27.4696 17 26.9609 16.7893 26.5858 16.4142C26.2107 16.0391 26 15.5304 26 15C26 14.361 26.939 12.873 28 11.548Z" fill="black"/>
<path d="M20 27C21.0609 27 22.0783 26.5786 22.8284 25.8284C23.5786 25.0783 24 24.0609 24 23C24 21.056 21.288 17.938 20.744 17.332C20.6476 17.2319 20.5321 17.1524 20.4042 17.098C20.2764 17.0436 20.1389 17.0156 20 17.0156C19.8611 17.0156 19.7236 17.0436 19.5958 17.098C19.4679 17.1524 19.3524 17.2319 19.256 17.332C18.712 17.938 16 21.056 16 23C16 24.0609 16.4214 25.0783 17.1716 25.8284C17.9217 26.5786 18.9391 27 20 27ZM20 19.548C21.062 20.88 22 22.379 22 23C22 23.5304 21.7893 24.0391 21.4142 24.4142C21.0391 24.7893 20.5304 25 20 25C19.4696 25 18.9609 24.7893 18.5858 24.4142C18.2107 24.0391 18 23.5304 18 23C18 22.361 18.939 20.873 20 19.548V19.548Z" fill="black"/>
</g>
<defs>
<clipPath id="clip0_182_1865">
<rect width="64" height="64" fill="white"/>
</clipPath>
</defs>
</svg>
