<svg width="64" height="64" viewBox="0 0 64 64" fill="none" xmlns="http://www.w3.org/2000/svg">
<path d="M53 30V58L48 63V61L46 59L48 57L46 55L48 53L46 51L48 49L46 47L48 45L46 43L48 41L46 39L48 37L46 35L48 33L46 31L50 27L53 30Z" fill="#BEC3D2"/>
<path d="M50 27L46 31L44 33V63L39 58V30L42 27H50Z" fill="#CDD2E1"/>
<path d="M18 33L14 37L11 34V6L16 1V31L18 33Z" fill="#BEC3D2"/>
<path d="M25 6V34L22 37H14L18 33L20 31V1L25 6Z" fill="#CDD2E1"/>
<path d="M55 21V24L52 27H50H42H40L37 24V21H41L43 23H49L51 21H55Z" fill="#CDD2E1"/>
<path d="M27 40V43H23L21 41H15L13 43H9V40L12 37H14H22H24L27 40Z" fill="#AFB4C8"/>
<path d="M13 43V57C13 54.1 11.28 51.68 9 51.12V43H13Z" fill="#31C0E5"/>
<path d="M27 43V51.12C24.72 51.68 23 54.1 23 57V43H27Z" fill="#31C0E5"/>
<path d="M41 7V21H37V12.88C39.28 12.32 41 9.9 41 7Z" fill="#31C0E5"/>
<path d="M51 7C51 9.9 52.72 12.32 55 12.88V21H51V7Z" fill="#31C0E5"/>
<path d="M58 7C58 5.34 57.1 4 56 4C54.9 4 54 5.34 54 7C54 8.66 54.9 10 56 10C57.1 10 58 8.66 58 7ZM56 1C58.76 1 61 3.69 61 7C61 10.31 58.76 13 56 13C55.663 13.0008 55.3272 12.9605 55 12.88C52.72 12.32 51 9.9 51 7C51 3.69 53.24 1 56 1Z" fill="#F9BBC6"/>
<path d="M38 7C38 5.34 37.1 4 36 4C34.9 4 34 5.34 34 7C34 8.66 34.9 10 36 10C37.1 10 38 8.66 38 7ZM36 1C38.76 1 41 3.69 41 7C41 9.9 39.28 12.32 37 12.88C36.6728 12.9605 36.337 13.0008 36 13C33.24 13 31 10.31 31 7C31 3.69 33.24 1 36 1Z" fill="#F9BBC6"/>
<path d="M10 57C10 55.34 9.1 54 8 54C6.9 54 6 55.34 6 57C6 58.66 6.9 60 8 60C9.1 60 10 58.66 10 57ZM9 51.12C11.28 51.68 13 54.1 13 57C13 60.31 10.76 63 8 63C5.24 63 3 60.31 3 57C3 53.69 5.24 51 8 51C8.33697 50.9992 8.67278 51.0395 9 51.12V51.12Z" fill="#F9BBC6"/>
<path d="M28 60C29.1 60 30 58.66 30 57C30 55.34 29.1 54 28 54C26.9 54 26 55.34 26 57C26 58.66 26.9 60 28 60ZM28 51C30.76 51 33 53.69 33 57C33 60.31 30.76 63 28 63C25.24 63 23 60.31 23 57C23 54.1 24.72 51.68 27 51.12C27.3272 51.0395 27.663 50.9992 28 51Z" fill="#F9BBC6"/>
<path d="M13 40V43L15 41L14 39L13 40Z" fill="#707789"/>
<path d="M14 39H22L23 40H27L24 37H22H14H12L9 40H13L14 39Z" fill="#CDD2E1"/>
<path d="M22 39L21 41L23 43V40L22 39Z" fill="#707789"/>
<path d="M14 39L15 41H21L22 39H14Z" fill="#8A90A0"/>
<path d="M51 24V21L49 23L50 25L51 24Z" fill="#AFB4C8"/>
<path d="M50 25H42L41 24H37L40 27H42H50H52L55 24H51L50 25Z" fill="#8A90A0"/>
<path d="M42 25L43 23L41 21V24L42 25Z" fill="#AFB4C8"/>
<path d="M50 25L49 23H43L42 25H50Z" fill="#CDD2E1"/>
<path d="M22 3L20 1V31H22V3Z" fill="#EEF2FA"/>
<path d="M20.707 32.293L22 31H20L18 33L14 37H22L25 34H21.414C21.2162 34 21.023 33.9413 20.8585 33.8314C20.6941 33.7215 20.566 33.5654 20.4903 33.3827C20.4147 33.2 20.3948 32.9989 20.4334 32.805C20.472 32.611 20.5672 32.4329 20.707 32.293Z" fill="#7E8596"/>
<path d="M20.7071 32.293C20.5673 32.4329 20.4721 32.611 20.4335 32.805C20.3949 32.9989 20.4147 33.2 20.4904 33.3827C20.5661 33.5654 20.6942 33.7215 20.8586 33.8314C21.023 33.9413 21.2163 34 21.4141 34H25.0001V31H22.0001L20.7071 32.293Z" fill="#AFB4C8"/>
<path d="M42 61L44 63V33H42V61Z" fill="#EEF2FA"/>
<path d="M43.293 31.707L42 33H44L46 31L50 27H42L39 30H42.586C42.7837 30 42.977 30.0587 43.1415 30.1686C43.3059 30.2785 43.434 30.4346 43.5097 30.6173C43.5853 30.8 43.6051 31.0011 43.5666 31.195C43.528 31.389 43.4328 31.5671 43.293 31.707V31.707Z" fill="#7E8596"/>
<path d="M43.293 31.707C43.4328 31.5671 43.528 31.389 43.5666 31.195C43.6051 31.0011 43.5853 30.8 43.5097 30.6173C43.434 30.4346 43.3059 30.2785 43.1415 30.1686C42.977 30.0587 42.7837 30 42.586 30H39V33H42L43.293 31.707Z" fill="#AFB4C8"/>
<path d="M16 31V1L14 3V33L16 31Z" fill="#EEF2FA"/>
<path d="M16 31L14 33L13 34H11L14 37L18 33L16 31Z" fill="#AFB4C8"/>
<path d="M11 48.382C10.9999 48.5524 10.9563 48.7199 10.8733 48.8687C10.7902 49.0175 10.6706 49.1426 10.5256 49.2322C10.3806 49.3218 10.2152 49.3728 10.045 49.3805C9.87477 49.3881 9.70542 49.3522 9.553 49.276L9 49V51.12C11.28 51.68 13 54.1 13 57V43H11V48.382Z" fill="#2B8FFC"/>
<path d="M25 48.382V43H23V57C23 54.1 24.72 51.68 27 51.12V49L26.447 49.276C26.2946 49.3522 26.1252 49.3881 25.955 49.3805C25.7848 49.3728 25.6194 49.3218 25.4744 49.2322C25.3294 49.1426 25.2098 49.0175 25.1267 48.8687C25.0437 48.7199 25.0001 48.5524 25 48.382V48.382Z" fill="#2B8FFC"/>
<path d="M53 15.618C53.0001 15.4476 53.0437 15.2801 53.1267 15.1313C53.2098 14.9825 53.3294 14.8574 53.4744 14.7678C53.6194 14.6782 53.7848 14.6272 53.955 14.6195C54.1252 14.6119 54.2946 14.6478 54.447 14.724L55 15V12.88C52.72 12.32 51 9.9 51 7V21H53V15.618Z" fill="#2B8FFC"/>
<path d="M39 15.618V21H41V7C41 9.9 39.28 12.32 37 12.88V15L37.553 14.724C37.7054 14.6478 37.8748 14.6119 38.045 14.6195C38.2152 14.6272 38.3806 14.6782 38.5256 14.7678C38.6706 14.8574 38.7902 14.9825 38.8733 15.1313C38.9563 15.2801 38.9999 15.4476 39 15.618V15.618Z" fill="#2B8FFC"/>
<path d="M28 60C26.9 60 26 58.66 26 57C26 55.34 26.9 54 28 54C29.1 54 30 55.34 30 57C30 58.66 29.1 60 28 60Z" fill="#E0A3AB"/>
<path d="M56 10C54.9 10 54 8.66 54 7C54 5.34 54.9 4 56 4C57.1 4 58 5.34 58 7C58 8.66 57.1 10 56 10Z" fill="#E0A3AB"/>
<path d="M51 28L50 27L46 31H48L51 28Z" fill="#AFB4C8"/>
<path d="M28 50V40C27.9999 39.7348 27.8946 39.4805 27.707 39.293L24.707 36.293C24.6042 36.1928 24.4806 36.1163 24.345 36.069L25.707 34.707C25.8946 34.5195 25.9999 34.2652 26 34V15H24V33.586L21.586 36H16.414L20.707 31.707C20.8946 31.5195 20.9999 31.2652 21 31V3.414L24 6.414V9H26V6C25.9999 5.73481 25.8946 5.48049 25.707 5.293L20.707 0.293001C20.5671 0.153191 20.389 0.0579847 20.195 0.0194171C20.0011 -0.0191504 19.8 0.000652529 19.6173 0.0763226C19.4346 0.151993 19.2785 0.280132 19.1686 0.444542C19.0587 0.608952 19 0.80225 19 1V30.586L14 35.586L12 33.586V6.414L15 3.414V31H17V1C17 0.80225 16.9413 0.608952 16.8314 0.444542C16.7215 0.280132 16.5654 0.151993 16.3827 0.0763226C16.2 0.000652529 15.9989 -0.0191504 15.805 0.0194171C15.611 0.0579847 15.4329 0.153191 15.293 0.293001L10.293 5.293C10.1055 5.48049 10.0001 5.73481 10 6V34C10.0001 34.2652 10.1055 34.5195 10.293 34.707L11.655 36.069C11.5194 36.1163 11.3958 36.1928 11.293 36.293L8.293 39.293C8.10545 39.4805 8.00006 39.7348 8 40V50C4.691 50 2 53.14 2 57C2 60.86 4.691 64 8 64C11.309 64 14 60.86 14 57V43.414L15.414 42H20.586L22 43.414V57C22 60.86 24.691 64 28 64C31.309 64 34 60.86 34 57C34 53.14 31.309 50 28 50ZM8 62C5.794 62 4 59.757 4 57C4 54.243 5.794 52 8 52C8.25641 51.9995 8.51194 52.03 8.761 52.091C10.638 52.552 12 54.617 12 57C12 59.757 10.206 62 8 62ZM10 50.419V44H12V51.8C11.4372 51.2049 10.7559 50.7344 10 50.419ZM21 40H15C14.7348 40.0001 14.4805 40.1054 14.293 40.293L12.586 42H10V40.414L12.414 38H23.586L26 40.414V42H23.414L21.707 40.293C21.5195 40.1054 21.2652 40.0001 21 40V40ZM24 44H26V50.419C25.2443 50.7348 24.5631 51.2052 24 51.8V44ZM28 62C25.794 62 24 59.757 24 57C24 54.617 25.362 52.552 27.239 52.091C27.488 52.03 27.7436 51.9994 28 52C30.206 52 32 54.243 32 57C32 59.757 30.206 62 28 62Z" fill="black"/>
<path d="M28 53C26.318 53 25 54.757 25 57C25 59.243 26.318 61 28 61C29.682 61 31 59.243 31 57C31 54.757 29.682 53 28 53ZM28 59C27.6 59 27 58.2 27 57C27 55.8 27.6 55 28 55C28.4 55 29 55.8 29 57C29 58.2 28.4 59 28 59Z" fill="black"/>
<path d="M8 53C6.318 53 5 54.757 5 57C5 59.243 6.318 61 8 61C9.682 61 11 59.243 11 57C11 54.757 9.682 53 8 53ZM8 59C7.6 59 7 58.2 7 57C7 55.8 7.6 55 8 55C8.4 55 9 55.8 9 57C9 58.2 8.4 59 8 59Z" fill="black"/>
<path d="M26 11H24V13H26V11Z" fill="black"/>
<path d="M56 0C52.691 0 50 3.14 50 7V20.586L48.586 22H43.414L42 20.586V7C42 3.14 39.309 0 36 0C32.691 0 30 3.14 30 7C30 10.86 32.691 14 36 14C36.4179 14.001 36.8343 13.951 37.24 13.851C38.2991 13.5763 39.257 13.0032 40 12.2V20H38V15H36V24C36.0001 24.2652 36.1054 24.5195 36.293 24.707L39.293 27.707C39.3958 27.8072 39.5194 27.8837 39.655 27.931L38.293 29.293C38.1054 29.4805 38.0001 29.7348 38 30V58C38.0001 58.2652 38.1054 58.5195 38.293 58.707L43.293 63.707C43.4329 63.8468 43.611 63.942 43.805 63.9806C43.9989 64.0192 44.2 63.9993 44.3827 63.9237C44.5654 63.848 44.7215 63.7199 44.8314 63.5555C44.9413 63.391 45 63.1978 45 63V33.414L50 28.414L52 30.414V57.586L48.937 60.649C48.8864 60.5154 48.808 60.3941 48.707 60.293L47.414 59L48.707 57.707C48.8945 57.5195 48.9998 57.2652 48.9998 57C48.9998 56.7348 48.8945 56.4805 48.707 56.293L47.414 55L48.707 53.707C48.8945 53.5195 48.9998 53.2652 48.9998 53C48.9998 52.7348 48.8945 52.4805 48.707 52.293L47.414 51L48.707 49.707C48.8945 49.5195 48.9998 49.2652 48.9998 49C48.9998 48.7348 48.8945 48.4805 48.707 48.293L47.414 47L48.707 45.707C48.8945 45.5195 48.9998 45.2652 48.9998 45C48.9998 44.7348 48.8945 44.4805 48.707 44.293L47.414 43L48.707 41.707C48.8945 41.5195 48.9998 41.2652 48.9998 41C48.9998 40.7348 48.8945 40.4805 48.707 40.293L47.414 39L48.707 37.707C48.8945 37.5195 48.9998 37.2652 48.9998 37C48.9998 36.7348 48.8945 36.4805 48.707 36.293L47.414 35L48.707 33.707L47.293 32.293L45.293 34.293C45.1055 34.4805 45.0002 34.7348 45.0002 35C45.0002 35.2652 45.1055 35.5195 45.293 35.707L46.586 37L45.293 38.293C45.1055 38.4805 45.0002 38.7348 45.0002 39C45.0002 39.2652 45.1055 39.5195 45.293 39.707L46.586 41L45.293 42.293C45.1055 42.4805 45.0002 42.7348 45.0002 43C45.0002 43.2652 45.1055 43.5195 45.293 43.707L46.586 45L45.293 46.293C45.1055 46.4805 45.0002 46.7348 45.0002 47C45.0002 47.2652 45.1055 47.5195 45.293 47.707L46.586 49L45.293 50.293C45.1055 50.4805 45.0002 50.7348 45.0002 51C45.0002 51.2652 45.1055 51.5195 45.293 51.707L46.586 53L45.293 54.293C45.1055 54.4805 45.0002 54.7348 45.0002 55C45.0002 55.2652 45.1055 55.5195 45.293 55.707L46.586 57L45.293 58.293C45.1055 58.4805 45.0002 58.7348 45.0002 59C45.0002 59.2652 45.1055 59.5195 45.293 59.707L47 61.414V63C47 63.1978 47.0587 63.391 47.1686 63.5555C47.2785 63.7199 47.4346 63.848 47.6173 63.9237C47.8 63.9993 48.0011 64.0192 48.195 63.9806C48.389 63.942 48.5671 63.8468 48.707 63.707L53.707 58.707C53.8946 58.5195 53.9999 58.2652 54 58V30C53.9999 29.7348 53.8946 29.4805 53.707 29.293L52.345 27.931C52.4806 27.8837 52.6042 27.8072 52.707 27.707L55.707 24.707C55.8946 24.5195 55.9999 24.2652 56 24V15H54V20H52V12.2C52.7422 13.0019 53.6991 13.5736 54.757 13.847C55.1635 13.9489 55.581 14.0003 56 14C59.309 14 62 10.86 62 7C62 3.14 59.309 0 56 0ZM36.761 11.909C36.512 11.97 36.2564 12.0006 36 12C33.794 12 32 9.757 32 7C32 4.243 33.794 2 36 2C38.206 2 40 4.243 40 7C40 9.383 38.638 11.448 36.761 11.909ZM43.293 32.293C43.1054 32.4805 43.0001 32.7348 43 33V60.586L40 57.586V30.414L42.414 28H47.586L43.293 32.293ZM54 23.586L51.586 26H40.414L38 23.586V22H40.586L42.293 23.707C42.4805 23.8946 42.7348 23.9999 43 24H49C49.2652 23.9999 49.5195 23.8946 49.707 23.707L51.414 22H54V23.586ZM56 12C55.7436 12.0005 55.4881 11.97 55.239 11.909C53.362 11.448 52 9.383 52 7C52 4.243 53.794 2 56 2C58.206 2 60 4.243 60 7C60 9.757 58.206 12 56 12Z" fill="black"/>
<path d="M36 3C34.318 3 33 4.757 33 7C33 9.243 34.318 11 36 11C37.682 11 39 9.243 39 7C39 4.757 37.682 3 36 3ZM36 9C35.6 9 35 8.2 35 7C35 5.8 35.6 5 36 5C36.4 5 37 5.8 37 7C37 8.2 36.4 9 36 9Z" fill="black"/>
<path d="M56 3C54.318 3 53 4.757 53 7C53 9.243 54.318 11 56 11C57.682 11 59 9.243 59 7C59 4.757 57.682 3 56 3ZM56 9C55.6 9 55 8.2 55 7C55 5.8 55.6 5 56 5C56.4 5 57 5.8 57 7C57 8.2 56.4 9 56 9Z" fill="black"/>
</svg>
