<svg width="64" height="64" viewBox="0 0 64 64" fill="none" xmlns="http://www.w3.org/2000/svg">
<g clip-path="url(#clip0_182_1933)">
<path d="M50 29C49.9934 27.6837 49.805 26.3747 49.44 25.11C50.2897 24.3424 50.9596 23.3969 51.4021 22.3408C51.8446 21.2847 52.0487 20.144 52 19C52 15.13 49.76 12 47 12C46.2792 12.0067 45.5751 12.2182 44.97 12.61C44.99 12.41 45 12.2 45 12C45.0013 10.4685 44.4999 8.97885 43.5728 7.75984C42.6456 6.54084 41.344 5.65987 39.8677 5.25219C38.3915 4.84451 36.8222 4.93267 35.4009 5.50314C33.9795 6.0736 32.7848 7.09482 32 8.41C31.2152 7.09482 30.0204 6.0736 28.5991 5.50314C27.1778 4.93267 25.6085 4.84451 24.1322 5.25219C22.656 5.65987 21.3543 6.54084 20.4272 7.75984C19.5 8.97885 18.9986 10.4685 19 12C19 12.2 19.01 12.41 19.03 12.61C18.4249 12.2182 17.7208 12.0067 17 12C14.24 12 12 15.13 12 19C11.9512 20.144 12.1554 21.2847 12.5978 22.3408C13.0403 23.3969 13.7103 24.3424 14.56 25.11C14.195 26.3747 14.0065 27.6837 14 29C14.0553 31.69 14.8066 34.3198 16.1806 36.6331C17.5545 38.9464 19.5043 40.8644 21.84 42.2C21.696 43.653 21.467 45.058 21.213 46.514C20.0531 51.9419 19.339 57.4557 19.078 63H44.922C44.6609 57.4557 43.9469 51.9419 42.787 46.514C42.533 45.058 42.304 43.653 42.16 42.2C44.4956 40.8644 46.4454 38.9464 47.8194 36.6331C49.1934 34.3198 49.9446 31.69 50 29V29Z" fill="#F2CFA9"/>
<path d="M51 14.8C50.6512 14.0134 50.0944 13.337 49.3895 12.8436C48.6846 12.3501 47.8584 12.0585 47 12L49 8C49 8 50.95 9.95 51 14.8Z" fill="#E1F1FA"/>
<path d="M38 1C38.8065 1.51385 39.4904 2.19835 40.0035 3.00524C40.5167 3.81213 40.8466 4.72176 40.97 5.67C40.0421 5.22889 39.0275 5.00003 38 5.00003C36.9726 5.00003 35.958 5.22889 35.03 5.67C35.1534 4.72176 35.4834 3.81213 35.9965 3.00524C36.5097 2.19835 37.1936 1.51385 38 1V1Z" fill="#E1F1FA"/>
<path d="M26 1C26.8065 1.51385 27.4904 2.19835 28.0035 3.00524C28.5167 3.81213 28.8466 4.72176 28.97 5.67C28.0421 5.22889 27.0275 5.00003 26 5.00003C24.9726 5.00003 23.958 5.22889 23.03 5.67C23.1534 4.72176 23.4834 3.81213 23.9965 3.00524C24.5097 2.19835 25.1936 1.51385 26 1V1Z" fill="#E1F1FA"/>
<path d="M15 8L17 12C16.1416 12.0585 15.3154 12.3501 14.6105 12.8436C13.9056 13.337 13.3488 14.0134 13 14.8C13.05 9.95 15 8 15 8Z" fill="#E1F1FA"/>
<path d="M17 22C18.1046 22 19 20.6569 19 19C19 17.3431 18.1046 16 17 16C15.8954 16 15 17.3431 15 19C15 20.6569 15.8954 22 17 22Z" fill="#F9BBC6"/>
<path d="M26 15C27.6569 15 29 13.6569 29 12C29 10.3431 27.6569 9 26 9C24.3431 9 23 10.3431 23 12C23 13.6569 24.3431 15 26 15Z" fill="#F9BBC6"/>
<path d="M38 15C39.6569 15 41 13.6569 41 12C41 10.3431 39.6569 9 38 9C36.3431 9 35 10.3431 35 12C35 13.6569 36.3431 15 38 15Z" fill="#F9BBC6"/>
<path d="M47 22C48.1046 22 49 20.6569 49 19C49 17.3431 48.1046 16 47 16C45.8954 16 45 17.3431 45 19C45 20.6569 45.8954 22 47 22Z" fill="#F9BBC6"/>
<path d="M38 28C41.31 28 44 30.24 44 33C44 35.76 41.31 38 38 38C35.09 38 32.67 36.28 32.12 33.99C32.08 33.99 32.04 34 32 34C31.96 34 31.92 33.99 31.88 33.99C31.33 36.28 28.91 38 26 38C22.69 38 20 35.76 20 33C20 30.24 22.69 28 26 28C26 26.4087 26.6321 24.8826 27.7574 23.7574C28.8826 22.6321 30.4087 22 32 22C33.5913 22 35.1174 22.6321 36.2426 23.7574C37.3679 24.8826 38 26.4087 38 28V28Z" fill="#F2AAB5"/>
<path d="M42.7871 47.514C42.6651 46.814 42.5511 46.131 42.4471 45.446C42.3531 44.822 42.2761 44.194 42.2061 43.562C41.0109 44.5103 39.5256 45.0181 38.0001 45C35.0901 45 32.6701 43.28 32.1201 40.99C32.0801 40.99 32.0401 41 32.0001 41C31.9601 41 31.9201 40.99 31.8801 40.99C31.3301 43.28 28.9101 45 26.0001 45C24.4745 45.0179 22.9893 44.5102 21.7941 43.562V43.568C21.6491 44.89 21.4451 46.182 21.2131 47.514C20.1993 52.3282 19.5177 57.2063 19.1731 62.114V62.186C19.1581 62.449 19.1471 62.728 19.1331 62.997H44.8761C44.5668 57.7911 43.8685 52.6157 42.7871 47.514V47.514Z" fill="#E9B789"/>
<path d="M39 55V60L37 62H30L28 60V57H31C30.9944 57.2642 31.0423 57.5268 31.1409 57.7719C31.2394 58.0171 31.3865 58.2398 31.5733 58.4267C31.7602 58.6135 31.9829 58.7606 32.2281 58.8591C32.4732 58.9577 32.7358 59.0056 33 59C33.6291 58.9501 34.235 58.7402 34.7601 58.3901C35.2852 58.0401 35.712 57.5615 36 57V53C35.712 52.4385 35.2852 51.9599 34.7601 51.6099C34.235 51.2598 33.6291 51.0499 33 51C32.7358 50.9944 32.4732 51.0423 32.2281 51.1409C31.9829 51.2394 31.7602 51.3865 31.5733 51.5733C31.3865 51.7602 31.2394 51.9829 31.1409 52.2281C31.0423 52.4732 30.9944 52.7358 31 53H28V50L30 48H37L39 50V55Z" fill="#CDD2E1"/>
<path d="M39 55C39 55 41 59 44 59C47 59 52 58 54 58C56 58 56 61 56 61C56.0056 61.2642 55.9577 61.5268 55.8591 61.7719C55.7606 62.0171 55.6135 62.2398 55.4267 62.4267C55.2398 62.6135 55.0171 62.7606 54.7719 62.8591C54.5268 62.9577 54.2642 63.0056 54 63C52 63 42 62 42 62L39 59V55Z" fill="#31C0E5"/>
<path d="M44 51C41 51 39 55 39 55V51L42 48C42 48 52 47 54 47C54.2642 46.9944 54.5268 47.0423 54.7719 47.1408C55.0171 47.2394 55.2398 47.3865 55.4267 47.5733C55.6135 47.7602 55.7606 47.9829 55.8591 48.2281C55.9577 48.4732 56.0056 48.7358 56 49C56 49 56 52 54 52C52 52 47 51 44 51Z" fill="#31C0E5"/>
<path d="M47 22C46.134 22 45.4 21.164 45.123 20C45.0428 20.3273 45.0015 20.663 45 21C45 22.66 45.9 24 47 24C48.1 24 49 22.66 49 21C48.9985 20.663 48.9572 20.3273 48.877 20C48.6 21.164 47.866 22 47 22Z" fill="#E9B789"/>
<path d="M38 13C37.3811 12.9997 36.7776 12.8071 36.2729 12.4488C35.7682 12.0905 35.3874 11.5842 35.183 11C35.017 11.4533 34.9628 11.9401 35.0251 12.4188C35.0874 12.8976 35.2643 13.3542 35.5408 13.75C35.8173 14.1458 36.1853 14.4689 36.6134 14.6921C37.0415 14.9152 37.5172 15.0318 38 15.0318C38.4828 15.0318 38.9585 14.9152 39.3866 14.6921C39.8147 14.4689 40.1827 14.1458 40.4592 13.75C40.7357 13.3542 40.9126 12.8976 40.9749 12.4188C41.0372 11.9401 40.983 11.4533 40.817 11C40.6126 11.5842 40.2318 12.0905 39.7271 12.4488C39.2225 12.8071 38.6189 12.9997 38 13V13Z" fill="#F2AAB5"/>
<path d="M26 13C25.3811 12.9997 24.7776 12.8071 24.2729 12.4488C23.7682 12.0905 23.3874 11.5842 23.183 11C23.017 11.4533 22.9628 11.9401 23.0251 12.4188C23.0874 12.8976 23.2643 13.3542 23.5408 13.75C23.8173 14.1458 24.1853 14.4689 24.6134 14.6921C25.0415 14.9152 25.5172 15.0318 26 15.0318C26.4828 15.0318 26.9585 14.9152 27.3866 14.6921C27.8147 14.4689 28.1827 14.1458 28.4592 13.75C28.7357 13.3542 28.9126 12.8976 28.9749 12.4188C29.0372 11.9401 28.983 11.4533 28.817 11C28.6126 11.5842 28.2318 12.0905 27.7271 12.4488C27.2224 12.8071 26.6189 12.9997 26 13V13Z" fill="#F2AAB5"/>
<path d="M26 31C26 29.4087 26.6321 27.8826 27.7574 26.7574C28.8826 25.6321 30.4087 25 32 25C33.5913 25 35.1174 25.6321 36.2426 26.7574C37.3679 27.8826 38 29.4087 38 31C39.1945 30.9453 40.378 31.2495 41.3981 31.8732C42.4182 32.497 43.2283 33.4119 43.724 34.5C43.9062 34.0209 43.9997 33.5126 44 33C44 30.24 41.31 28 38 28C38 26.4087 37.3679 24.8826 36.2426 23.7574C35.1174 22.6321 33.5913 22 32 22C30.4087 22 28.8826 22.6321 27.7574 23.7574C26.6321 24.8826 26 26.4087 26 28C22.69 28 20 30.24 20 33C20.0003 33.5126 20.0938 34.0209 20.276 34.5C20.7717 33.4119 21.5818 32.497 22.6019 31.8732C23.622 31.2495 24.8055 30.9453 26 31V31Z" fill="#F9BBC6"/>
<path d="M17 15C17.7208 15.0067 18.4249 15.2182 19.03 15.61C19.01 15.41 19 15.2 19 15C18.9987 13.4685 19.5 11.9788 20.4272 10.7598C21.3543 9.54084 22.656 8.65987 24.1323 8.25219C25.6085 7.84451 27.1778 7.93267 28.5991 8.50314C30.0204 9.0736 31.2152 10.0948 32 11.41C32.7848 10.0948 33.9796 9.0736 35.4009 8.50314C36.8222 7.93267 38.3915 7.84451 39.8677 8.25219C41.344 8.65987 42.6456 9.54084 43.5728 10.7598C44.4999 11.9788 45.0013 13.4685 45 15C45 15.2 44.99 15.41 44.97 15.61C45.5751 15.2182 46.2792 15.0067 47 15C49.385 15 51.379 17.34 51.877 20.473C51.9559 19.9859 51.9971 19.4934 52 19C52 15.13 49.76 12 47 12C46.2792 12.0067 45.5751 12.2182 44.97 12.61C44.99 12.41 45 12.2 45 12C45.0013 10.4685 44.4999 8.97885 43.5728 7.75984C42.6456 6.54084 41.344 5.65987 39.8677 5.25219C38.3915 4.84451 36.8222 4.93267 35.4009 5.50314C33.9796 6.0736 32.7848 7.09482 32 8.41C31.2152 7.09482 30.0204 6.0736 28.5991 5.50314C27.1778 4.93267 25.6085 4.84451 24.1323 5.25219C22.656 5.65987 21.3543 6.54084 20.4272 7.75984C19.5 8.97885 18.9987 10.4685 19 12C19 12.2 19.01 12.41 19.03 12.61C18.4249 12.2182 17.7208 12.0067 17 12C14.24 12 12 15.13 12 19C12.0029 19.4934 12.0441 19.9859 12.123 20.473C12.621 17.34 14.615 15 17 15Z" fill="#FFE2C2"/>
<path d="M38 15C37.3811 14.9997 36.7776 14.8071 36.2729 14.4488C35.7682 14.0905 35.3874 13.5842 35.183 13C35.017 13.4533 34.9628 13.9401 35.0251 14.4188C35.0874 14.8976 35.2643 15.3542 35.5408 15.75C35.8173 16.1458 36.1853 16.4689 36.6134 16.6921C37.0415 16.9152 37.5172 17.0318 38 17.0318C38.4828 17.0318 38.9585 16.9152 39.3866 16.6921C39.8147 16.4689 40.1827 16.1458 40.4592 15.75C40.7357 15.3542 40.9126 14.8976 40.9749 14.4188C41.0372 13.9401 40.983 13.4533 40.817 13C40.6126 13.5842 40.2318 14.0905 39.7271 14.4488C39.2225 14.8071 38.6189 14.9997 38 15V15Z" fill="#E9B789"/>
<path d="M26 15C25.3811 14.9997 24.7776 14.8071 24.2729 14.4488C23.7682 14.0905 23.3874 13.5842 23.183 13C23.017 13.4533 22.9628 13.9401 23.0251 14.4188C23.0874 14.8976 23.2643 15.3542 23.5408 15.75C23.8173 16.1458 24.1853 16.4689 24.6134 16.6921C25.0415 16.9152 25.5172 17.0318 26 17.0318C26.4828 17.0318 26.9585 16.9152 27.3866 16.6921C27.8147 16.4689 28.1827 16.1458 28.4592 15.75C28.7357 15.3542 28.9126 14.8976 28.9749 14.4188C29.0372 13.9401 28.983 13.4533 28.817 13C28.6126 13.5842 28.2318 14.0905 27.7271 14.4488C27.2224 14.8071 26.6189 14.9997 26 15V15Z" fill="#E9B789"/>
<path d="M47 20C46.134 20 45.4 19.164 45.123 18C45.0428 18.3273 45.0015 18.663 45 19C45 20.66 45.9 22 47 22C48.1 22 49 20.66 49 19C48.9985 18.663 48.9572 18.3273 48.877 18C48.6 19.164 47.866 20 47 20Z" fill="#F2AAB5"/>
<path d="M17 20C16.134 20 15.4 19.164 15.123 18C15.0428 18.3273 15.0015 18.663 15 19C15 20.66 15.9 22 17 22C18.1 22 19 20.66 19 19C18.9985 18.663 18.9572 18.3273 18.877 18C18.6 19.164 17.866 20 17 20Z" fill="#F2AAB5"/>
<path d="M17 22C16.134 22 15.4 21.164 15.123 20C15.0428 20.3273 15.0015 20.663 15 21C15 22.66 15.9 24 17 24C18.1 24 19 22.66 19 21C18.9985 20.663 18.9572 20.3273 18.877 20C18.6 21.164 17.866 22 17 22Z" fill="#E9B789"/>
<path d="M38 38C35.09 38 32.67 36.28 32.12 33.99C32.08 33.99 32.04 34 32 34C31.96 34 31.92 33.99 31.88 33.99C31.33 36.28 28.91 38 26 38C24.8055 38.0547 23.622 37.7505 22.6019 37.1268C21.5818 36.503 20.7717 35.5881 20.276 34.5C20.0938 34.9791 20.0003 35.4874 20 36C20 38.76 22.69 41 26 41C28.91 41 31.33 39.28 31.88 36.99C31.92 36.99 31.96 37 32 37C32.04 37 32.08 36.99 32.12 36.99C32.67 39.28 35.09 41 38 41C41.31 41 44 38.76 44 36C43.9997 35.4874 43.9062 34.9791 43.724 34.5C43.2283 35.5881 42.4182 36.503 41.3981 37.1268C40.378 37.7505 39.1945 38.0547 38 38Z" fill="#E9B789"/>
<path d="M44 61C47 61 52 60 54 60C55.128 60 55.62 60.954 55.834 61.786C55.928 61.5337 55.984 61.2688 56 61C56 61 56 58 54 58C52 58 47 59 44 59C41 59 39 55 39 55V57C39 57 41 61 44 61Z" fill="#1DA7EA"/>
<path d="M44 51C47 51 52 52 54 52C56 52 56 49 56 49C55.984 48.7312 55.928 48.4663 55.834 48.214C55.62 49.046 55.128 50 54 50C52 50 47 49 44 49C41 49 39 53 39 53V55C39 55 41 51 44 51Z" fill="#1DA7EA"/>
<path d="M33 51C32.7358 50.9944 32.4732 51.0423 32.2281 51.1408C31.9829 51.2394 31.7602 51.3865 31.5733 51.5733C31.3865 51.7602 31.2394 51.9829 31.1409 52.2281C31.0423 52.4732 30.9944 52.7358 31 53H28V55H31C30.9944 54.7358 31.0423 54.4732 31.1409 54.2281C31.2394 53.9829 31.3865 53.7602 31.5733 53.5733C31.7602 53.3865 31.9829 53.2394 32.2281 53.1408C32.4732 53.0423 32.7358 52.9944 33 53C33.6291 53.0498 34.235 53.2598 34.7601 53.6098C35.2852 53.9599 35.712 54.4385 36 55V53C35.712 52.4385 35.2852 51.9599 34.7601 51.6098C34.235 51.2598 33.6291 51.0498 33 51Z" fill="#D99C64"/>
<path d="M39 55C39.1824 55.3448 39.3847 55.6787 39.606 56C40.384 54.858 41.869 53.14 43.787 53.017C43.673 52.336 43.557 51.682 43.441 51.047C40.754 51.493 39 55 39 55Z" fill="#D99C64"/>
<path d="M44.834 62.275C43.192 62.119 42 62 42 62L39 59V60L37 62H30L28 60V62L29 63H38L39 62V61L41 63H44.876C44.863 62.753 44.848 62.516 44.834 62.275Z" fill="#D99C64"/>
<path d="M36.3009 29.3105C36.942 28.669 36.7376 27.4256 35.8446 26.5332C34.9515 25.6407 33.7079 25.4373 33.0669 26.0787C32.4259 26.7202 32.6302 27.9637 33.5233 28.8561C34.4163 29.7485 35.6599 29.952 36.3009 29.3105Z" fill="#F6FAFD"/>
<path d="M25.4944 34.5194C25.8164 34.1971 25.7139 33.5725 25.2655 33.1244C24.817 32.6762 24.1923 32.5742 23.8703 32.8965C23.5482 33.2188 23.6507 33.8433 24.0992 34.2915C24.5476 34.7397 25.1723 34.8417 25.4944 34.5194Z" fill="#F6FAFD"/>
<path d="M39 53C39 52.4477 38.5523 52 38 52C37.4477 52 37 52.4477 37 53V57C37 57.5523 37.4477 58 38 58C38.5523 58 39 57.5523 39 57V53Z" fill="#E9EDF5"/>
<path d="M54.4936 49.519C54.8157 49.1968 54.7132 48.5722 54.2647 48.124C53.8163 47.6758 53.1916 47.5738 52.8695 47.8961C52.5475 48.2184 52.6499 48.843 53.0984 49.2911C53.5469 49.7393 54.1715 49.8413 54.4936 49.519Z" fill="#F6FAFD"/>
<path d="M54.4939 61.5184C54.8159 61.1961 54.7135 60.5715 54.265 60.1233C53.8165 59.6752 53.1919 59.5731 52.8698 59.8954C52.5477 60.2177 52.6502 60.8423 53.0987 61.2905C53.5471 61.7386 54.1718 61.8407 54.4939 61.5184Z" fill="#F6FAFD"/>
<path d="M51.833 48.614C51.9942 48.4526 51.9431 48.1402 51.7189 47.9161C51.4947 47.692 51.1822 47.6411 51.0209 47.8025C50.8597 47.9638 50.9108 48.2763 51.135 48.5004C51.3593 48.7244 51.6717 48.7753 51.833 48.614Z" fill="#F6FAFD"/>
<path d="M32 36.09C32.6989 37.0147 33.6071 37.7606 34.6501 38.2665C35.6931 38.7723 36.8411 39.0237 38 39C41.859 39 45 36.309 45 33C45 29.963 42.355 27.447 38.937 27.053C38.7102 25.374 37.8822 23.8343 36.6066 22.7194C35.3309 21.6045 33.6942 20.99 32 20.99C30.3058 20.99 28.6691 21.6045 27.3934 22.7194C26.1178 23.8343 25.2898 25.374 25.063 27.053C21.645 27.447 19 29.963 19 33C19 36.309 22.141 39 26 39C27.1589 39.0237 28.3069 38.7723 29.3499 38.2665C30.3929 37.7606 31.3011 37.0147 32 36.09V36.09ZM30.907 33.757C30.456 35.636 28.393 37 26 37C23.243 37 21 35.206 21 33C21 30.794 23.243 29 26 29C26.2652 29 26.5196 28.8946 26.7071 28.7071C26.8946 28.5196 27 28.2652 27 28C27 26.6739 27.5268 25.4021 28.4645 24.4645C29.4021 23.5268 30.6739 23 32 23C33.3261 23 34.5979 23.5268 35.5355 24.4645C36.4732 25.4021 37 26.6739 37 28C37 28.2652 37.1054 28.5196 37.2929 28.7071C37.4804 28.8946 37.7348 29 38 29C40.757 29 43 30.794 43 33C43 35.206 40.757 37 38 37C35.607 37 33.544 35.636 33.093 33.757C33.0406 33.5384 32.9161 33.3438 32.7396 33.2047C32.5631 33.0655 32.3448 32.9899 32.12 32.99C32.079 32.99 32.039 32.99 31.996 32.997C31.953 33.004 31.905 32.99 31.88 32.99C31.6552 32.9899 31.4369 33.0655 31.2604 33.2047C31.0839 33.3438 30.9594 33.5384 30.907 33.757V33.757Z" fill="black"/>
<path d="M22 12C22 12.7911 22.2346 13.5645 22.6741 14.2223C23.1136 14.8801 23.7384 15.3928 24.4693 15.6955C25.2002 15.9983 26.0044 16.0775 26.7804 15.9231C27.5563 15.7688 28.269 15.3878 28.8284 14.8284C29.3878 14.269 29.7688 13.5563 29.9231 12.7804C30.0775 12.0044 29.9983 11.2002 29.6955 10.4693C29.3928 9.73836 28.8801 9.11365 28.2223 8.67412C27.5645 8.2346 26.7911 8 26 8C24.9391 8 23.9217 8.42143 23.1716 9.17157C22.4214 9.92172 22 10.9391 22 12V12ZM28 12C28 12.3956 27.8827 12.7822 27.6629 13.1111C27.4432 13.44 27.1308 13.6964 26.7654 13.8478C26.3999 13.9991 25.9978 14.0387 25.6098 13.9616C25.2219 13.8844 24.8655 13.6939 24.5858 13.4142C24.3061 13.1345 24.1156 12.7781 24.0384 12.3902C23.9613 12.0022 24.0009 11.6001 24.1522 11.2346C24.3036 10.8692 24.56 10.5568 24.8889 10.3371C25.2178 10.1173 25.6044 10 26 10C26.5304 10 27.0391 10.2107 27.4142 10.5858C27.7893 10.9609 28 11.4696 28 12Z" fill="black"/>
<path d="M17 15C15.317 15 14 16.757 14 19C14 21.243 15.317 23 17 23C18.683 23 20 21.243 20 19C20 16.757 18.683 15 17 15ZM17 21C16.6 21 16 20.2 16 19C16 17.8 16.6 17 17 17C17.4 17 18 17.8 18 19C18 20.2 17.4 21 17 21Z" fill="black"/>
<path d="M50 19C50 16.757 48.683 15 47 15C45.317 15 44 16.757 44 19C44 21.243 45.317 23 47 23C48.683 23 50 21.243 50 19ZM47 21C46.6 21 46 20.2 46 19C46 17.8 46.6 17 47 17C47.4 17 48 17.8 48 19C48 20.2 47.4 21 47 21Z" fill="black"/>
<path d="M38 8C37.2089 8 36.4355 8.2346 35.7777 8.67412C35.1199 9.11365 34.6072 9.73836 34.3045 10.4693C34.0017 11.2002 33.9225 12.0044 34.0769 12.7804C34.2312 13.5563 34.6122 14.269 35.1716 14.8284C35.731 15.3878 36.4437 15.7688 37.2196 15.9231C37.9956 16.0775 38.7998 15.9983 39.5307 15.6955C40.2616 15.3928 40.8864 14.8801 41.3259 14.2223C41.7654 13.5645 42 12.7911 42 12C42 10.9391 41.5786 9.92172 40.8284 9.17157C40.0783 8.42143 39.0609 8 38 8V8ZM38 14C37.6044 14 37.2178 13.8827 36.8889 13.6629C36.56 13.4432 36.3036 13.1308 36.1522 12.7654C36.0009 12.3999 35.9613 11.9978 36.0384 11.6098C36.1156 11.2219 36.3061 10.8655 36.5858 10.5858C36.8655 10.3061 37.2219 10.1156 37.6098 10.0384C37.9978 9.96126 38.3999 10.0009 38.7654 10.1522C39.1308 10.3036 39.4432 10.56 39.6629 10.8889C39.8827 11.2178 40 11.6044 40 12C40 12.5304 39.7893 13.0391 39.4142 13.4142C39.0391 13.7893 38.5304 14 38 14Z" fill="black"/>
<path d="M21.8291 48.665C21.9561 47.989 22.0791 47.332 22.1941 46.687C22.4391 45.317 22.6871 43.839 22.8351 42.296C22.8531 42.109 22.8181 41.9207 22.7341 41.7527C22.6501 41.5847 22.5205 41.4437 22.3601 41.346C20.1719 40.0985 18.3439 38.3058 17.0541 36.1423C15.7644 33.9788 15.0567 31.5182 15.0001 29C15.0077 27.7755 15.1834 26.5578 15.5221 25.381C15.5758 25.1903 15.5717 24.9879 15.5103 24.7996C15.4489 24.6112 15.3329 24.4453 15.1771 24.323C14.4479 23.6482 13.8753 22.8221 13.4992 21.9025C13.1231 20.983 12.9528 19.9923 13.0001 19C12.983 17.7037 13.286 16.4232 13.8821 15.272C14.9711 13.237 16.8951 12.449 18.4981 13.457C18.6567 13.5568 18.8403 13.6099 19.0277 13.6104C19.2152 13.6109 19.399 13.5587 19.5582 13.4598C19.7174 13.3608 19.8456 13.2191 19.9281 13.0508C20.0107 12.8826 20.0443 12.6945 20.0251 12.508C20.0083 12.3392 19.9999 12.1696 20.0001 12C20.0031 10.6895 20.4351 9.41605 21.23 8.37421C22.025 7.33237 23.1392 6.57945 24.4024 6.23049C25.6656 5.88154 27.0082 5.95574 28.2253 6.44176C29.4423 6.92779 30.4668 7.7989 31.1421 8.922C31.2371 9.06204 31.365 9.17668 31.5146 9.25592C31.6641 9.33516 31.8308 9.37658 32.0001 9.37658C32.1693 9.37658 32.336 9.33516 32.4856 9.25592C32.6351 9.17668 32.763 9.06204 32.8581 8.922C33.5334 7.7989 34.5578 6.92779 35.7749 6.44176C36.9919 5.95574 38.3346 5.88154 39.5977 6.23049C40.8609 6.57945 41.9751 7.33237 42.7701 8.37421C43.565 9.41605 43.997 10.6895 44.0001 12C44.0002 12.1696 43.9919 12.3392 43.9751 12.508C43.9559 12.6945 43.9895 12.8826 44.072 13.0508C44.1546 13.2191 44.2828 13.3608 44.442 13.4598C44.6012 13.5587 44.785 13.6109 44.9724 13.6104C45.1598 13.6099 45.3434 13.5568 45.5021 13.457C47.1081 12.45 49.0291 13.237 50.1191 15.274C50.7145 16.4247 51.0171 17.7045 51.0001 19C51.0474 19.9923 50.877 20.983 50.5009 21.9025C50.1249 22.8221 49.5522 23.6482 48.8231 24.323C48.6672 24.4453 48.5512 24.6112 48.4898 24.7996C48.4284 24.9879 48.4243 25.1903 48.4781 25.381C48.8168 26.5578 48.9924 27.7755 49.0001 29C48.9434 31.5182 48.2358 33.9788 46.946 36.1423C45.6562 38.3058 43.8283 40.0985 41.6401 41.346C41.4798 41.4437 41.3503 41.5845 41.2663 41.7523C41.1823 41.9201 41.1472 42.1082 41.1651 42.295C41.2471 43.159 41.3711 44.095 41.5431 45.16L43.5181 44.84C43.3911 44.055 43.2941 43.365 43.2181 42.714C45.5575 41.2601 47.4954 39.2432 48.8548 36.8476C50.2142 34.452 50.9518 31.754 51.0001 29C50.9958 27.8038 50.8491 26.6124 50.5631 25.451C52.1865 23.7013 53.0611 21.386 53.0001 19C53.0108 17.4656 52.6657 15.9496 51.9921 14.571C51.8801 9.534 49.7921 7.383 49.7071 7.293C49.595 7.18128 49.458 7.09774 49.3074 7.04926C49.1568 7.00077 48.9968 6.98873 48.8406 7.01411C48.6844 7.03949 48.5365 7.10157 48.409 7.19525C48.2814 7.28893 48.178 7.41154 48.1071 7.553L46.3491 11.069C46.2171 11.088 46.0851 11.092 45.9491 11.124C45.8079 9.85559 45.3645 8.63958 44.6559 7.57813C43.9473 6.51667 42.9944 5.64076 41.8771 5.024C41.6778 4.03297 41.281 3.09223 40.7103 2.25792C40.1395 1.42361 39.4065 0.712831 38.5551 0.167997C38.3907 0.0583581 38.1976 -0.000152588 38.0001 -0.000152588C37.8025 -0.000152588 37.6094 0.0583581 37.4451 0.167997C36.5933 0.71264 35.86 1.4232 35.2888 2.2573C34.7175 3.09141 34.32 4.032 34.1201 5.023C33.321 5.46126 32.6038 6.03437 32.0001 6.717C31.3958 6.03245 30.6779 5.45734 29.8781 5.017C29.6775 4.02726 29.28 3.08795 28.7091 2.25494C28.1383 1.42192 27.4057 0.712206 26.5551 0.167997C26.3907 0.0583581 26.1976 -0.000152588 26.0001 -0.000152588C25.8025 -0.000152588 25.6094 0.0583581 25.4451 0.167997C24.5921 0.713298 23.8578 1.42501 23.2862 2.26057C22.7145 3.09613 22.3172 4.03839 22.1181 5.031C21.0027 5.64804 20.0513 6.52316 19.3434 7.58319C18.6355 8.64322 18.1917 9.85733 18.0491 11.124C17.9171 11.093 17.7851 11.088 17.6491 11.069L15.9001 7.553C15.8291 7.41154 15.7257 7.28893 15.5982 7.19525C15.4706 7.10157 15.3227 7.03949 15.1665 7.01411C15.0103 6.98873 14.8503 7.00077 14.6997 7.04926C14.5491 7.09774 14.4121 7.18128 14.3001 7.293C14.2101 7.383 12.1301 9.531 12.0151 14.57C11.3392 15.9485 10.9918 17.4648 11.0001 19C10.939 21.386 11.8137 23.7013 13.4371 25.451C13.151 26.6124 13.0043 27.8038 13.0001 29C13.0483 31.7538 13.7856 34.4516 15.1447 36.8472C16.5037 39.2427 18.4411 41.2597 20.7801 42.714C20.6371 43.971 20.4311 45.19 20.2261 46.334C20.1111 46.976 19.9891 47.627 19.8631 48.297C18.8748 53.1293 18.2789 58.0336 18.0811 62.962C18.0759 63.0965 18.098 63.2306 18.146 63.3564C18.194 63.4821 18.2668 63.5969 18.3602 63.6938C18.4535 63.7907 18.5655 63.8678 18.6894 63.9204C18.8133 63.973 18.9465 64.0001 19.0811 64H26.0001V62H20.1251C20.362 57.5189 20.9316 53.0617 21.8291 48.665V48.665ZM49.0921 10.052C49.3453 10.6367 49.5412 11.2445 49.6771 11.867C49.3081 11.615 48.9086 11.411 48.4881 11.26L49.0921 10.052ZM38.0001 2.246C38.627 2.76693 39.1336 3.41752 39.4851 4.153C38.503 3.968 37.4951 3.968 36.5131 4.153C36.865 3.41731 37.3724 2.7667 38.0001 2.246V2.246ZM26.0001 2.246C26.6276 2.76679 27.1343 3.41784 27.4851 4.154C26.503 3.969 25.4951 3.969 24.5131 4.154C24.8649 3.41795 25.3723 2.76699 26.0001 2.246V2.246ZM15.5121 11.259C15.0921 11.4101 14.6929 11.6137 14.3241 11.865C14.4601 11.2433 14.6556 10.6362 14.9081 10.052L15.5121 11.259Z" fill="black"/>
<path d="M54 57C52.595 57.067 51.1949 57.2119 49.806 57.434C47.8833 57.735 45.9447 57.924 44 58C42.316 58 40.83 56.129 40.149 55.006C40.717 54.079 42.189 52 44 52C45.9447 52.076 47.8833 52.2649 49.806 52.566C51.1949 52.7881 52.595 52.933 54 53C56.373 53 57 50.384 57 49C57.0116 48.6029 56.942 48.2076 56.7953 47.8383C56.6486 47.4691 56.4281 47.1337 56.1472 46.8528C55.8662 46.5719 55.5309 46.3513 55.1616 46.2047C54.7924 46.058 54.3971 45.9884 54 46C51.974 46 42.311 46.964 41.9 47.005C41.6705 47.0281 41.4561 47.1299 41.293 47.293L39.5 49.086L37.707 47.293C37.5195 47.1054 37.2652 47.0001 37 47H34V49H36.586L38 50.414V59.586L36.586 61H30.414L29 59.586V58H30.167C30.3487 58.6015 30.7261 59.125 31.2394 59.4874C31.7527 59.8497 32.3724 60.0302 33 60C33.8161 59.951 34.6053 59.6897 35.2894 59.2419C35.9734 58.7941 36.5286 58.1754 36.9 57.447C36.9675 57.3077 37.0017 57.1547 37 57V53C37.0017 52.8453 36.9675 52.6923 36.9 52.553C36.5286 51.8246 35.9734 51.2059 35.2894 50.7581C34.6053 50.3103 33.8161 50.0489 33 50C32.3724 49.9698 31.7527 50.1502 31.2394 50.5126C30.7261 50.875 30.3487 51.3985 30.167 52H29V50.414L30.414 49H32V47H30C29.7348 47.0001 29.4805 47.1054 29.293 47.293L27.293 49.293C27.1054 49.4805 27.0001 49.7348 27 50V53C27 53.2652 27.1054 53.5196 27.2929 53.7071C27.4804 53.8946 27.7348 54 28 54H31C31.2622 53.997 31.513 53.8923 31.6995 53.708C31.8861 53.5237 31.9938 53.2742 32 53.012C31.9854 52.8766 32.0012 52.7396 32.0461 52.611C32.091 52.4825 32.164 52.3655 32.2598 52.2686C32.3555 52.1717 32.4716 52.0973 32.5996 52.0509C32.7276 52.0044 32.8644 51.987 33 52C33.4109 52.0361 33.8072 52.1705 34.1553 52.3919C34.5033 52.6133 34.7931 52.9151 35 53.272V56.728C34.7931 57.0849 34.5033 57.3867 34.1553 57.6081C33.8072 57.8295 33.4109 57.9639 33 58C32.8654 58.0132 32.7296 57.9964 32.6022 57.9508C32.4749 57.9052 32.3593 57.832 32.2636 57.7364C32.168 57.6407 32.0947 57.5251 32.0492 57.3978C32.0036 57.2704 31.9868 57.1346 32 57C32 56.7348 31.8946 56.4804 31.7071 56.2929C31.5196 56.1054 31.2652 56 31 56H28C27.7348 56 27.4804 56.1054 27.2929 56.2929C27.1054 56.4804 27 56.7348 27 57V60C27.0001 60.2652 27.1054 60.5195 27.293 60.707L29.293 62.707C29.4805 62.8945 29.7348 62.9999 30 63H37C37.2652 62.9999 37.5195 62.8945 37.707 62.707L39.5 60.914L41.293 62.707C41.4553 62.872 41.6699 62.9755 41.9 63C42.311 63.036 51.974 64 54 64C54.3971 64.0116 54.7924 63.942 55.1616 63.7953C55.5309 63.6486 55.8662 63.4281 56.1472 63.1472C56.4281 62.8662 56.6486 62.5309 56.7953 62.1616C56.942 61.7924 57.0116 61.3971 57 61C57 59.616 56.373 57 54 57ZM42.454 48.96C44.247 48.783 52.281 48 54 48C54.1346 47.9866 54.2706 48.0033 54.398 48.0488C54.5254 48.0943 54.6411 48.1675 54.7368 48.2632C54.8325 48.3589 54.9057 48.4746 54.9512 48.602C54.9967 48.7294 55.0134 48.8654 55 49C55 49.02 54.944 51 54 51C52.6844 50.9289 51.3733 50.7901 50.072 50.584C48.0613 50.2694 46.0338 50.0744 44 50C43.2373 50.0407 42.4904 50.2336 41.8034 50.5675C41.1164 50.9014 40.5032 51.3694 40 51.944V51.414L42.454 48.96ZM54 62C52.281 62 44.247 61.217 42.454 61.04L40 58.586V58.056C40.5032 58.6306 41.1164 59.0986 41.8034 59.4325C42.4904 59.7664 43.2373 59.9593 44 60C46.0338 59.9256 48.0613 59.7306 50.072 59.416C51.3733 59.2099 52.6844 59.0711 54 59C54.944 59 55 60.983 55 60.988C55.0146 61.1234 54.9988 61.2604 54.9539 61.389C54.909 61.5175 54.836 61.6345 54.7402 61.7314C54.6445 61.8283 54.5284 61.9026 54.4004 61.9491C54.2724 61.9956 54.1356 62.0129 54 62Z" fill="black"/>
</g>
<defs>
<clipPath id="clip0_182_1933">
<rect width="64" height="64" fill="white"/>
</clipPath>
</defs>
</svg>
