<svg width="64" height="64" viewBox="0 0 64 64" fill="none" xmlns="http://www.w3.org/2000/svg">
<g clip-path="url(#clip0_182_2029)">
<path d="M21 24V31C19.9391 31 18.9217 30.5786 18.1716 29.8284C17.4214 29.0783 17 28.0609 17 27V26C17 25.4696 17.2107 24.9609 17.5858 24.5858C17.9609 24.2107 18.4696 24 19 24H21Z" fill="#FFC9BD"/>
<path d="M45 23C45.5304 23 46.0391 23.2107 46.4142 23.5858C46.7893 23.9609 47 24.4696 47 25V26C47 27.0609 46.5786 28.0783 45.8284 28.8284C45.0783 29.5786 44.0609 30 43 30V23H45Z" fill="#FFC9BD"/>
<path d="M49 47.6L45 46.8L36 45V41.25C38.0635 40.4454 39.8358 39.0363 41.0849 37.2073C42.3339 35.3784 43.0014 33.2148 43 31V30C44.0609 30 45.0783 29.5786 45.8284 28.8284C46.5786 28.0783 47 27.0609 47 26V25C47 24.4696 46.7893 23.9609 46.4142 23.5858C46.0391 23.2107 45.5304 23 45 23H43V21C28 21 28 14 28 14C28 21 21 21 21 21V24H19C18.4696 24 17.9609 24.2107 17.5858 24.5858C17.2107 24.9609 17 25.4696 17 26V27C17 28.0609 17.4214 29.0783 18.1716 29.8284C18.9217 30.5786 19.9391 31 21 31C20.9994 33.2146 21.6673 35.3778 22.9162 37.2066C24.1651 39.0354 25.937 40.4447 28 41.25V45L19 46.8L15 47.6L11.01 48.4C11.129 39.594 13.946 28.982 13.999 19.276C13.9955 14.4989 15.8634 9.91054 19.2025 6.49426C22.5416 3.07797 27.0861 1.10565 31.862 0.999995C34.2374 0.981783 36.5929 1.43392 38.7927 2.33035C40.9925 3.22678 42.9931 4.54976 44.6792 6.22303C46.3653 7.8963 47.7036 9.88677 48.6168 12.0797C49.53 14.2726 50.0001 16.6245 50 19C50 28.78 52.87 39.51 52.99 48.4L49 47.6Z" fill="#E9B789"/>
<path d="M49 47.6V63H15V47.6L19 46.8V52H45V46.8L49 47.6Z" fill="#FECFD5"/>
<path d="M11.01 48.4L15 47.6V63H8V49L11.01 48.4Z" fill="#7BAEF5"/>
<path d="M52.99 48.4L56 49V63H49V47.6L52.99 48.4Z" fill="#7BAEF5"/>
<path d="M45 46.8V52H19V46.8L28 45V41.25C30.5729 42.25 33.4271 42.25 36 41.25V45L45 46.8Z" fill="#FFC9BD"/>
<path d="M43 23V31C43 33.9174 41.8411 36.7153 39.7782 38.7782C37.7153 40.8411 34.9174 42 32 42C29.0826 42 26.2847 40.8411 24.2218 38.7782C22.1589 36.7153 21 33.9174 21 31V21C21 21 28 21 28 14C28 14 28 21 43 21V23Z" fill="#FFC9BD"/>
<path d="M45 47V56C45 56.5304 45.2107 57.0391 45.5858 57.4142C45.9609 57.7893 46.4696 58 47 58C47.5304 58 48.0391 57.7893 48.4142 57.4142C48.7893 57.0391 49 56.5304 49 56V47.6L45.02 46.8C45.0096 46.8662 45.003 46.933 45 47V47Z" fill="#F2AAB5"/>
<path d="M17 58C17.5304 58 18.0391 57.7893 18.4142 57.4142C18.7893 57.0391 19 56.5304 19 56V47C18.997 46.933 18.9904 46.8662 18.98 46.8L15 47.6V56C15 56.5304 15.2107 57.0391 15.5858 57.4142C15.9609 57.7893 16.4696 58 17 58Z" fill="#F2AAB5"/>
<path d="M45 23H44C44.5304 23 45.0391 23.2107 45.4142 23.5858C45.7893 23.9609 46 24.4696 46 25V26C45.9986 26.8848 45.7032 27.7441 45.1601 28.4427C44.617 29.1412 43.8572 29.6395 43 29.859V30C44.0609 30 45.0783 29.5786 45.8284 28.8284C46.5786 28.0783 47 27.0609 47 26V25C47 24.4696 46.7893 23.9609 46.4142 23.5858C46.0391 23.2107 45.5304 23 45 23Z" fill="#FDDDD7"/>
<path d="M19 24H20C19.4696 24 18.9609 24.2107 18.5858 24.5858C18.2107 24.9609 18 25.4696 18 26V27C18.0014 27.8848 18.2968 28.7441 18.8399 29.4427C19.383 30.1412 20.1428 30.6395 21 30.859V31C19.9391 31 18.9217 30.5786 18.1716 29.8284C17.4214 29.0783 17 28.0609 17 27V26C17 25.4696 17.2107 24.9609 17.5858 24.5858C17.9609 24.2107 18.4696 24 19 24V24Z" fill="#FDDDD7"/>
<path d="M41 20.951V31C41.0049 33.7454 39.9807 36.393 38.1295 38.4204C36.2783 40.4478 33.7345 41.7079 31 41.952C31.33 41.982 31.663 42 32 42C33.4449 42.0013 34.8759 41.7177 36.2111 41.1654C37.5463 40.613 38.7594 39.8028 39.7811 38.7811C40.8028 37.7594 41.613 36.5463 42.1654 35.2111C42.7177 33.8759 43.0013 32.4449 43 31V21C42.3 21 41.638 20.98 41 20.951Z" fill="#FDDDD7"/>
<path d="M28 14C28.1088 15.5295 27.6635 17.047 26.7454 18.275C25.8273 19.5031 24.4978 20.3596 23 20.688C22.3603 20.8647 21.7029 20.9694 21.04 21H21V31C20.9987 32.4449 21.2823 33.8759 21.8347 35.2111C22.387 36.5463 23.1972 37.7594 24.2189 38.7811C25.2406 39.8028 26.4538 40.613 27.7889 41.1654C29.1241 41.7177 30.5551 42.0013 32 42C32.337 42 32.67 41.982 33 41.952C30.4375 41.7242 28.0371 40.6012 26.22 38.78C25.1971 37.7593 24.3861 36.5466 23.8335 35.2114C23.2809 33.8762 22.9976 32.445 23 31V25.719C22.9982 25.1736 23.1466 24.6382 23.4288 24.1715C23.711 23.7048 24.1162 23.3248 24.6 23.073C25.7015 22.5077 26.6117 21.6299 27.2165 20.5496C27.8213 19.4693 28.0939 18.2345 28 17C28 17 28 24 43 24V21C28 21 28 14 28 14Z" fill="#FFB4A3"/>
<path d="M18.9211 34.512L19.0001 34.55V37.578C18.9749 38.9042 18.4939 40.1813 17.638 41.1945C16.7821 42.2078 15.6034 42.8955 14.3001 43.142L11.2781 43.78C11.1301 45.362 11.0281 46.908 11.0081 48.4L15.0001 47.6L19.0001 46.8L28.0001 45V41.25C25.9371 40.4447 24.1652 39.0354 22.9162 37.2066C21.6673 35.3778 20.9994 33.2146 21.0001 31C19.9392 31 18.9218 30.5786 18.1716 29.8284C17.4215 29.0783 17.0001 28.0609 17.0001 27V31.56C17.0074 32.1836 17.1918 32.7922 17.532 33.3149C17.8721 33.8376 18.3539 34.2528 18.9211 34.512Z" fill="#D99C64"/>
<path d="M49.276 43.369C48.0658 43.0489 46.9932 42.3424 46.2214 41.3568C45.4496 40.3713 45.0207 39.1606 45 37.909V34.55C45.5907 34.2802 46.0924 33.8479 46.4466 33.3035C46.8007 32.7592 46.9927 32.1254 47 31.476V26C47 27.0609 46.5786 28.0783 45.8284 28.8284C45.0783 29.5786 44.0609 30 43 30V31C43.0014 33.2148 42.3339 35.3784 41.0849 37.2073C39.8358 39.0363 38.0635 40.4454 36 41.25V45L45 46.8L49 47.6L52.99 48.4C52.972 47.093 52.89 45.742 52.772 44.365L49.276 43.369Z" fill="#D99C64"/>
<path d="M19 24H21V21C21 21 28 21 28 14C28 14 28 21 43 21V23H45C45.5304 23 46.0391 23.2107 46.4142 23.5858C46.7893 23.9609 47 24.4696 47 25V21.654C46.997 20.6743 46.6355 19.7296 45.9837 18.9982C45.3319 18.2668 44.4349 17.7993 43.462 17.684C29.715 16 28 10 28 10C27.363 13.187 23.068 15.562 20.038 16.865C19.137 17.2494 18.3687 17.89 17.8286 18.7072C17.2885 19.5245 17.0004 20.4824 17 21.462V26C17 25.4696 17.2107 24.9609 17.5858 24.5858C17.9609 24.2107 18.4696 24 19 24V24Z" fill="#D99C64"/>
<path d="M36 41.25C33.4271 42.25 30.5729 42.25 28 41.25V42.828C29.493 44.118 32.51 45 36 45V41.25Z" fill="#FFB4A3"/>
<path d="M42.738 46.348C41.532 49.36 36.363 51 32 51C26.3 51 22.276 49.013 21.26 46.348L19 46.8V52H45V46.8L42.738 46.348Z" fill="#71A2E6"/>
<path d="M12 56C12 57.0609 11.5786 58.0783 10.8284 58.8284C10.0783 59.5786 9.06087 60 8 60V63H15V47.6L12 48.2V56Z" fill="#71A2E6"/>
<path d="M52 56V48.2L49 47.6V63H56V60C54.9391 60 53.9217 59.5786 53.1716 58.8284C52.4214 58.0783 52 57.0609 52 56Z" fill="#71A2E6"/>
<path d="M47 58C46.4696 58 45.9609 57.7893 45.5858 57.4142C45.2107 57.0391 45 56.5304 45 56V58C44.9988 58.217 45.0325 58.4328 45.1 58.639C45.1592 58.7879 45.1815 58.949 45.1651 59.1084C45.1486 59.2678 45.0939 59.4209 45.0055 59.5546C44.9171 59.6882 44.7976 59.7986 44.6574 59.8761C44.5171 59.9537 44.3602 59.9962 44.2 60H19.8C19.6398 59.9962 19.4829 59.9537 19.3426 59.8761C19.2024 59.7986 19.0829 59.6882 18.9945 59.5546C18.9061 59.4209 18.8514 59.2678 18.8349 59.1084C18.8185 58.949 18.8408 58.7879 18.9 58.639C18.9675 58.4328 19.0012 58.217 19 58V56C19 56.5304 18.7893 57.0391 18.4142 57.4142C18.0391 57.7893 17.5304 58 17 58C16.4696 58 15.9609 57.7893 15.5858 57.4142C15.2107 57.0391 15 56.5304 15 56V63H49V56C49 56.5304 48.7893 57.0391 48.4142 57.4142C48.0391 57.7893 47.5304 58 47 58Z" fill="#F2AAB5"/>
<path d="M37 56C36.6342 56.001 36.2758 56.1027 35.9639 56.2939C35.6521 56.4851 35.3988 56.7585 35.232 57.084C35.157 56.961 35.078 56.842 34.993 56.726C35.2984 56.5513 35.5523 56.2991 35.7291 55.9949C35.9059 55.6908 35.9994 55.3453 36 54.9935C36.0006 54.6416 35.9084 54.2958 35.7327 53.991C35.5569 53.6862 35.3039 53.4332 34.9991 53.2574C34.6943 53.0816 34.3486 52.9894 33.9967 52.9899C33.6449 52.9905 33.2994 53.0839 32.9952 53.2607C32.691 53.4374 32.4388 53.6913 32.264 53.9967C32.0893 54.3021 31.9982 54.6482 32 55C32.0018 54.6482 31.9107 54.3021 31.736 53.9967C31.5612 53.6913 31.309 53.4374 31.0048 53.2607C30.7006 53.0839 30.3551 52.9905 30.0033 52.9899C29.6515 52.9894 29.3057 53.0816 29.0009 53.2574C28.6961 53.4332 28.4431 53.6862 28.2674 53.991C28.0916 54.2958 27.9994 54.6416 28 54.9935C28.0007 55.3453 28.0941 55.6908 28.2709 55.9949C28.4477 56.2991 28.7016 56.5513 29.007 56.726C28.922 56.842 28.843 56.961 28.768 57.084C28.585 56.7277 28.2992 56.4345 27.9476 56.2426C27.596 56.0506 27.1949 55.9686 26.7962 56.0072C26.3975 56.0458 26.0195 56.2033 25.7113 56.4592C25.4032 56.7151 25.1789 57.0576 25.0677 57.4425C24.9564 57.8273 24.9633 58.2367 25.0874 58.6175C25.2115 58.9984 25.4472 59.3332 25.7638 59.5786C26.0804 59.824 26.4634 59.9687 26.8632 59.9939C27.2629 60.0191 27.6611 59.9237 28.006 59.72C28.036 61.892 29.81 63 32 63C34.19 63 35.964 61.892 35.994 59.72C36.2592 59.8774 36.5573 59.9713 36.8648 59.9943C37.1723 60.0174 37.481 59.9691 37.7668 59.8531C38.0525 59.7371 38.3075 59.5566 38.512 59.3257C38.7164 59.0948 38.8647 58.8198 38.9452 58.5221C39.0257 58.2244 39.0362 57.9121 38.9761 57.6096C38.9159 57.3072 38.7865 57.0227 38.5982 56.7785C38.4099 56.5343 38.1676 56.337 37.8904 56.2019C37.6131 56.0669 37.3084 55.9978 37 56Z" fill="#AF7A58"/>
<path d="M34 56C34.5523 56 35 55.5523 35 55C35 54.4477 34.5523 54 34 54C33.4477 54 33 54.4477 33 55C33 55.5523 33.4477 56 34 56Z" fill="#FFC9BD"/>
<path d="M30 56C30.5523 56 31 55.5523 31 55C31 54.4477 30.5523 54 30 54C29.4477 54 29 54.4477 29 55C29 55.5523 29.4477 56 30 56Z" fill="#FFC9BD"/>
<path d="M37 59C37.5523 59 38 58.5523 38 58C38 57.4477 37.5523 57 37 57C36.4477 57 36 57.4477 36 58C36 58.5523 36.4477 59 37 59Z" fill="#FFC9BD"/>
<path d="M27 59C27.5523 59 28 58.5523 28 58C28 57.4477 27.5523 57 27 57C26.4477 57 26 57.4477 26 58C26 58.5523 26.4477 59 27 59Z" fill="#FFC9BD"/>
<path d="M35 59.5C35 61.157 33.657 62 32 62C30.343 62 29 61.157 29 59.5C29 57.843 30.343 56 32 56C33.657 56 35 57.843 35 59.5Z" fill="#FFC9BD"/>
<path d="M33 58C33 57.7348 32.8946 57.4804 32.7071 57.2929C32.5196 57.1054 32.2652 57 32 57C31.7348 57 31.4804 57.1054 31.2929 57.2929C31.1054 57.4804 31 57.7348 31 58C30.7348 58 30.4804 58.1054 30.2929 58.2929C30.1054 58.4804 30 58.7348 30 59C30 59.5304 30.2107 60.0391 30.5858 60.4142C30.9609 60.7893 31.4696 61 32 61C32.5304 61 33.0391 60.7893 33.4142 60.4142C33.7893 60.0391 34 59.5304 34 59C34 58.7348 33.8946 58.4804 33.7071 58.2929C33.5196 58.1054 33.2652 58 33 58Z" fill="#FAA592"/>
<path d="M40.3009 8.31104C40.942 7.66958 40.7376 6.42611 39.8446 5.53369C38.9515 4.64126 37.7079 4.43782 37.0669 5.07928C36.4259 5.72074 36.6302 6.96421 37.5233 7.85664C38.4163 8.74906 39.6599 8.95251 40.3009 8.31104Z" fill="#F6FAFD"/>
<path d="M43.4939 9.51854C43.8159 9.19624 43.7135 8.57166 43.265 8.1235C42.8165 7.67533 42.1919 7.57329 41.8698 7.89559C41.5477 8.21788 41.6502 8.84247 42.0987 9.29063C42.5471 9.7388 43.1718 9.84083 43.4939 9.51854Z" fill="#F6FAFD"/>
<path d="M42.833 56.614C42.9942 56.4527 42.9431 56.1402 42.7189 55.9162C42.4947 55.6921 42.1822 55.6412 42.0209 55.8026C41.8597 55.9639 41.9108 56.2764 42.135 56.5004C42.3593 56.7245 42.6717 56.7754 42.833 56.614Z" fill="#F6FAFD"/>
<path d="M1 1V15H5L4 19L12 15H19V1H1Z" fill="#FECFD5"/>
<path d="M45 5V19H49L48 23L56 19H63V5H45Z" fill="#7BAEF5"/>
<path d="M32 1.99999C35.3631 1.99408 38.6516 2.99124 41.445 4.86399L42.558 3.19999C39.442 1.11973 35.7807 0.00666909 32.0341 0.000619881C28.2875 -0.00542932 24.6227 1.09581 21.5 3.16599L22.6 4.83199C25.3846 2.97969 28.6556 1.9942 32 1.99999V1.99999Z" fill="black"/>
<path d="M14.9619 21.036C14.9869 20.354 14.9999 19.674 14.9999 19H12.9999C12.9999 19.65 12.9876 20.3047 12.9629 20.964L14.9619 21.036Z" fill="black"/>
<path d="M19 16C19.2652 16 19.5196 15.8946 19.7071 15.7071C19.8946 15.5196 20 15.2652 20 15V1C20 0.734784 19.8946 0.48043 19.7071 0.292893C19.5196 0.105357 19.2652 0 19 0L1 0C0.734784 0 0.48043 0.105357 0.292893 0.292893C0.105357 0.48043 0 0.734784 0 1L0 15C0 15.2652 0.105357 15.5196 0.292893 15.7071C0.48043 15.8946 0.734784 16 1 16H3.719L3.03 18.758C2.98241 18.9438 2.98927 19.1394 3.04977 19.3215C3.11027 19.5035 3.22186 19.6643 3.37123 19.7847C3.52059 19.9051 3.70143 19.98 3.89218 20.0004C4.08292 20.0208 4.27552 19.986 4.447 19.9L12.236 16H19ZM11.553 14.105L5.5 17.133L5.972 15.242C6.0088 15.0945 6.01147 14.9405 5.97979 14.7917C5.94812 14.643 5.88295 14.5034 5.78923 14.3837C5.69551 14.2639 5.57571 14.1671 5.43895 14.1006C5.30219 14.0342 5.15207 13.9997 5 14H2V2H18V14H12C11.8449 13.9999 11.6918 14.0358 11.553 14.105Z" fill="black"/>
<path d="M63 4H45C44.7348 4 44.4804 4.10536 44.2929 4.29289C44.1054 4.48043 44 4.73478 44 5V19C44 19.2652 44.1054 19.5196 44.2929 19.7071C44.4804 19.8946 44.7348 20 45 20H47.719L47.03 22.758C47.03 22.772 47.03 22.787 47.025 22.801C46.4754 22.2878 45.752 22.0016 45 22H44V21C44 20.7348 43.8946 20.4804 43.7071 20.2929C43.5196 20.1054 43.2652 20 43 20C35.737 20 32.3 18.312 30.7 16.9C29.7755 16.1932 29.1651 15.152 29 14C29 13.7348 28.8946 13.4804 28.7071 13.2929C28.5196 13.1054 28.2652 13 28 13C27.7348 13 27.4804 13.1054 27.2929 13.2929C27.1054 13.4804 27 13.7348 27 14C27 19.8 21.611 20 21 20C20.7348 20 20.4804 20.1054 20.2929 20.2929C20.1054 20.4804 20 20.7348 20 21V23H19C18.2044 23 17.4413 23.3161 16.8787 23.8787C16.3161 24.4413 16 25.2044 16 26V27C16.0027 28.1586 16.4074 29.2803 17.1448 30.1739C17.8823 31.0675 18.907 31.6775 20.044 31.9C20.1945 34.0383 20.9205 36.096 22.145 37.8554C23.3696 39.6147 25.0471 41.0102 27 41.894V44.181L12.048 47.171C12.3005 43.0597 12.7631 38.964 13.434 34.9C14.003 31.013 14.591 26.992 14.855 23.066L12.855 22.932C12.596 26.779 12.014 30.761 11.455 34.61C10.7397 38.9011 10.2653 43.2289 10.034 47.573L7.805 48.019C7.57804 48.0641 7.37375 48.1866 7.22696 48.3655C7.08016 48.5443 6.99995 48.7686 7 49V63C7 63.2652 7.10536 63.5196 7.29289 63.7071C7.48043 63.8946 7.73478 64 8 64H56C56.2652 64 56.5196 63.8946 56.7071 63.7071C56.8946 63.5196 57 63.2652 57 63V60H55V62H50V48.82L55 49.82V58H57V49C57 48.7695 56.9204 48.546 56.7747 48.3674C56.6289 48.1888 56.4259 48.0661 56.2 48.02L53.97 47.574C53.7392 43.2295 53.2652 38.9014 52.55 34.61C52.084 31.422 51.601 28.125 51.304 24.91L49.313 25.094C49.613 28.362 50.101 31.687 50.571 34.9C51.2414 38.9644 51.704 43.0604 51.957 47.172L37 44.181V41.905C39.0944 40.9563 40.8697 39.422 42.1118 37.4871C43.3538 35.5522 44.0096 33.2992 44 31V30.9C45.1286 30.6679 46.1427 30.0538 46.8713 29.1613C47.5999 28.2687 47.9985 27.1522 48 26V25C47.997 24.6469 47.9313 24.2971 47.806 23.967C47.8694 23.9845 47.9344 23.9955 48 24C48.1551 23.9999 48.3081 23.9639 48.447 23.895L56.236 20H63C63.2652 20 63.5196 19.8946 63.7071 19.7071C63.8946 19.5196 64 19.2652 64 19V5C64 4.73478 63.8946 4.48043 63.7071 4.29289C63.5196 4.10536 63.2652 4 63 4V4ZM18 27V26C18 25.7348 18.1054 25.4804 18.2929 25.2929C18.4804 25.1054 18.7348 25 19 25H20V29.816C19.4171 29.6099 18.9121 29.2288 18.5541 28.7247C18.1961 28.2206 18.0026 27.6183 18 27ZM9 49.82L14 48.82V62H9V49.82ZM48 62H16V48.42L18 48.02V52C18 52.2652 18.1054 52.5196 18.2929 52.7071C18.4804 52.8946 18.7348 53 19 53H45C45.2652 53 45.5196 52.8946 45.7071 52.7071C45.8946 52.5196 46 52.2652 46 52V48.02L48 48.42V62ZM44 47.62V51H20V47.62L28.2 45.98C28.4259 45.9339 28.6289 45.8112 28.7747 45.6326C28.9204 45.454 29 45.2305 29 45V42.61C30.9661 43.1307 33.0339 43.1307 35 42.61V45C35 45.2305 35.0796 45.454 35.2253 45.6326C35.3711 45.8112 35.5741 45.9339 35.8 45.98L44 47.62ZM42 31C42.0091 33.0147 41.4057 34.9846 40.2697 36.6486C39.1336 38.3125 37.5187 39.5919 35.639 40.317C33.2986 41.223 30.7044 41.223 28.364 40.317C26.4883 39.5856 24.8772 38.3048 23.7416 36.6424C22.6061 34.9799 21.999 33.0133 22 31V21.935C23.3737 21.8108 24.6896 21.323 25.8123 20.5218C26.935 19.7205 27.824 18.6347 28.388 17.376C30.069 19.476 33.788 21.814 42 21.989V31ZM46 26C45.9974 26.6183 45.8039 27.2206 45.4459 27.7247C45.0879 28.2288 44.5829 28.6099 44 28.816V24H45C45.2652 24 45.5196 24.1054 45.7071 24.2929C45.8946 24.4804 46 24.7348 46 25V26ZM62 18H56C55.8449 17.9999 55.6918 18.0358 55.553 18.105L49.5 21.133L49.972 19.242C50.0088 19.0945 50.0115 18.9405 49.9798 18.7917C49.9481 18.643 49.883 18.5034 49.7892 18.3837C49.6955 18.2639 49.5757 18.1671 49.4389 18.1006C49.3022 18.0342 49.1521 17.9997 49 18H46V6H62V18Z" fill="black"/>
<path d="M10 3C9.20435 3 8.44129 3.31607 7.87868 3.87868C7.31607 4.44129 7 5.20435 7 6H9C9 5.80222 9.05865 5.60888 9.16853 5.44443C9.27841 5.27998 9.43459 5.15181 9.61732 5.07612C9.80004 5.00043 10.0011 4.98063 10.1951 5.01922C10.3891 5.0578 10.5673 5.15304 10.7071 5.29289C10.847 5.43275 10.9422 5.61093 10.9808 5.80491C11.0194 5.99889 10.9996 6.19996 10.9239 6.38268C10.8482 6.56541 10.72 6.72159 10.5556 6.83147C10.3911 6.94135 10.1978 7 10 7C9.73478 7 9.48043 7.10536 9.29289 7.29289C9.10536 7.48043 9 7.73478 9 8V10H11V8.829C11.6676 8.59339 12.2304 8.12926 12.5888 7.51871C12.9472 6.90816 13.0781 6.19052 12.9584 5.49274C12.8387 4.79496 12.4761 4.162 11.9347 3.70581C11.3933 3.24963 10.708 2.99962 10 3Z" fill="black"/>
<path d="M11 11H9V13H11V11Z" fill="black"/>
<path d="M60 7H48V9H60V7Z" fill="black"/>
<path d="M60 11H48V13H60V11Z" fill="black"/>
<path d="M60 15H48V17H60V15Z" fill="black"/>
</g>
<defs>
<clipPath id="clip0_182_2029">
<rect width="64" height="64" fill="white"/>
</clipPath>
</defs>
</svg>
