<svg width="64" height="64" viewBox="0 0 64 64" fill="none" xmlns="http://www.w3.org/2000/svg">
<g clip-path="url(#clip0_182_1978)">
<path d="M12 23C12 40 13 40 17 40C17 40 17 44 20 44H44C47 44 47 40 47 40C51 40 52 40 52 23C51.9902 22.673 51.9466 22.348 51.87 22.03L52 22C52.2642 22.0056 52.5268 21.9577 52.7719 21.8591C53.0171 21.7606 53.2398 21.6135 53.4267 21.4267C53.6135 21.2398 53.7606 21.0171 53.8591 20.7719C53.9577 20.5267 54.0056 20.2642 54 20C54 19.64 54 19.3 53.99 19H54C54 19 57.43 19 57.94 15.99L58 16C58 29 63 52 63 63H1C1 52 6 29 6 16L6.06 15.99C6.57 19 10 19 10 19H10.01C10 19.3 10 19.64 10 20C9.99441 20.2642 10.0423 20.5267 10.1409 20.7719C10.2394 21.0171 10.3865 21.2398 10.5733 21.4267C10.7602 21.6135 10.9829 21.7606 11.2281 21.8591C11.4732 21.9577 11.7358 22.0056 12 22L12.13 22.03C12.0534 22.348 12.0098 22.673 12 23Z" fill="#C98C65"/>
<path d="M12 22C11.7358 22.0056 11.4732 21.9577 11.228 21.8591C10.9828 21.7606 10.7601 21.6135 10.5733 21.4267C10.3864 21.2398 10.2393 21.0171 10.1408 20.7719C10.0423 20.5268 9.99436 20.2642 9.99995 20C9.99995 19.64 9.99995 19.3 10.01 19C10.07 17.6 10.36 16.64 12 15H28C28 15 32 15 32 11C32 15 36 15 36 15H52C53.64 16.64 53.93 17.6 53.99 19C54 19.3 54 19.64 54 20C54.0055 20.2642 53.9576 20.5268 53.8591 20.7719C53.7606 21.0171 53.6135 21.2398 53.4266 21.4267C53.2398 21.6135 53.0171 21.7606 52.7719 21.8591C52.5267 21.9577 52.2641 22.0056 52 22L51.8699 22.03C51.7111 21.1371 51.2284 20.3341 50.5143 19.775C49.8002 19.2159 48.9049 18.9399 48 19C44 19 44 23 44 23C44 22.2044 43.6839 21.4413 43.1213 20.8787C42.5587 20.3161 41.7956 20 41 20C40.2043 20 39.4412 20.3161 38.8786 20.8787C38.316 21.4413 38 22.2044 38 23C38 22.2044 37.6839 21.4413 37.1213 20.8787C36.5587 20.3161 35.7956 20 35 20C34.2043 20 33.4412 20.3161 32.8786 20.8787C32.316 21.4413 32 22.2044 32 23C32 22.2044 31.6839 21.4413 31.1213 20.8787C30.5587 20.3161 29.7956 20 29 20C28.2043 20 27.4412 20.3161 26.8786 20.8787C26.316 21.4413 26 22.2044 26 23C26 22.2044 25.6839 21.4413 25.1213 20.8787C24.5587 20.3161 23.7956 20 23 20C22.2043 20 21.4412 20.3161 20.8786 20.8787C20.316 21.4413 20 22.2044 20 23C20 23 19.9999 19 15.9999 19C15.095 18.9399 14.1997 19.2159 13.4856 19.775C12.7715 20.3341 12.2888 21.1371 12.13 22.03L12 22Z" fill="#E68D79"/>
<path d="M32 1C33.1643 1 34.3127 1.27109 35.3541 1.7918C36.3955 2.3125 37.3014 3.06853 38 4C38 4 35 8 32 8C29 8 26 4 26 4C26.6986 3.06853 27.6045 2.3125 28.6459 1.7918C29.6873 1.27109 30.8357 1 32 1Z" fill="#AF7A58"/>
<path d="M12.0001 15C10.3601 16.64 10.0701 17.6 10.0101 19H10.0001C10.0001 19 6.57008 19 6.06008 15.99C6.01867 15.7321 5.9986 15.4712 6.00008 15.21V6.79C6.01607 6.26528 6.13737 5.74914 6.35678 5.27223C6.57619 4.79532 6.88922 4.36737 7.27728 4.01383C7.66534 3.66029 8.12051 3.38836 8.61573 3.21419C9.11096 3.04003 9.63614 2.96719 10.1601 3C16.5501 3.25 26.0001 4 26.0001 4C26.0001 4 29.0001 8 32.0001 8V11C32.0001 15 28.0001 15 28.0001 15H12.0001Z" fill="#F2CFA9"/>
<path d="M57.94 15.99C57.43 19 54 19 54 19H53.99C53.93 17.6 53.64 16.64 52 15H36C36 15 32 15 32 11V8C35 8 38 4 38 4C38 4 47.45 3.25 53.84 3C54.3639 2.96719 54.8891 3.04003 55.3843 3.21419C55.8796 3.38836 56.3347 3.66029 56.7228 4.01383C57.1109 4.36737 57.4239 4.79532 57.6433 5.27223C57.8627 5.74914 57.984 6.26528 58 6.79V15.21C58.0015 15.4712 57.9814 15.7321 57.94 15.99V15.99Z" fill="#F2CFA9"/>
<path d="M29 40C29.3963 40.0085 29.7902 39.9366 30.158 39.7889C30.5258 39.6411 30.8599 39.4204 31.1401 39.1401C31.4204 38.8599 31.6411 38.5258 31.7889 38.158C31.9366 37.7902 32.0085 37.3963 32 37C32 37.7956 32.3161 38.5587 32.8787 39.1213C33.4413 39.6839 34.2044 40 35 40C35.7956 40 36.5587 39.6839 37.1213 39.1213C37.6839 38.5587 38 37.7956 38 37C38 37.7956 38.3161 38.5587 38.8787 39.1213C39.4413 39.6839 40.2044 40 41 40C41.7956 40 42.5587 39.6839 43.1213 39.1213C43.6839 38.5587 44 37.7956 44 37C43.9915 37.3963 44.0634 37.7902 44.2111 38.158C44.3589 38.5258 44.5796 38.8599 44.8599 39.1401C45.1401 39.4204 45.4742 39.6411 45.842 39.7889C46.2098 39.9366 46.6037 40.0085 47 40C47 40 47 44 44 44H20C17 44 17 40 17 40C17.3963 40.0085 17.7902 39.9366 18.158 39.7889C18.5258 39.6411 18.8599 39.4204 19.1401 39.1401C19.4204 38.8599 19.6411 38.5258 19.7889 38.158C19.9366 37.7902 20.0085 37.3963 20 37C20 37.7956 20.3161 38.5587 20.8787 39.1213C21.4413 39.6839 22.2044 40 23 40C23.7956 40 24.5587 39.6839 25.1213 39.1213C25.6839 38.5587 26 37.7956 26 37C25.9915 37.3963 26.0634 37.7902 26.2111 38.158C26.3589 38.5258 26.5796 38.8599 26.8599 39.1401C27.1401 39.4204 27.4742 39.6411 27.842 39.7889C28.2098 39.9366 28.6037 40.0085 29 40V40Z" fill="#E68D79"/>
<path d="M17 40C13 40 12 40 12 23C12.0566 24.5418 12.4429 26.0536 13.1329 27.4335C13.8229 28.8135 14.8005 30.0296 16 31L20 23C20 27 23 28 23 28L26 23C26 27 29 28 29 28L32 23L35 28C35 28 38 27 38 23L41 28C41 28 44 27 44 23L48 31C49.1995 30.0296 50.1771 28.8135 50.8671 27.4335C51.5571 26.0536 51.9434 24.5418 52 23C52 40 51 40 47 40C47.3963 40.0085 47.7902 39.9366 48.158 39.7889C48.5258 39.6411 48.8599 39.4204 49.1401 39.1401C49.4204 38.8599 49.6411 38.5258 49.7889 38.158C49.9366 37.7902 50.0085 37.3963 50 37C50 33 47 32 47 32L44 37C44 33 41 32 41 32L38 37C38 33 35 32 35 32L32 37L29 32C29 32 26 33 26 37L23 32C23 32 20 33 20 37L17 32C17 32 14 33 14 37C13.9915 37.3963 14.0634 37.7902 14.2111 38.158C14.3589 38.5258 14.5796 38.8599 14.8599 39.1401C15.1401 39.4204 15.4742 39.6411 15.842 39.7889C16.2098 39.9366 16.6037 40.0085 17 40V40Z" fill="#F2AAB5"/>
<path d="M17 32L20 37C20 37.7956 19.6839 38.5587 19.1213 39.1213C18.5587 39.6839 17.7956 40 17 40C16.2044 40 15.4413 39.6839 14.8787 39.1213C14.3161 38.5587 14 37.7956 14 37C14 33 17 32 17 32Z" fill="#F7FAFF"/>
<path d="M23 32L26 37C26 37.7956 25.6839 38.5587 25.1213 39.1213C24.5587 39.6839 23.7956 40 23 40C22.2044 40 21.4413 39.6839 20.8787 39.1213C20.3161 38.5587 20 37.7956 20 37C20 33 23 32 23 32Z" fill="#F7FAFF"/>
<path d="M29 32L32 37C32 37.7956 31.6839 38.5587 31.1213 39.1213C30.5587 39.6839 29.7956 40 29 40C28.2044 40 27.4413 39.6839 26.8787 39.1213C26.3161 38.5587 26 37.7956 26 37C26 33 29 32 29 32Z" fill="#F7FAFF"/>
<path d="M38 37C38 37.7956 37.6839 38.5587 37.1213 39.1213C36.5587 39.6839 35.7956 40 35 40C34.2044 40 33.4413 39.6839 32.8787 39.1213C32.3161 38.5587 32 37.7956 32 37L35 32C35 32 38 33 38 37Z" fill="#F7FAFF"/>
<path d="M41 32C41 32 44 33 44 37C44 37.7956 43.6839 38.5587 43.1213 39.1213C42.5587 39.6839 41.7956 40 41 40C40.2044 40 39.4413 39.6839 38.8787 39.1213C38.3161 38.5587 38 37.7956 38 37L41 32Z" fill="#F7FAFF"/>
<path d="M50 37C50 37.7956 49.6839 38.5587 49.1213 39.1213C48.5587 39.6839 47.7956 40 47 40C46.2044 40 45.4413 39.6839 44.8787 39.1213C44.3161 38.5587 44 37.7956 44 37L47 32C47 32 50 33 50 37Z" fill="#F7FAFF"/>
<path d="M51.87 22.03C51.9466 22.348 51.9902 22.6731 52 23C51.9434 24.5418 51.5571 26.0536 50.8671 27.4335C50.1771 28.8135 49.1995 30.0296 48 31L44 23C44 23 44 19 48 19C48.905 18.9399 49.8003 19.2159 50.5144 19.775C51.2285 20.3341 51.7112 21.1371 51.87 22.03V22.03Z" fill="#F7FAFF"/>
<path d="M40.9999 20C41.3962 19.9915 41.7901 20.0634 42.1579 20.2111C42.5257 20.3589 42.8598 20.5796 43.1401 20.8598C43.4204 21.1401 43.641 21.4742 43.7888 21.842C43.9366 22.2098 44.0084 22.6037 43.9999 23C43.9999 27 40.9999 28 40.9999 28L37.9999 23C37.9915 22.6037 38.0633 22.2098 38.2111 21.842C38.3588 21.4742 38.5795 21.1401 38.8598 20.8598C39.1401 20.5796 39.4742 20.3589 39.842 20.2111C40.2098 20.0634 40.6037 19.9915 40.9999 20V20Z" fill="#F7FAFF"/>
<path d="M34.9999 20C35.3962 19.9915 35.7901 20.0634 36.1579 20.2111C36.5257 20.3589 36.8598 20.5796 37.1401 20.8598C37.4204 21.1401 37.641 21.4742 37.7888 21.842C37.9366 22.2098 38.0084 22.6037 37.9999 23C37.9999 27 34.9999 28 34.9999 28L31.9999 23C31.9915 22.6037 32.0633 22.2098 32.2111 21.842C32.3588 21.4742 32.5795 21.1401 32.8598 20.8598C33.1401 20.5796 33.4742 20.3589 33.842 20.2111C34.2098 20.0634 34.6037 19.9915 34.9999 20V20Z" fill="#F7FAFF"/>
<path d="M32 23L29 28C29 28 26 27 26 23C26 22.2044 26.3161 21.4413 26.8787 20.8787C27.4413 20.3161 28.2044 20 29 20C29.7956 20 30.5587 20.3161 31.1213 20.8787C31.6839 21.4413 32 22.2044 32 23Z" fill="#F7FAFF"/>
<path d="M22.9999 20C23.3962 19.9915 23.7901 20.0634 24.1579 20.2111C24.5257 20.3589 24.8598 20.5796 25.1401 20.8598C25.4204 21.1401 25.641 21.4742 25.7888 21.842C25.9366 22.2098 26.0084 22.6037 25.9999 23L22.9999 28C22.9999 28 19.9999 27 19.9999 23C19.9915 22.6037 20.0633 22.2098 20.2111 21.842C20.3588 21.4742 20.5795 21.1401 20.8598 20.8598C21.1401 20.5796 21.4742 20.3589 21.842 20.2111C22.2098 20.0634 22.6037 19.9915 22.9999 20V20Z" fill="#F7FAFF"/>
<path d="M16 19C20 19 20 23 20 23L16 31C14.8005 30.0296 13.8229 28.8135 13.1329 27.4335C12.4429 26.0536 12.0566 24.5418 12 23C12.0098 22.6731 12.0534 22.348 12.13 22.03C12.2888 21.1371 12.7715 20.3341 13.4856 19.775C14.1997 19.2159 15.095 18.9399 16 19Z" fill="#F7FAFF"/>
<path d="M37.124 5.022C37.669 4.438 38 4 38 4C37.3014 3.06853 36.3955 2.3125 35.3541 1.7918C34.3127 1.27109 33.1643 1 32 1C30.8357 1 29.6873 1.27109 28.6459 1.7918C27.6045 2.3125 26.6986 3.06853 26 4C26 4 26.331 4.438 26.876 5.022C28.2655 3.72199 30.0972 2.99873 32 2.99873C33.9028 2.99873 35.7345 3.72199 37.124 5.022V5.022Z" fill="#DB996E"/>
<path d="M53.99 19C53.93 17.6 53.64 16.64 52 15H36C36 15 32 15 32 11C32 15 28 15 28 15H12C10.36 16.64 10.07 17.6 10.01 19C10 19.3 10 19.64 10 20C9.99901 20.2844 10.0544 20.5662 10.163 20.829C10.4892 19.7283 11.1273 18.7458 12 18H28C28 18 32 18 32 14C32 18 36 18 36 18H52C52.8728 18.7458 53.5108 19.7283 53.837 20.829C53.9456 20.5662 54.001 20.2844 54 20C54 19.64 54 19.3 53.99 19Z" fill="#D47C69"/>
<path d="M10.64 6C15.664 6.176 22.358 6.6 25.886 6.835C25.1991 5.97994 24.569 5.08067 24 4.143C24 4.143 24.058 4.034 24.163 3.859C21.1 3.63 14.824 3.182 10.16 3C9.63607 2.96719 9.11088 3.04003 8.61566 3.21419C8.12043 3.38836 7.66526 3.66029 7.27721 4.01383C6.88915 4.36737 6.57611 4.79532 6.35671 5.27223C6.1373 5.74914 6.01599 6.26528 6 6.79V9.79C6 7.64 8.108 5.92 10.64 6Z" fill="#FFE2C2"/>
<path d="M53.8399 3C49.1759 3.182 42.8959 3.63 39.8399 3.859C39.9399 4.034 40.0029 4.143 40.0029 4.143C39.4339 5.08067 38.8039 5.97994 38.1169 6.835C41.6419 6.6 48.3359 6.176 53.3599 6C55.8919 5.92 57.9999 7.64 57.9999 9.79V6.79C57.9839 6.26528 57.8626 5.74914 57.6432 5.27223C57.4238 4.79532 57.1108 4.36737 56.7227 4.01383C56.3347 3.66029 55.8795 3.38836 55.3843 3.21419C54.8891 3.04003 54.3639 2.96719 53.8399 3V3Z" fill="#FFE2C2"/>
<path d="M26 3.99999C26 3.99999 25.3 3.94399 24.163 3.85899C24.058 4.03399 24 4.14299 24 4.14299C24 4.14299 28 11 32 11V7.99999C29 7.99999 26 3.99999 26 3.99999Z" fill="#E9B789"/>
<path d="M40 4.14299C40 4.14299 39.942 4.03399 39.837 3.85899C38.705 3.94399 38 3.99999 38 3.99999C38 3.99999 35 7.99999 32 7.99999V11C36 11 40 4.14299 40 4.14299Z" fill="#E9B789"/>
<path d="M29 6.882V9C29 13 24.846 13 24.846 13H10.546C9.51281 12.9814 8.50732 13.3347 7.71286 13.9955C6.9184 14.6564 6.38788 15.5807 6.21802 16.6C7.05902 19 10 19 10 19H10.01C10.07 17.6 10.36 16.64 12 15H28C28 15 32 15 32 11V8C30.9112 7.93343 29.8669 7.54424 29 6.882V6.882Z" fill="#E9B789"/>
<path d="M53.451 13H39.151C39.151 13 35 13 35 9V6.882C34.1332 7.54424 33.0888 7.93343 32 8V11C32 15 36 15 36 15H52C53.64 16.64 53.93 17.6 53.99 19H54C54 19 56.941 19 57.779 16.6C57.6091 15.5807 57.0786 14.6564 56.2842 13.9955C55.4897 13.3347 54.4842 12.9814 53.451 13Z" fill="#E9B789"/>
<path d="M20 39C20 39.7956 20.3161 40.5587 20.8787 41.1213C21.4413 41.6839 22.2044 42 23 42C23.7956 42 24.5587 41.6839 25.1213 41.1213C25.6839 40.5587 26 39.7956 26 39C26 39.7956 26.3161 40.5587 26.8787 41.1213C27.4413 41.6839 28.2044 42 29 42C29.7956 42 30.5587 41.6839 31.1213 41.1213C31.6839 40.5587 32 39.7956 32 39C32 39.7956 32.3161 40.5587 32.8787 41.1213C33.4413 41.6839 34.2044 42 35 42C35.7956 42 36.5587 41.6839 37.1213 41.1213C37.6839 40.5587 38 39.7956 38 39C38 39.7956 38.3161 40.5587 38.8787 41.1213C39.4413 41.6839 40.2044 42 41 42C41.7956 42 42.5587 41.6839 43.1213 41.1213C43.6839 40.5587 44 39.7956 44 39C43.9906 39.7346 44.255 40.4465 44.7418 40.9968C45.2285 41.5471 45.9027 41.8966 46.633 41.977C46.8579 41.3412 46.9818 40.6741 47 40C46.6037 40.0085 46.2098 39.9366 45.842 39.7889C45.4742 39.6411 45.1401 39.4204 44.8599 39.1401C44.5796 38.8599 44.3589 38.5258 44.2111 38.158C44.0634 37.7902 43.9915 37.3963 44 37C44 37.7956 43.6839 38.5587 43.1213 39.1213C42.5587 39.6839 41.7956 40 41 40C40.2044 40 39.4413 39.6839 38.8787 39.1213C38.3161 38.5587 38 37.7956 38 37C38 37.7956 37.6839 38.5587 37.1213 39.1213C36.5587 39.6839 35.7956 40 35 40C34.2044 40 33.4413 39.6839 32.8787 39.1213C32.3161 38.5587 32 37.7956 32 37C32 37.7956 31.6839 38.5587 31.1213 39.1213C30.5587 39.6839 29.7956 40 29 40C28.2044 40 27.4413 39.6839 26.8787 39.1213C26.3161 38.5587 26 37.7956 26 37C26 37.7956 25.6839 38.5587 25.1213 39.1213C24.5587 39.6839 23.7956 40 23 40C22.2044 40 21.4413 39.6839 20.8787 39.1213C20.3161 38.5587 20 37.7956 20 37C20.0085 37.3963 19.9366 37.7902 19.7889 38.158C19.6411 38.5258 19.4204 38.8599 19.1401 39.1401C18.8599 39.4204 18.5258 39.6411 18.158 39.7889C17.7902 39.9366 17.3963 40.0085 17 40C17.0182 40.6741 17.1421 41.3412 17.367 41.977C18.0973 41.8966 18.7715 41.5471 19.2582 40.9968C19.745 40.4465 20.0094 39.7346 20 39V39Z" fill="#D47C69"/>
<path d="M51.675 25.414C51.042 27.6043 49.7608 29.5517 48 31L44.772 24.545L44 23C44.0116 23.8171 43.8624 24.6285 43.561 25.388C43.3319 25.9733 42.987 26.5064 42.5469 26.9552C42.1068 27.404 41.5807 27.7594 41 28L39 24.673L38 23C38.0116 23.8171 37.8624 24.6285 37.561 25.388C37.3319 25.9733 36.987 26.5064 36.5469 26.9552C36.1068 27.404 35.5807 27.7594 35 28L33 24.673L32 23L31 24.673L29 28C28.4193 27.7594 27.8932 27.404 27.4531 26.9552C27.013 26.5064 26.6681 25.9733 26.439 25.388C26.1376 24.6285 25.9884 23.8171 26 23L25 24.673L23 28C22.4193 27.7594 21.8932 27.404 21.4531 26.9552C21.013 26.5064 20.6681 25.9733 20.439 25.388C20.1376 24.6285 19.9884 23.8171 20 23L19.228 24.545L16 31C14.2392 29.5517 12.958 27.6043 12.325 25.414C12.1111 24.6271 12.0018 23.8155 12 23C12 24.337 12.007 25.557 12.02 26.692C12.02 27.036 12.029 27.373 12.034 27.699C12.2532 30.0086 13.2315 32.1804 14.816 33.875C15.3247 33.0325 16.0902 32.3753 17 32L17.273 32.455L20 27C20 31 23 32 23 32L26 27C26 31 29 32 29 32L32 27L35 32C35 32 38 31 38 27L41 32C41 32 44 31 44 27L46.727 32.455L47 32C47.9098 32.3753 48.6753 33.0325 49.184 33.875C50.7683 32.1807 51.7466 30.0092 51.966 27.7C51.966 27.374 51.976 27.037 51.98 26.693C51.993 25.558 52 24.338 52 23.001C51.9981 23.8161 51.8889 24.6274 51.675 25.414V25.414Z" fill="#DA9EA8"/>
<path d="M41 55C42.1046 55 43 54.1046 43 53C43 51.8954 42.1046 51 41 51C39.8954 51 39 51.8954 39 53C39 54.1046 39.8954 55 41 55Z" fill="#7DD5F5"/>
<path d="M31 52C32.1046 52 33 51.1046 33 50C33 48.8954 32.1046 48 31 48C29.8954 48 29 48.8954 29 50C29 51.1046 29.8954 52 31 52Z" fill="#7DD5F5"/>
<path d="M41 54C40.5579 53.9983 40.1288 53.8502 39.7798 53.5788C39.4308 53.3075 39.1815 52.9281 39.071 52.5C39.0259 52.6629 39.0021 52.831 39 53C39 53.5304 39.2107 54.0391 39.5858 54.4142C39.9609 54.7893 40.4696 55 41 55C41.5304 55 42.0391 54.7893 42.4142 54.4142C42.7893 54.0391 43 53.5304 43 53C42.9979 52.831 42.9741 52.6629 42.929 52.5C42.8185 52.9281 42.5692 53.3075 42.2202 53.5788C41.8712 53.8502 41.4421 53.9983 41 54Z" fill="#25B1E8"/>
<path d="M31 51C30.5579 50.9983 30.1288 50.8502 29.7798 50.5788C29.4308 50.3075 29.1815 49.9281 29.071 49.5C29.0259 49.6629 29.0021 49.831 29 50C29 50.5304 29.2107 51.0391 29.5858 51.4142C29.9609 51.7893 30.4696 52 31 52C31.5304 52 32.0391 51.7893 32.4142 51.4142C32.7893 51.0391 33 50.5304 33 50C32.9979 49.831 32.9741 49.6629 32.929 49.5C32.8185 49.9281 32.5692 50.3075 32.2202 50.5788C31.8712 50.8502 31.4421 50.9983 31 51Z" fill="#25B1E8"/>
<path d="M22 58H9V53C9.00845 52.6037 8.93664 52.2098 8.78886 51.842C8.64109 51.4742 8.42043 51.1401 8.14015 50.8598C7.85987 50.5796 7.52578 50.3589 7.15798 50.2111C6.79018 50.0634 6.39628 49.9915 6 50H25V58H22Z" fill="#FFC9BD"/>
<path d="M25 58H40V61H27L25 63H6V58H9H22H25Z" fill="#8A8DFF"/>
<path d="M58 58V63H40V61V58H58Z" fill="#F3AFBA"/>
<path d="M18.0001 54.256C15.5711 53.923 13.3291 52.656 10.8861 52.442C10.2391 52.392 9.58875 52.4081 8.94507 52.49C8.97661 52.6583 8.995 52.8288 9.00007 53V54.485C9.62579 54.4087 10.2575 54.3943 10.8861 54.442C13.3291 54.651 15.5711 55.923 18.0001 56.256C20.3321 56.575 22.6631 56.014 25.0001 55.619V53.619C22.6631 54.014 20.3321 54.575 18.0001 54.256Z" fill="#FFB4A3"/>
<path d="M21 50H6C6.71646 49.9586 7.42149 50.1938 7.96952 50.6572C8.51755 51.1205 8.86674 51.7766 8.945 52.49C9.58869 52.4081 10.2391 52.392 10.886 52.442C13.329 52.651 15.571 53.923 18 54.256C20.332 54.575 22.663 54.014 25 53.619V50H21Z" fill="#7DD5F5"/>
<path d="M37 58C37 58.5304 36.7893 59.0391 36.4142 59.4142C36.0391 59.7893 35.5304 60 35 60H26L24 62H6V63H25L27 61H40V58H37Z" fill="#696CD1"/>
<path d="M43 58V59C43 59.5304 43.2107 60.0391 43.5858 60.4142C43.9609 60.7893 44.4696 61 45 61H53C53.5304 61 54.0391 60.7893 54.4142 60.4142C54.7893 60.0391 55 59.5304 55 59V58H58V63H40V58H43Z" fill="#DA9EA8"/>
<path d="M18.5 58H8.5C7.67157 58 7 58.6716 7 59.5C7 60.3284 7.67157 61 8.5 61H18.5C19.3284 61 20 60.3284 20 59.5C20 58.6716 19.3284 58 18.5 58Z" fill="#A3A6FF"/>
<path d="M23.5 58H22.5C21.6716 58 21 58.6716 21 59.5C21 60.3284 21.6716 61 22.5 61H23.5C24.3284 61 25 60.3284 25 59.5C25 58.6716 24.3284 58 23.5 58Z" fill="#A3A6FF"/>
<path d="M54.3017 10.3108C54.9427 9.66935 54.7384 8.42588 53.8453 7.53346C52.9523 6.64103 51.7087 6.43759 51.0676 7.07905C50.4266 7.72052 50.6309 8.96398 51.524 9.85641C52.417 10.7488 53.6606 10.9523 54.3017 10.3108Z" fill="#F6FAFD"/>
<path d="M48.4939 8.51892C48.8159 8.19663 48.7135 7.57204 48.265 7.12388C47.8165 6.67571 47.1919 6.57368 46.8698 6.89597C46.5477 7.21827 46.6502 7.84285 47.0987 8.29101C47.5471 8.73918 48.1718 8.84122 48.4939 8.51892Z" fill="#F6FAFD"/>
<path d="M34.8327 4.61414C34.994 4.4528 34.9429 4.14035 34.7186 3.91627C34.4944 3.69218 34.1819 3.64132 34.0207 3.80267C33.8595 3.96401 33.9105 4.27646 34.1348 4.50054C34.359 4.72462 34.6715 4.77549 34.8327 4.61414Z" fill="#F6FAFD"/>
<path d="M61.646 41.2C60.345 32.106 59 22.7 59 16H58.943C58.98 15.7383 58.999 15.4743 59 15.21V6.79C58.9993 6.15894 58.8704 5.5346 58.6209 4.95493C58.3715 4.37525 58.0068 3.85235 57.549 3.418C57.0499 2.94413 56.4612 2.57463 55.8174 2.33114C55.1737 2.08765 54.4878 1.97507 53.8 2C48.32 2.215 40.525 2.8 38.452 2.961C37.6531 2.03175 36.6629 1.28601 35.5492 0.774774C34.4355 0.263539 33.2245 -0.00112915 31.999 -0.00112915C30.7735 -0.00112915 29.5625 0.263539 28.4488 0.774774C27.3351 1.28601 26.3449 2.03175 25.546 2.961C23.474 2.8 15.678 2.216 10.2 2C9.5116 1.96974 8.82424 2.07984 8.17974 2.32362C7.53523 2.56739 6.94706 2.93973 6.451 3.418C5.99321 3.85235 5.62851 4.37525 5.37907 4.95493C5.12963 5.5346 5.00066 6.15894 5 6.79V15.21C5.00098 15.4743 5.02002 15.7383 5.057 16H5C5 22.7 3.655 32.106 2.354 41.2C1.143 49.665 0 57.658 0 63H2C2 57.8 3.133 49.876 4.333 41.485C5.458 33.621 6.614 25.531 6.919 19.069C7.54919 19.4842 8.25719 19.7669 9 19.9V20C8.97013 20.6285 9.15138 21.2489 9.51491 21.7625C9.87843 22.2761 10.4033 22.6532 11.006 22.834C11.006 22.92 11 22.984 11 23C11 38.607 11.8 40.769 16.078 40.98C16.347 42.736 17.368 45 20 45H44C46.633 45 47.651 42.737 47.92 40.98C52.2 40.769 53 38.609 53 23C53 22.984 53 22.92 52.994 22.834C53.5967 22.6532 54.1216 22.2761 54.4851 21.7625C54.8486 21.2489 55.0299 20.6285 55 20C55 19.964 55 19.936 55 19.9C55.7431 19.7661 56.4513 19.4831 57.082 19.068C57.382 25.53 58.543 33.62 59.668 41.484C60.867 49.876 62 57.8 62 63H64C64 57.658 62.857 49.665 61.646 41.2ZM32 2C32.8781 1.99749 33.7475 2.17348 34.5554 2.51729C35.3634 2.8611 36.093 3.36555 36.7 4C35.662 5.181 33.7 7 32 7C30.3 7 28.334 5.186 27.3 4C27.9078 3.36652 28.6375 2.86272 29.4453 2.51899C30.2531 2.17525 31.1221 1.9987 32 2V2ZM7 15.21V6.79C7.00162 6.42753 7.07692 6.06917 7.22132 5.73671C7.36573 5.40424 7.57621 5.1046 7.84 4.856C8.45772 4.28106 9.27754 3.97341 10.121 4C15.647 4.216 23.567 4.815 25.487 4.964C26.278 5.931 28.469 8.338 31 8.882V11C31.0213 11.3996 30.9583 11.7992 30.8151 12.1728C30.6719 12.5465 30.4517 12.8858 30.1687 13.1687C29.8858 13.4517 29.5465 13.6719 29.1728 13.8151C28.7992 13.9583 28.3996 14.0213 28 14H12C11.7348 14.0001 11.4805 14.1054 11.293 14.293C10.2007 15.2272 9.44066 16.4903 9.127 17.893C8.50317 17.7886 7.94029 17.4563 7.54735 16.9607C7.15441 16.465 6.95937 15.8412 7 15.21V15.21ZM19.613 26.01C20.2155 27.3516 21.3171 28.4055 22.684 28.948C22.8996 29.0199 23.1333 29.0161 23.3465 28.9374C23.5597 28.8587 23.7398 28.7097 23.857 28.515L25.507 25.765C25.7915 26.4842 26.2201 27.1376 26.7664 27.6849C27.3128 28.2323 27.9654 28.6622 28.684 28.948C28.8996 29.0199 29.1333 29.0161 29.3465 28.9374C29.5597 28.8587 29.7398 28.7097 29.857 28.515L32 24.944L34.143 28.515C34.2602 28.7097 34.4403 28.8587 34.6535 28.9374C34.8667 29.0161 35.1004 29.0199 35.316 28.948C36.0346 28.6622 36.6872 28.2323 37.2336 27.6849C37.7799 27.1376 38.2085 26.4842 38.493 25.765L40.143 28.515C40.2602 28.7097 40.4403 28.8587 40.6535 28.9374C40.8667 29.0161 41.1004 29.0199 41.316 28.948C42.6829 28.4055 43.7845 27.3516 44.387 26.01L46.887 31.017C46.7348 31.0322 46.5882 31.0823 46.4587 31.1635C46.3291 31.2447 46.22 31.3547 46.14 31.485L44.49 34.235C44.2055 33.5158 43.7769 32.8624 43.2306 32.3151C42.6842 31.7677 42.0316 31.3378 41.313 31.052C41.0974 30.9801 40.8637 30.9839 40.6505 31.0626C40.4373 31.1413 40.2572 31.2903 40.14 31.485L38.49 34.235C38.2055 33.5158 37.7769 32.8624 37.2306 32.3151C36.6842 31.7677 36.0316 31.3378 35.313 31.052C35.0974 30.9801 34.8637 30.9839 34.6505 31.0626C34.4373 31.1413 34.2572 31.2903 34.14 31.485L32 35.056L29.857 31.485C29.7398 31.2903 29.5597 31.1413 29.3465 31.0626C29.1333 30.9839 28.8996 30.9801 28.684 31.052C27.9654 31.3378 27.3128 31.7677 26.7664 32.3151C26.2201 32.8624 25.7915 33.5158 25.507 34.235L23.857 31.485C23.7398 31.2903 23.5597 31.1413 23.3465 31.0626C23.1333 30.9839 22.8996 30.9801 22.684 31.052C21.9654 31.3378 21.3128 31.7677 20.7664 32.3151C20.2201 32.8624 19.7915 33.5158 19.507 34.235L17.857 31.485C17.777 31.3546 17.668 31.2446 17.5384 31.1634C17.4088 31.0822 17.2622 31.0321 17.11 31.017L19.613 26.01ZM21 23C20.9827 22.7329 21.0225 22.4651 21.1169 22.2146C21.2112 21.9641 21.358 21.7366 21.5473 21.5473C21.7366 21.358 21.9641 21.2112 22.2146 21.1169C22.4651 21.0225 22.7329 20.9827 23 21C23.2463 20.9791 23.4942 21.0084 23.7289 21.0859C23.9635 21.1635 24.18 21.2878 24.3654 21.4514C24.5507 21.6149 24.7009 21.8143 24.8071 22.0375C24.9132 22.2607 24.9731 22.503 24.983 22.75L22.634 26.667C22.0839 26.2348 21.6475 25.6749 21.3628 25.0359C21.078 24.3969 20.9535 23.698 21 23V23ZM27 23C26.9827 22.7329 27.0225 22.4651 27.1169 22.2146C27.2112 21.9641 27.358 21.7366 27.5473 21.5473C27.7366 21.358 27.9641 21.2112 28.2146 21.1169C28.4651 21.0225 28.7329 20.9827 29 21C29.2463 20.9791 29.4942 21.0084 29.7289 21.0859C29.9635 21.1635 30.18 21.2878 30.3654 21.4514C30.5507 21.6149 30.7009 21.8143 30.8071 22.0375C30.9132 22.2607 30.9731 22.503 30.983 22.75L28.634 26.667C28.0839 26.2348 27.6475 25.6749 27.3628 25.0359C27.078 24.3969 26.9535 23.698 27 23V23ZM33.015 22.747C33.0253 22.5001 33.0855 22.2579 33.1919 22.0349C33.2984 21.8119 33.4489 21.6128 33.6344 21.4495C33.8199 21.2863 34.0365 21.1623 34.2712 21.085C34.5059 21.0078 34.7538 20.9789 35 21C35.2671 20.983 35.5347 21.0231 35.785 21.1175C36.0354 21.212 36.2628 21.3588 36.452 21.548C36.6412 21.7372 36.788 21.9646 36.8825 22.2149C36.9769 22.4653 37.017 22.7329 37 23C37.0452 23.697 36.92 24.3945 36.6351 25.0322C36.3502 25.6699 35.9143 26.2286 35.365 26.66L33.015 22.747ZM39.015 22.747C39.0253 22.5001 39.0855 22.2579 39.1919 22.0349C39.2984 21.8119 39.4489 21.6128 39.6344 21.4495C39.8199 21.2863 40.0365 21.1623 40.2712 21.085C40.5059 21.0078 40.7538 20.9789 41 21C41.2671 20.983 41.5347 21.0231 41.785 21.1175C42.0354 21.212 42.2628 21.3588 42.452 21.548C42.6412 21.7372 42.788 21.9646 42.8825 22.2149C42.9769 22.4653 43.017 22.7329 43 23C43.0452 23.697 42.92 24.3945 42.6351 25.0322C42.3502 25.6699 41.9143 26.2286 41.365 26.66L39.015 22.747ZM51 23C50.9326 25.3825 49.9683 27.6518 48.3 29.354L45.01 22.784C45.0113 22.4011 45.0911 22.0225 45.2445 21.6717C45.398 21.3209 45.6217 21.0052 45.9019 20.7443C46.1822 20.4834 46.5129 20.2827 46.8738 20.1547C47.2347 20.0267 47.618 19.974 48 20C48.679 19.9407 49.3553 20.1404 49.8932 20.559C50.4311 20.9776 50.7908 21.5842 50.9 22.257C50.9572 22.5009 50.9907 22.7497 51 23ZM47 39C46.7537 39.0209 46.5056 38.9916 46.2709 38.914C46.0362 38.8363 45.8196 38.7119 45.6343 38.5483C45.449 38.3846 45.2987 38.1851 45.1926 37.9618C45.0865 37.7385 45.0268 37.496 45.017 37.249L47.366 33.333C47.9161 33.7652 48.3525 34.3251 48.6372 34.9641C48.922 35.6031 49.0465 36.302 49 37C49.0173 37.2671 48.9775 37.5349 48.8831 37.7854C48.7888 38.0359 48.642 38.2634 48.4527 38.4527C48.2634 38.642 48.0359 38.7888 47.7854 38.8831C47.5349 38.9775 47.2671 39.0173 47 39V39ZM43 37C43.0173 37.2671 42.9775 37.5349 42.8831 37.7854C42.7888 38.0359 42.642 38.2634 42.4527 38.4527C42.2634 38.642 42.0359 38.7888 41.7854 38.8831C41.5349 38.9775 41.2671 39.0173 41 39C40.7537 39.0209 40.5058 38.9916 40.2711 38.9141C40.0365 38.8365 39.82 38.7122 39.6346 38.5486C39.4493 38.3851 39.2991 38.1857 39.1929 37.9625C39.0868 37.7393 39.0269 37.497 39.017 37.25L41.366 33.333C41.9161 33.7652 42.3525 34.3251 42.6372 34.9641C42.922 35.6031 43.0465 36.302 43 37V37ZM37 37C37.0173 37.2671 36.9775 37.5349 36.8831 37.7854C36.7888 38.0359 36.642 38.2634 36.4527 38.4527C36.2634 38.642 36.0359 38.7888 35.7854 38.8831C35.5349 38.9775 35.2671 39.0173 35 39C34.7537 39.0209 34.5058 38.9916 34.2711 38.9141C34.0365 38.8365 33.82 38.7122 33.6346 38.5486C33.4493 38.3851 33.2991 38.1857 33.1929 37.9625C33.0868 37.7393 33.0269 37.497 33.017 37.25L35.366 33.333C35.9161 33.7652 36.3525 34.3251 36.6372 34.9641C36.922 35.6031 37.0465 36.302 37 37V37ZM30.985 37.253C30.9747 37.4999 30.9145 37.7421 30.8081 37.9651C30.7016 38.1881 30.5511 38.3872 30.3656 38.5504C30.1801 38.7137 29.9635 38.8377 29.7288 38.915C29.4941 38.9922 29.2462 39.0211 29 39C28.7325 39.0171 28.4644 38.9769 28.2137 38.8821C27.9629 38.7873 27.7353 38.6401 27.546 38.4504C27.3567 38.2606 27.2101 38.0326 27.1159 37.7816C27.0218 37.5306 26.9822 37.2625 27 36.995C26.9548 36.298 27.08 35.6005 27.3649 34.9628C27.6498 34.3251 28.0857 33.7664 28.635 33.335L30.985 37.253ZM24.985 37.253C24.9747 37.4999 24.9145 37.7421 24.8081 37.9651C24.7016 38.1881 24.5511 38.3872 24.3656 38.5504C24.1801 38.7137 23.9635 38.8377 23.7288 38.915C23.4941 38.9922 23.2462 39.0211 23 39C22.7325 39.0171 22.4644 38.9769 22.2137 38.8821C21.9629 38.7873 21.7353 38.6401 21.546 38.4504C21.3567 38.2606 21.2101 38.0326 21.1159 37.7816C21.0218 37.5306 20.9822 37.2625 21 36.995C20.9548 36.298 21.08 35.6005 21.3649 34.9628C21.6498 34.3251 22.0857 33.7664 22.635 33.335L24.985 37.253ZM17 39C16.7329 39.0173 16.4651 38.9775 16.2146 38.8831C15.9641 38.7888 15.7366 38.642 15.5473 38.4527C15.358 38.2634 15.2112 38.0359 15.1169 37.7854C15.0225 37.5349 14.9827 37.2671 15 37C14.954 36.3022 15.0788 35.6037 15.3637 34.9651C15.6486 34.3264 16.085 33.7669 16.635 33.335L18.985 37.253C18.9747 37.4999 18.9145 37.7421 18.8081 37.9651C18.7016 38.1881 18.5511 38.3872 18.3656 38.5504C18.1801 38.7137 17.9635 38.8377 17.7288 38.915C17.4941 38.9922 17.2462 39.0211 17 39V39ZM15.7 29.358C14.0308 27.6548 13.0664 25.3839 13 23V23C13.0092 22.75 13.0427 22.5015 13.1 22.258C13.209 21.585 13.5686 20.9782 14.1065 20.5594C14.6444 20.1406 15.3208 19.9407 16 20C16.382 19.974 16.7653 20.0267 17.1262 20.1547C17.4871 20.2827 17.8178 20.4834 18.0981 20.7443C18.3783 21.0052 18.602 21.3209 18.7555 21.6717C18.9089 22.0225 18.9887 22.4011 18.99 22.784L15.7 29.358ZM15.375 31.783C14.4243 32.5031 13.7192 33.4991 13.356 34.635C13.208 33.3 13.112 31.559 13.056 29.281C13.7065 30.2216 14.4884 31.0642 15.378 31.783H15.375ZM44 43H20C18.711 43 18.255 41.754 18.092 40.867C18.836 40.6939 19.5048 40.2866 20 39.705C20.3707 40.1323 20.8329 40.4705 21.3523 40.6947C21.8716 40.9189 22.4348 41.0232 23 41C23.5656 41.0226 24.129 40.9175 24.6484 40.6924C25.1678 40.4674 25.6298 40.1282 26 39.7C26.3702 40.1282 26.8322 40.4674 27.3516 40.6924C27.871 40.9175 28.4344 41.0226 29 41C29.5656 41.0226 30.129 40.9175 30.6484 40.6924C31.1678 40.4674 31.6298 40.1282 32 39.7C32.3854 40.109 32.8503 40.4348 33.3662 40.6576C33.8821 40.8803 34.4381 40.9952 35 40.9952C35.5619 40.9952 36.1179 40.8803 36.6338 40.6576C37.1497 40.4348 37.6146 40.109 38 39.7C38.3854 40.109 38.8503 40.4348 39.3662 40.6576C39.8821 40.8803 40.4381 40.9952 41 40.9952C41.5619 40.9952 42.1179 40.8803 42.6338 40.6576C43.1497 40.4348 43.6146 40.109 44 39.7C44.4952 40.2816 45.164 40.6889 45.908 40.862C45.745 41.755 45.289 43 44 43ZM50.641 34.635C50.2778 33.4991 49.5727 32.5031 48.622 31.783C49.51 31.0645 50.2906 30.2227 50.94 29.283C50.885 31.559 50.789 33.3 50.641 34.635ZM54.873 17.889C54.5599 16.4861 53.7998 15.2228 52.707 14.289C52.5189 14.1029 52.2646 13.999 52 14H40V16H51.578C52.0191 16.3728 52.374 16.8371 52.6179 17.3606C52.8619 17.8841 52.9892 18.4544 52.991 19.032C53 19.322 53 19.651 53 20C53.0189 20.175 52.9852 20.3517 52.903 20.5074C52.8209 20.6631 52.6941 20.7908 52.539 20.874C52.1772 19.981 51.545 19.2237 50.7309 18.7083C49.9169 18.1928 48.9619 17.9452 48 18C47.1792 17.9505 46.3602 18.1217 45.628 18.4957C44.8957 18.8697 44.277 19.433 43.836 20.127C43.4415 19.755 42.9776 19.4643 42.4708 19.2717C41.964 19.079 41.4241 18.9881 40.8822 19.0042C40.3402 19.0203 39.8067 19.143 39.3121 19.3653C38.8176 19.5877 38.3717 19.9053 38 20.3C37.6146 19.891 37.1497 19.5652 36.6338 19.3424C36.1179 19.1197 35.5619 19.0048 35 19.0048C34.4381 19.0048 33.8821 19.1197 33.3662 19.3424C32.8503 19.5652 32.3854 19.891 32 20.3C31.6298 19.8718 31.1678 19.5326 30.6484 19.3076C30.129 19.0825 29.5656 18.9774 29 19C28.4344 18.9774 27.871 19.0825 27.3516 19.3076C26.8322 19.5326 26.3702 19.8718 26 20.3C25.6298 19.8718 25.1678 19.5326 24.6484 19.3076C24.129 19.0825 23.5656 18.9774 23 19C22.475 18.981 21.9517 19.0713 21.4635 19.2654C20.9753 19.4594 20.5328 19.7528 20.164 20.127C19.723 19.433 19.1043 18.8697 18.372 18.4957C17.6398 18.1217 16.8208 17.9505 16 18C15.038 17.9454 14.083 18.1933 13.269 18.7089C12.455 19.2245 11.8227 19.9819 11.461 20.875C11.3058 20.7916 11.179 20.6638 11.0969 20.5079C11.0147 20.352 10.981 20.1752 11 20C11 19.651 11 19.322 11.009 19.043C11.0096 18.4636 11.1363 17.8913 11.3803 17.3659C11.6243 16.8404 11.9798 16.3743 12.422 16H28C28.7602 15.9997 29.5114 15.8348 30.2019 15.5167C30.8924 15.1985 31.5058 14.7347 32 14.157C32.4942 14.7347 33.1076 15.1985 33.7981 15.5167C34.4886 15.8348 35.2398 15.9997 36 16H38V14H36.005C35.6051 14.0219 35.205 13.9593 34.8308 13.8164C34.4566 13.6734 34.1168 13.4533 33.8333 13.1703C33.5498 12.8873 33.3291 12.5478 33.1856 12.1739C33.042 11.8 32.9788 11.4 33 11V8.881C35.531 8.337 37.722 5.93 38.513 4.963C40.433 4.814 48.353 4.215 53.875 3.999C54.2937 3.98251 54.7116 4.04982 55.104 4.19699C55.4963 4.34415 55.8554 4.5682 56.16 4.856C56.4238 5.1046 56.6343 5.40424 56.7787 5.73671C56.9231 6.06917 56.9984 6.42753 57 6.79V15.21C57.0398 15.8406 56.8444 16.4636 56.4515 16.9584C56.0586 17.4532 55.4962 17.7848 54.873 17.889Z" fill="black"/>
<path d="M58 57H26V50C26 49.7348 25.8946 49.4804 25.7071 49.2929C25.5196 49.1054 25.2652 49 25 49H6C5.73478 49 5.48043 49.1054 5.29289 49.2929C5.10536 49.4804 5 49.7348 5 50C5 50.2652 5.10536 50.5196 5.29289 50.7071C5.48043 50.8946 5.73478 51 6 51C6.26714 50.9827 6.53491 51.0225 6.78542 51.1169C7.03594 51.2112 7.26344 51.358 7.45273 51.5473C7.64202 51.7366 7.78876 51.9641 7.88313 52.2146C7.9775 52.4651 8.01735 52.7329 8 53V57H6C5.73478 57 5.48043 57.1054 5.29289 57.2929C5.10536 57.4804 5 57.7348 5 58V63C5 63.2652 5.10536 63.5196 5.29289 63.7071C5.48043 63.8946 5.73478 64 6 64H25C25.2652 63.9999 25.5195 63.8946 25.707 63.707L27.414 62H37V60H27C26.7348 60.0001 26.4805 60.1054 26.293 60.293L24.586 62H7V59H39V63C39 63.2652 39.1054 63.5196 39.2929 63.7071C39.4804 63.8946 39.7348 64 40 64H58C58.2652 64 58.5196 63.8946 58.7071 63.7071C58.8946 63.5196 59 63.2652 59 63V58C59 57.7348 58.8946 57.4804 58.7071 57.2929C58.5196 57.1054 58.2652 57 58 57ZM10 57V53C9.99325 52.3025 9.81976 51.6168 9.494 51H12V56H14V51H16V56H18V51H20V56H22V51H24V57H10ZM57 62H41V59H57V62Z" fill="black"/>
<path d="M34 50C34 49.4067 33.8241 48.8266 33.4944 48.3333C33.1648 47.8399 32.6962 47.4554 32.148 47.2284C31.5999 47.0013 30.9967 46.9419 30.4147 47.0576C29.8328 47.1734 29.2982 47.4591 28.8787 47.8787C28.4591 48.2982 28.1734 48.8328 28.0576 49.4147C27.9419 49.9967 28.0013 50.5999 28.2284 51.148C28.4554 51.6962 28.8399 52.1648 29.3333 52.4944C29.8266 52.8241 30.4067 53 31 53C31.7957 53 32.5587 52.6839 33.1213 52.1213C33.6839 51.5587 34 50.7957 34 50V50ZM30 50C30 49.8022 30.0586 49.6089 30.1685 49.4444C30.2784 49.28 30.4346 49.1518 30.6173 49.0761C30.8 49.0004 31.0011 48.9806 31.1951 49.0192C31.3891 49.0578 31.5673 49.153 31.7071 49.2929C31.847 49.4327 31.9422 49.6109 31.9808 49.8049C32.0194 49.9989 31.9996 50.2 31.9239 50.3827C31.8482 50.5654 31.72 50.7216 31.5556 50.8315C31.3911 50.9414 31.1978 51 31 51C30.7348 51 30.4804 50.8946 30.2929 50.7071C30.1054 50.5196 30 50.2652 30 50Z" fill="black"/>
<path d="M44 53C44 52.4067 43.8241 51.8266 43.4944 51.3333C43.1648 50.8399 42.6962 50.4554 42.148 50.2284C41.5999 50.0013 40.9967 49.9419 40.4147 50.0576C39.8328 50.1734 39.2982 50.4591 38.8787 50.8787C38.4591 51.2982 38.1734 51.8328 38.0576 52.4147C37.9419 52.9967 38.0013 53.5999 38.2284 54.148C38.4554 54.6962 38.8399 55.1648 39.3333 55.4944C39.8266 55.8241 40.4067 56 41 56C41.7957 56 42.5587 55.6839 43.1213 55.1213C43.6839 54.5587 44 53.7957 44 53V53ZM40 53C40 52.8022 40.0586 52.6089 40.1685 52.4444C40.2784 52.28 40.4346 52.1518 40.6173 52.0761C40.8 52.0004 41.0011 51.9806 41.1951 52.0192C41.3891 52.0578 41.5673 52.153 41.7071 52.2929C41.847 52.4327 41.9422 52.6109 41.9808 52.8049C42.0194 52.9989 41.9996 53.2 41.9239 53.3827C41.8482 53.5654 41.72 53.7216 41.5556 53.8315C41.3911 53.9414 41.1978 54 41 54C40.7348 54 40.4804 53.8946 40.2929 53.7071C40.1054 53.5196 40 53.2652 40 53Z" fill="black"/>
</g>
<defs>
<clipPath id="clip0_182_1978">
<rect width="64" height="64" fill="white"/>
</clipPath>
</defs>
</svg>
