<svg width="64" height="64" viewBox="0 0 64 64" fill="none" xmlns="http://www.w3.org/2000/svg">
<g clip-path="url(#clip0_182_2120)">
<path d="M63 60H59V63H63V60Z" fill="#555A66"/>
<path d="M63 47H59V60H63V47Z" fill="#FEC9D3"/>
<path d="M27 36V29H9V43H27V36ZM63 25V47H1V25H33V31C33.0016 31.5299 33.2128 32.0377 33.5875 32.4125C33.9623 32.7872 34.4701 32.9984 35 33C35.5292 32.9961 36.0356 32.7841 36.4099 32.4099C36.7841 32.0356 36.9961 31.5292 37 31V29C37.0016 28.4701 37.2128 27.9623 37.5875 27.5875C37.9623 27.2128 38.4701 27.0016 39 27C39.5292 27.0039 40.0356 27.2159 40.4099 27.5901C40.7841 27.9643 40.9961 28.4708 41 29V35C41.0016 35.5299 41.2128 36.0377 41.5875 36.4125C41.9623 36.7872 42.4701 36.9984 43 37C43.5292 36.9961 44.0356 36.7841 44.4099 36.4099C44.7841 36.0356 44.9961 35.5292 45 35V25H63Z" fill="#EEF2FA"/>
<path d="M62.9999 5V25H58.9999V9H55.9999L53.3799 11.62L50.3799 8.62L53.9999 5H62.9999Z" fill="#7E8596"/>
<path d="M63 1V5H54L50.38 8.62L49.76 8H46.94L45.53 9.41V9.42L44.82 8.71L42 11.53L50.47 20L53.29 17.18L52.59 16.48V16.47L54 15.06V12.24L53.38 11.62L56 9H59V25H46C46 22.8783 45.1571 20.8434 43.6569 19.3431C42.1566 17.8429 40.1217 17 38 17C37.4863 16.9989 36.9737 17.0491 36.47 17.15C35.8928 15.6361 34.8696 14.3332 33.5357 13.4136C32.2018 12.494 30.6202 12.001 29 12C28.4522 12 27.906 12.057 27.37 12.17C26.3573 10.8371 24.952 9.85544 23.352 9.36329C21.752 8.87114 20.0379 8.89329 18.4512 9.42662C16.8644 9.95996 15.485 10.9776 14.507 12.3362C13.5291 13.6949 13.002 15.326 13 17C10.8783 17 8.84344 17.8429 7.34315 19.3431C5.84285 20.8434 5 22.8783 5 25H1V1H63ZM36 7C36 6.60444 35.8827 6.21776 35.6629 5.88886C35.4432 5.55996 35.1308 5.30362 34.7654 5.15224C34.3999 5.00087 33.9978 4.96126 33.6098 5.03843C33.2219 5.1156 32.8655 5.30608 32.5858 5.58579C32.3061 5.86549 32.1156 6.22186 32.0384 6.60982C31.9613 6.99778 32.0009 7.39991 32.1522 7.76537C32.3036 8.13082 32.56 8.44318 32.8889 8.66294C33.2178 8.8827 33.6044 9 34 9C34.5299 8.99842 35.0377 8.7872 35.4125 8.41247C35.7872 8.03773 35.9984 7.52995 36 7V7ZM10 11C10 10.6044 9.8827 10.2178 9.66294 9.88886C9.44318 9.55996 9.13082 9.30362 8.76537 9.15224C8.39991 9.00087 7.99778 8.96126 7.60982 9.03843C7.22186 9.1156 6.86549 9.30608 6.58579 9.58579C6.30608 9.86549 6.1156 10.2219 6.03843 10.6098C5.96126 10.9978 6.00087 11.3999 6.15224 11.7654C6.30362 12.1308 6.55996 12.4432 6.88886 12.6629C7.21776 12.8827 7.60444 13 8 13C8.52995 12.9984 9.03773 12.7872 9.41247 12.4125C9.7872 12.0377 9.99842 11.5299 10 11V11Z" fill="#DCE1EB"/>
<path d="M50.38 8.62L53.38 11.62L54 12.24V15.06L52.59 16.47V16.48L45.53 9.42V9.41L46.94 8H49.76L50.38 8.62Z" fill="#414952"/>
<path d="M53.29 17.18L50.47 20L42 11.53L44.82 8.71001L45.53 9.42001L52.59 16.48L53.29 17.18Z" fill="#FEC9D3"/>
<path d="M9 25H5C5 22.8783 5.84285 20.8434 7.34315 19.3431C8.84344 17.8429 10.8783 17 13 17C13.002 15.326 13.5291 13.6949 14.507 12.3362C15.485 10.9776 16.8644 9.95996 18.4512 9.42662C20.0379 8.89329 21.752 8.87114 23.352 9.36329C24.952 9.85544 26.3573 10.8371 27.37 12.17C27.906 12.057 28.4522 12 29 12C30.6202 12.001 32.2018 12.494 33.5357 13.4136C34.8696 14.3332 35.8928 15.6361 36.47 17.15C36.9737 17.0491 37.4863 16.9989 38 17C40.1217 17 42.1566 17.8429 43.6569 19.3431C45.1571 20.8434 46 22.8783 46 25H45V35C44.9961 35.5292 44.7841 36.0357 44.4099 36.4099C44.0356 36.7841 43.5292 36.9961 43 37C42.4701 36.9984 41.9623 36.7872 41.5875 36.4125C41.2128 36.0377 41.0016 35.5299 41 35V29C40.9961 28.4708 40.7841 27.9644 40.4099 27.5901C40.0356 27.2159 39.5292 27.0039 39 27C38.4701 27.0016 37.9623 27.2128 37.5875 27.5875C37.2128 27.9623 37.0016 28.4701 37 29V31C36.9961 31.5292 36.7841 32.0357 36.4099 32.4099C36.0356 32.7841 35.5292 32.9961 35 33C34.4701 32.9984 33.9623 32.7872 33.5875 32.4125C33.2128 32.0377 33.0016 31.5299 33 31V25H9Z" fill="#25B1E8"/>
<path d="M34 9C35.1046 9 36 8.10457 36 7C36 5.89543 35.1046 5 34 5C32.8954 5 32 5.89543 32 7C32 8.10457 32.8954 9 34 9Z" fill="#7DD5F5"/>
<path d="M27 38V43H9V29H27V34H21V38H27Z" fill="#FEC9D3"/>
<path d="M27 36V38H21V34H27V36Z" fill="#555A66"/>
<path d="M27 47L26 57H10L9 47H27Z" fill="#555A66"/>
<path d="M8 13C9.10457 13 10 12.1046 10 11C10 9.89543 9.10457 9 8 9C6.89543 9 6 9.89543 6 11C6 12.1046 6.89543 13 8 13Z" fill="#7DD5F5"/>
<path d="M5 60H1V63H5V60Z" fill="#555A66"/>
<path d="M5 47H1V60H5V47Z" fill="#FEC9D3"/>
<path d="M60.9999 21V7H56.8279C56.2975 7.00011 55.7889 7.2109 55.4139 7.586C55.0388 7.96094 54.5302 8.17157 53.9999 8.17157C53.4696 8.17157 52.9609 7.96094 52.5859 7.586L51.9999 7L50.3799 8.62L53.3799 11.62L55.9999 9H58.9999V25H62.9999V23C62.4694 23 61.9607 22.7893 61.5857 22.4142C61.2106 22.0391 60.9999 21.5304 60.9999 21Z" fill="#636978"/>
<path d="M46.94 8L45.53 9.41V9.42L52.59 16.48V16.47L54 15.06V15L47 8H46.94Z" fill="#2A2E33"/>
<path d="M52.59 16.48L51.555 15.445L51.414 15.586C51.0389 15.9609 50.5303 16.1716 50 16.1716C49.4697 16.1716 48.9611 15.9609 48.586 15.586L43.265 10.265L42 11.53L50.47 20L53.29 17.18L52.59 16.48Z" fill="#E0A3AB"/>
<path d="M5.08398 23.9C5.12636 23.597 5.18545 23.2965 5.26098 23C5.18497 23.2964 5.12588 23.5969 5.08398 23.9V23.9Z" fill="#6AF8FF"/>
<path d="M5 25C5.0007 24.6726 5.02275 24.3455 5.066 24.021C5.02378 24.3457 5.00173 24.6726 5 25V25Z" fill="#6AF8FF"/>
<path d="M38 17C37.4862 16.9989 36.9737 17.0491 36.47 17.15C35.8928 15.6361 34.8695 14.3332 33.5357 13.4136C32.2018 12.494 30.6201 12.001 29 12C28.4522 12 27.9059 12.057 27.37 12.17C26.3573 10.8371 24.952 9.85544 23.352 9.36329C21.752 8.87114 20.0379 8.89329 18.4511 9.42662C16.8644 9.95996 15.4849 10.9776 14.507 12.3362C13.5291 13.6949 13.002 15.326 13 17C11.2275 17.0007 9.50554 17.5905 8.10483 18.6766C6.70411 19.7627 5.70408 21.2836 5.26196 23H7.73996C9.18994 21.7129 11.0611 21.0014 13 21C13.002 19.326 13.5291 17.6949 14.507 16.3362C15.4849 14.9776 16.8644 13.96 18.4511 13.4266C20.0379 12.8933 21.752 12.8711 23.352 13.3633C24.952 13.8554 26.3573 14.8371 27.37 16.17C27.9059 16.057 28.4522 16 29 16C30.6201 16.001 32.2018 16.494 33.5357 17.4136C34.8695 18.3332 35.8928 19.6361 36.47 21.15C36.9737 21.0491 37.4862 20.9989 38 21C39.4294 20.9995 40.8327 21.3822 42.0639 22.1084C43.2951 22.8347 44.309 23.8777 45 25.129V25H46C46 22.8783 45.1571 20.8434 43.6568 19.3431C42.1565 17.8429 40.1217 17 38 17V17Z" fill="#7DD5F5"/>
<path d="M5.26199 23L5.26099 23.002L5.26199 23Z" fill="#52AFF4"/>
<path d="M5.06592 24.021C5.06592 23.981 5.07792 23.942 5.08392 23.901C5.07792 23.942 5.07092 23.981 5.06592 24.021Z" fill="#52AFF4"/>
<path d="M31 23H5.262C5.18647 23.2965 5.12738 23.597 5.085 23.9C5.079 23.941 5.072 23.98 5.067 24.02C5.02337 24.3449 5.00099 24.6722 5 25H33C33 24.4696 32.7893 23.9609 32.4142 23.5858C32.0391 23.2107 31.5304 23 31 23Z" fill="#216FC4"/>
<path d="M63 49C62.4696 49 61.9609 49.2107 61.5858 49.5858C61.2107 49.9609 61 50.4696 61 51V60H59V47H63V49Z" fill="#E0A3AB"/>
<path d="M61 60H59V63H61V60Z" fill="#2A2E33"/>
<path d="M1 49C1.53043 49 2.03914 49.2107 2.41421 49.5858C2.78929 49.9609 3 50.4696 3 51V60H5V47H1V49Z" fill="#E0A3AB"/>
<path d="M3 63H5V60H3L3 63Z" fill="#2A2E33"/>
<path d="M9 47L10 57H12L11.281 51.248C11.2458 50.9666 11.2709 50.6809 11.3546 50.4099C11.4383 50.1389 11.5786 49.8888 11.7664 49.6762C11.9541 49.4636 12.1849 49.2934 12.4434 49.1768C12.702 49.0602 12.9824 48.9999 13.266 49H22.734C23.0176 48.9999 23.298 49.0602 23.5566 49.1768C23.8151 49.2934 24.0459 49.4636 24.2336 49.6762C24.4214 49.8888 24.5617 50.1389 24.6454 50.4099C24.7291 50.6809 24.7542 50.9666 24.719 51.248L24 57H26L27 47H9Z" fill="#2A2E33"/>
<path d="M24.465 50H11.535C11.3623 50.3047 11.2733 50.6497 11.277 51H24.723C24.7267 50.6497 24.6376 50.3047 24.465 50V50Z" fill="#2A2E33"/>
<path d="M24.625 52H11.375L11.5 53H24.5L24.625 52Z" fill="#2A2E33"/>
<path d="M24.375 54H11.625L11.75 55H24.25L24.375 54Z" fill="#2A2E33"/>
<path d="M11.875 56L12 57H24L24.125 56H11.875Z" fill="#2A2E33"/>
<path d="M22 34V36C22 36.2652 22.1054 36.5196 22.2929 36.7071C22.4804 36.8946 22.7348 37 23 37H25C25.2652 37 25.5196 36.8946 25.7071 36.7071C25.8946 36.5196 26 36.2652 26 36V34H27V38H21V34H22Z" fill="#2A2E33"/>
<path d="M21 35V38H27V43H9V29H11V41H24V40H20V35H21Z" fill="#E0A3AB"/>
<path d="M59 25V42C59 42.5304 58.7893 43.0391 58.4142 43.4142C58.0391 43.7893 57.5304 44 57 44H7C6.46957 44 5.96086 43.7893 5.58579 43.4142C5.21071 43.0391 5 42.5304 5 42V29C5 28.4696 5.21071 27.9609 5.58579 27.5858C5.96086 27.2107 6.46957 27 7 27H30C30.5304 27 31.0391 27.2107 31.4142 27.5858C31.7893 27.9609 32 28.4696 32 29V35C32 35.5304 32.2107 36.0391 32.5858 36.4142C32.9609 36.7893 33.4696 37 34 37H35C35.5292 36.9961 36.0356 36.7841 36.4099 36.4099C36.7841 36.0356 36.9961 35.5292 37 35V33.112C36.99 32.5984 37.1709 32.0994 37.5077 31.7114C37.8444 31.3235 38.3131 31.0743 38.823 31.012C39.0988 30.9893 39.3762 31.0237 39.6381 31.1131C39.8999 31.2025 40.1405 31.3449 40.3448 31.5315C40.5491 31.7181 40.7128 31.9448 40.8255 32.1974C40.9382 32.4501 40.9976 32.7233 41 33V29C40.9982 28.723 40.9392 28.4493 40.8267 28.1962C40.7142 27.943 40.5506 27.7159 40.3463 27.5288C40.1419 27.3418 39.9011 27.1991 39.639 27.1094C39.3769 27.0198 39.0991 26.9853 38.823 27.008C38.3124 27.0704 37.8431 27.3201 37.5063 27.7089C37.1695 28.0977 36.989 28.5977 37 29.112V31C36.9982 31.277 36.9392 31.5507 36.8267 31.8038C36.7142 32.057 36.5506 32.2841 36.3463 32.4711C36.1419 32.6582 35.9011 32.8009 35.639 32.8906C35.3769 32.9802 35.0991 33.0147 34.823 32.992C34.3124 32.9296 33.8431 32.6799 33.5063 32.2911C33.1695 31.9023 32.989 31.4023 33 30.888V25H1V47H63V25H59Z" fill="#DCE1EB"/>
<path d="M41 39C41.0016 39.5299 41.2128 40.0377 41.5875 40.4125C41.9623 40.7872 42.4701 40.9984 43 41C43.5292 40.9961 44.0356 40.7841 44.4099 40.4099C44.7841 40.0356 44.9961 39.5292 45 39V35C44.9961 35.5292 44.7841 36.0356 44.4099 36.4099C44.0356 36.7841 43.5292 36.9961 43 37C42.4701 36.9984 41.9623 36.7872 41.5875 36.4125C41.2128 36.0377 41.0016 35.5299 41 35V39Z" fill="#CDD2E1"/>
<path d="M41.9997 11.53L40 13.5297L48.4697 21.9994L50.4694 19.9997L41.9997 11.53Z" fill="#CDD2E1"/>
<path d="M56.0001 9L55.3801 9.62L54.0001 11L53.3801 11.62L54.0001 12.24V15.06L52.5901 16.47V16.48L53.2901 17.18L55.2901 15.18L54.5901 14.48V14.47L56.0001 13.06V11H57.0001V25H59.0001V9H56.0001Z" fill="#CDD2E1"/>
<path d="M63 1H1V3H63V1Z" fill="#EEF2FA"/>
<path d="M47.049 23C46.9966 20.8268 46.0834 18.7633 44.5101 17.2632C42.9368 15.763 40.8322 14.949 38.659 15C38.1221 14.9991 37.5864 15.0494 37.059 15.15C36.4141 13.6081 35.3232 12.2941 33.9263 11.3765C32.5294 10.4589 30.8902 9.97956 29.219 10C28.6451 9.99999 28.0726 10.0569 27.51 10.17C26.7049 9.17493 25.6866 8.37344 24.5302 7.82476C23.3738 7.27607 22.1089 6.99421 20.829 7C18.6558 6.949 16.5512 7.76304 14.9779 9.26318C13.4046 10.7633 12.4914 12.8268 12.439 15C10.2658 14.949 8.16118 15.763 6.58791 17.2632C5.01464 18.7633 4.10142 20.8268 4.049 23H1V25H5C5.00025 23.1106 5.66986 21.2825 6.88999 19.8399C8.11012 18.3974 9.80187 17.4337 11.665 17.12L11.729 17.11C11.929 17.079 12.12 17.051 12.32 17.034C12.456 17.022 12.595 17.019 12.733 17.013C12.823 17.013 12.91 17 13 17C13 14.8783 13.8429 12.8434 15.3431 11.3431C16.8434 9.84286 18.8783 9 21 9H21.049C22.2817 9.00171 23.4973 9.28803 24.6012 9.83667C25.7051 10.3853 26.6673 11.1814 27.413 12.163C27.9352 12.0555 28.4669 12.0008 29 12H29.02H29.049C30.6678 12.0011 32.2482 12.4933 33.5814 13.4116C34.9146 14.3298 35.9379 15.6309 36.516 17.143C37.0049 17.0475 37.5019 16.9996 38 17H38.049C39.8214 17.0006 41.5433 17.5904 42.9439 18.6765C44.3444 19.7627 45.3442 21.2836 45.786 23H45.738C45.9094 23.6529 45.9975 24.3249 46 25H59V23H47.049Z" fill="#CDD2E1"/>
<path d="M27 28H9C8.73478 28 8.48043 28.1054 8.29289 28.2929C8.10536 28.4804 8 28.7348 8 29V43C8 43.2652 8.10536 43.5196 8.29289 43.7071C8.48043 43.8946 8.73478 44 9 44H27C27.2652 44 27.5196 43.8946 27.7071 43.7071C27.8946 43.5196 28 43.2652 28 43V29C28 28.7348 27.8946 28.4804 27.7071 28.2929C27.5196 28.1054 27.2652 28 27 28ZM27 43H9V29H27V43Z" fill="#7E8596"/>
<path d="M63 14C63 13.4477 62.5523 13 62 13C61.4477 13 61 13.4477 61 14V19C61 19.5523 61.4477 20 62 20C62.5523 20 63 19.5523 63 19V14Z" fill="#9DA3B5"/>
<path d="M63 9C63 8.44772 62.5523 8 62 8C61.4477 8 61 8.44772 61 9V11C61 11.5523 61.4477 12 62 12C62.5523 12 63 11.5523 63 11V9Z" fill="#9DA3B5"/>
<path d="M22 17C22.5523 17 23 16.5523 23 16C23 15.4477 22.5523 15 22 15C21.4477 15 21 15.4477 21 16C21 16.5523 21.4477 17 22 17Z" fill="#6AF8FF"/>
<path d="M41 25C41.5523 25 42 24.5523 42 24C42 23.4477 41.5523 23 41 23C40.4477 23 40 23.4477 40 24C40 24.5523 40.4477 25 41 25Z" fill="#2B8FFC"/>
<path d="M20.125 21C20.6773 21 21.125 20.5523 21.125 20C21.125 19.4477 20.6773 19 20.125 19C19.5727 19 19.125 19.4477 19.125 20C19.125 20.5523 19.5727 21 20.125 21Z" fill="#2B8FFC"/>
<path d="M16 22C16.5523 22 17 21.5523 17 21C17 20.4477 16.5523 20 16 20C15.4477 20 15 20.4477 15 21C15 21.5523 15.4477 22 16 22Z" fill="#2B8FFC"/>
<path d="M33.625 20C33.9011 20 34.125 19.7761 34.125 19.5C34.125 19.2239 33.9011 19 33.625 19C33.3489 19 33.125 19.2239 33.125 19.5C33.125 19.7761 33.3489 20 33.625 20Z" fill="#6AF8FF"/>
<path d="M38.5 25C38.7761 25 39 24.7761 39 24.5C39 24.2239 38.7761 24 38.5 24C38.2239 24 38 24.2239 38 24.5C38 24.7761 38.2239 25 38.5 25Z" fill="#2B8FFC"/>
<path d="M19.5 18C19.7761 18 20 17.7761 20 17.5C20 17.2239 19.7761 17 19.5 17C19.2239 17 19 17.2239 19 17.5C19 17.7761 19.2239 18 19.5 18Z" fill="#6AF8FF"/>
<path d="M22.5 22C22.7761 22 23 21.7761 23 21.5C23 21.2239 22.7761 21 22.5 21C22.2239 21 22 21.2239 22 21.5C22 21.7761 22.2239 22 22.5 22Z" fill="#2B8FFC"/>
<path d="M29.5 19C29.7761 19 30 18.7761 30 18.5C30 18.2239 29.7761 18 29.5 18C29.2239 18 29 18.2239 29 18.5C29 18.7761 29.2239 19 29.5 19Z" fill="#6AF8FF"/>
<path d="M57.3012 41.3104C57.9422 40.6689 57.7379 39.4255 56.8448 38.5331C55.9518 37.6406 54.7082 37.4372 54.0672 38.0786C53.4261 38.7201 53.6305 39.9636 54.5235 40.856C55.4166 41.7484 56.6602 41.9519 57.3012 41.3104Z" fill="#F6FAFD"/>
<path d="M56.4936 36.5192C56.8157 36.1969 56.7132 35.5723 56.2647 35.1241C55.8163 34.676 55.1916 34.5739 54.8695 34.8962C54.5475 35.2185 54.6499 35.8431 55.0984 36.2913C55.5469 36.7394 56.1715 36.8415 56.4936 36.5192Z" fill="#F6FAFD"/>
<path d="M33.4 16.5891C33.7065 16.3393 33.6333 15.7422 33.2365 15.2554C32.8398 14.7687 32.2697 14.5767 31.9632 14.8266C31.6567 15.0764 31.7298 15.6735 32.1266 16.1603C32.5234 16.647 33.0935 16.839 33.4 16.5891Z" fill="#F6FAFD"/>
<path d="M30.833 15.614C30.9942 15.4527 30.9431 15.1402 30.7189 14.9161C30.4947 14.6921 30.1822 14.6412 30.0209 14.8025C29.8597 14.9639 29.9108 15.2763 30.135 15.5004C30.3593 15.7245 30.6717 15.7754 30.833 15.614Z" fill="#F6FAFD"/>
<path d="M28 34V29C28 28.7348 27.8946 28.4804 27.7071 28.2929C27.5196 28.1054 27.2652 28 27 28H9C8.73478 28 8.48043 28.1054 8.29289 28.2929C8.10536 28.4804 8 28.7348 8 29V43C8 43.2652 8.10536 43.5196 8.29289 43.7071C8.48043 43.8946 8.73478 44 9 44H27C27.2652 44 27.5196 43.8946 27.7071 43.7071C27.8946 43.5196 28 43.2652 28 43V37H31V35H28V34ZM10 42V30H26V33H21C20.7348 33 20.4804 33.1054 20.2929 33.2929C20.1054 33.4804 20 33.7348 20 34V38C20 38.2652 20.1054 38.5196 20.2929 38.7071C20.4804 38.8946 20.7348 39 21 39H26V42H10ZM26 35V37H22V35H26Z" fill="black"/>
<path d="M53 24H51V26H53V24Z" fill="black"/>
<path d="M63 0H1C0.734784 0 0.48043 0.105357 0.292893 0.292893C0.105357 0.48043 0 0.734784 0 1L0 63C0 63.2652 0.105357 63.5196 0.292893 63.7071C0.48043 63.8946 0.734784 64 1 64H5C5.26522 64 5.51957 63.8946 5.70711 63.7071C5.89464 63.5196 6 63.2652 6 63V50H4V59H2V48H8.1L9.01 57.1C9.0347 57.3458 9.14952 57.5738 9.33232 57.74C9.51511 57.9061 9.75296 57.9988 10 58H26C26.2488 58.0012 26.4891 57.9097 26.674 57.7433C26.8589 57.5769 26.9751 57.3475 27 57.1L27.91 48H62V59H60V50H58V63C58 63.2652 58.1054 63.5196 58.2929 63.7071C58.4804 63.8946 58.7348 64 59 64H63C63.2652 64 63.5196 63.8946 63.7071 63.7071C63.8946 63.5196 64 63.2652 64 63V1C64 0.734784 63.8946 0.48043 63.7071 0.292893C63.5196 0.105357 63.2652 0 63 0V0ZM4 61V62H2V61H4ZM2 26H30V24H10.184C10.3901 23.4171 10.7712 22.9121 11.2753 22.5541C11.7794 22.1961 12.3817 22.0026 13 22V20C11.8478 20.0015 10.7313 20.4001 9.83875 21.1287C8.94618 21.8573 8.3321 22.8714 8.1 24H6.08C6.32026 22.3354 7.15181 20.813 8.42253 19.7112C9.69324 18.6094 11.3182 18.002 13 18C13.2652 18 13.5196 17.8946 13.7071 17.7071C13.8946 17.5196 14 17.2652 14 17C14.0021 15.5351 14.4637 14.1077 15.3198 12.9189C16.1759 11.7302 17.3834 10.84 18.7722 10.3738C20.1609 9.90755 21.661 9.88877 23.061 10.3201C24.461 10.7514 25.6904 11.6111 26.576 12.778C26.6908 12.9277 26.8456 13.0419 27.0226 13.1074C27.1995 13.1729 27.3914 13.1869 27.576 13.148C28.0443 13.0495 28.5215 12.9999 29 13C30.4164 13.0065 31.7979 13.4402 32.9639 14.2443C34.13 15.0483 35.0264 16.1854 35.536 17.507C35.6206 17.7284 35.781 17.9125 35.9887 18.0266C36.1964 18.1407 36.4378 18.1774 36.67 18.13C37.1078 18.0417 37.5534 17.9982 38 18C39.6848 18.0018 41.3123 18.6112 42.584 19.7162C43.8557 20.8213 44.6862 22.348 44.923 24.016C44.6733 24.0332 44.4394 24.1442 44.2682 24.3267C44.097 24.5092 44.0012 24.7497 44 25V35C44.0004 35.1333 43.9735 35.2653 43.9209 35.3877C43.8682 35.5102 43.791 35.6206 43.694 35.712C43.6037 35.8043 43.4957 35.8775 43.3764 35.927C43.2572 35.9765 43.1291 36.0013 43 36C42.7348 36 42.4804 35.8946 42.2929 35.7071C42.1054 35.5196 42 35.2652 42 35V29C41.9961 28.2056 41.6787 27.4448 41.117 26.883C40.5552 26.3213 39.7944 26.0039 39 26C38.2044 26 37.4413 26.3161 36.8787 26.8787C36.3161 27.4413 36 28.2044 36 29V31C36.0004 31.1333 35.9735 31.2653 35.9209 31.3877C35.8682 31.5102 35.791 31.6206 35.694 31.712C35.6037 31.8043 35.4957 31.8775 35.3764 31.927C35.2572 31.9765 35.1291 32.0013 35 32C34.7348 32 34.4804 31.8946 34.2929 31.7071C34.1054 31.5196 34 31.2652 34 31V25C34 24.7348 33.8946 24.4804 33.7071 24.2929C33.5196 24.1054 33.2652 24 33 24H32V31C32 31.7956 32.3161 32.5587 32.8787 33.1213C33.4413 33.6839 34.2044 34 35 34C35.7944 33.9961 36.5552 33.6787 37.117 33.117C37.6787 32.5552 37.9961 31.7944 38 31V29C38 28.7348 38.1054 28.4804 38.2929 28.2929C38.4804 28.1054 38.7348 28 39 28C39.1333 27.9996 39.2653 28.0265 39.3877 28.0791C39.5102 28.1318 39.6206 28.209 39.712 28.306C39.8043 28.3963 39.8775 28.5043 39.927 28.6236C39.9765 28.7428 40.0013 28.8709 40 29V35C40 35.7956 40.3161 36.5587 40.8787 37.1213C41.4413 37.6839 42.2044 38 43 38C43.7944 37.9961 44.5552 37.6787 45.117 37.117C45.6787 36.5552 45.9961 35.7944 46 35V26H49V24H46.941C46.6774 21.6421 45.4933 19.4837 43.6464 17.9943C41.7995 16.5049 39.4392 15.8051 37.079 16.047C36.3341 14.5383 35.1836 13.267 33.7566 12.3756C32.3296 11.4841 30.6825 11.0078 29 11C28.5895 10.9998 28.1795 11.0282 27.773 11.085C26.6228 9.76522 25.1124 8.80985 23.4271 8.33609C21.7417 7.86232 19.9548 7.89077 18.2854 8.41793C16.616 8.94509 15.1367 9.94805 14.0291 11.3038C12.9215 12.6595 12.2337 14.309 12.05 16.05C10.013 16.2697 8.11165 17.1769 6.65938 18.622C5.20712 20.0672 4.29063 21.9641 4.061 24H2V2H62V4H54C53.7348 4.00006 53.4805 4.10545 53.293 4.293L50.363 7.223C50.192 7.08432 49.9801 7.00593 49.76 7H46.94C46.6748 7.00006 46.4205 7.10545 46.233 7.293L45.525 8C45.3376 7.81314 45.0837 7.70821 44.819 7.70821C44.5543 7.70821 44.3004 7.81314 44.113 8L41.293 10.82C41.1055 11.0075 41.0002 11.2618 41.0002 11.527C41.0002 11.7922 41.1055 12.0465 41.293 12.234L49.763 20.704C49.9505 20.8915 50.2048 20.9968 50.47 20.9968C50.7352 20.9968 50.9895 20.8915 51.177 20.704L54 17.887C54.1869 17.6996 54.2918 17.4457 54.2918 17.181C54.2918 16.9163 54.1869 16.6624 54 16.475L54.708 15.767C54.8952 15.5793 55.0002 15.3251 55 15.06V12.24C54.9934 12.021 54.9151 11.8102 54.777 11.64L56.414 10H58V24H55V26H62V46H2V26ZM59 8H56C55.7348 8.00006 55.4805 8.10545 55.293 8.293L53.38 10.206L51.794 8.62L54.414 6H62V24H60V9C60 8.73478 59.8946 8.48043 59.7071 8.29289C59.5196 8.10536 59.2652 8 59 8ZM51.876 17.18L50.47 18.586L43.414 11.53L44.82 10.124L51.876 17.18ZM46.939 9.415L47.354 9H49.346L53 12.654V14.646L52.585 15.061L46.939 9.415ZM25.1 56H10.905L10.105 48H25.9L25.1 56ZM60 62V61H62V62H60Z" fill="black"/>
<path d="M21 12C19.6744 12.0016 18.4036 12.5289 17.4662 13.4662C16.5289 14.4036 16.0016 15.6744 16 17H18C18 16.2044 18.3161 15.4413 18.8787 14.8787C19.4413 14.3161 20.2044 14 21 14C21.7956 14 22.5587 14.3161 23.1213 14.8787C23.6839 15.4413 24 16.2044 24 17H26C25.9984 15.6744 25.4711 14.4036 24.5338 13.4662C23.5964 12.5289 22.3256 12.0016 21 12V12Z" fill="black"/>
<path d="M34 4C33.4067 4 32.8266 4.17595 32.3333 4.50559C31.8399 4.83524 31.4554 5.30377 31.2284 5.85195C31.0013 6.40013 30.9419 7.00333 31.0576 7.58527C31.1734 8.16721 31.4591 8.70176 31.8787 9.12132C32.2982 9.54088 32.8328 9.8266 33.4147 9.94236C33.9967 10.0581 34.5999 9.9987 35.148 9.77164C35.6962 9.54458 36.1648 9.16006 36.4944 8.66671C36.8241 8.17336 37 7.59334 37 7C37 6.20435 36.6839 5.44129 36.1213 4.87868C35.5587 4.31607 34.7957 4 34 4V4ZM34 8C33.8022 8 33.6089 7.94135 33.4444 7.83147C33.28 7.72159 33.1518 7.56541 33.0761 7.38268C33.0004 7.19996 32.9806 6.99889 33.0192 6.80491C33.0578 6.61093 33.153 6.43275 33.2929 6.29289C33.4327 6.15304 33.6109 6.0578 33.8049 6.01921C33.9989 5.98063 34.2 6.00043 34.3827 6.07612C34.5654 6.15181 34.7216 6.27998 34.8315 6.44443C34.9414 6.60888 35 6.80222 35 7C35 7.26522 34.8946 7.51957 34.7071 7.70711C34.5196 7.89464 34.2652 8 34 8Z" fill="black"/>
<path d="M8 8C7.40666 8 6.82664 8.17595 6.33329 8.50559C5.83994 8.83524 5.45543 9.30377 5.22836 9.85195C5.0013 10.4001 4.94189 11.0033 5.05765 11.5853C5.1734 12.1672 5.45912 12.7018 5.87868 13.1213C6.29824 13.5409 6.83279 13.8266 7.41473 13.9424C7.99667 14.0581 8.59987 13.9987 9.14805 13.7716C9.69623 13.5446 10.1648 13.1601 10.4944 12.6667C10.8241 12.1734 11 11.5933 11 11C11 10.2044 10.6839 9.44129 10.1213 8.87868C9.55871 8.31607 8.79565 8 8 8ZM8 12C7.80222 12 7.60888 11.9414 7.44443 11.8315C7.27998 11.7216 7.15181 11.5654 7.07612 11.3827C7.00043 11.2 6.98063 10.9989 7.01922 10.8049C7.0578 10.6109 7.15304 10.4327 7.29289 10.2929C7.43275 10.153 7.61093 10.0578 7.80491 10.0192C7.99889 9.98063 8.19996 10.0004 8.38268 10.0761C8.56541 10.1518 8.72159 10.28 8.83147 10.4444C8.94135 10.6089 9 10.8022 9 11C9 11.2652 8.89464 11.5196 8.70711 11.7071C8.51957 11.8946 8.26522 12 8 12V12Z" fill="black"/>
</g>
<defs>
<clipPath id="clip0_182_2120">
<rect width="64" height="64" fill="white"/>
</clipPath>
</defs>
</svg>
