<svg xmlns="http://www.w3.org/2000/svg" viewBox="0 0 64 64"><title>18-ear cleaning</title><g id="_18-ear_cleaning" data-name="18-ear cleaning"><ellipse cx="21" cy="16" rx="2" ry="3" style="fill:#eef2fa"/><ellipse cx="39" cy="16" rx="2" ry="3" style="fill:#eef2fa"/><path d="M34,28l-4,4-4-4a5,5,0,0,1,8,0Z" style="fill:#5e3117"/><path d="M30,35s3.37,3.37,7.01,3.92L37,39H23l-.01-.08C26.63,38.37,30,35,30,35Z" style="fill:#eba5af"/><path d="M30,32l4-4a5,5,0,0,0-8,0Zm0,3s-3.37,3.37-7.01,3.92A6.607,6.607,0,0,1,22,39c-2.76,0-5-1.58-5-6V31.66a4.727,4.727,0,0,1,.04-.65,5.94,5.94,0,0,1,.82-2.44l6.68-9.5A7.98,7.98,0,0,0,26,14.47V5a4,4,0,0,1,8,0v9.47a7.98,7.98,0,0,0,1.46,4.6l6.68,9.5a5.94,5.94,0,0,1,.82,2.44,4.727,4.727,0,0,1,.04.65V33c0,4.42-2.24,6-5,6a6.607,6.607,0,0,1-.99-.08C33.37,38.37,30,35,30,35Z" style="fill:#ffe2c2"/><path d="M21,19c1.1,0,2-1.34,2-3s-.9-3-2-3-2,1.34-2,3S19.9,19,21,19Zm5-4.53a7.98,7.98,0,0,1-1.46,4.6l-6.68,9.5a5.94,5.94,0,0,0-.82,2.44L17,31,12.72,19.87a10.761,10.761,0,0,1,0-7.74l1.81-4.72A10.075,10.075,0,0,1,23.87,1H30a3.995,3.995,0,0,0-4,4Z" style="fill:#e9b789"/><path d="M37,16c0,1.66.9,3,2,3s2-1.34,2-3-.9-3-2-3S37,14.34,37,16Zm-1.54,3.07A7.98,7.98,0,0,1,34,14.47V5a4,4,0,0,0-4-4h6.13a10.075,10.075,0,0,1,9.34,6.41l1.81,4.72a10.761,10.761,0,0,1,0,7.74L43,31l-.04.01a5.94,5.94,0,0,0-.82-2.44Z" style="fill:#e9b789"/><path d="M37.92,45.03C38.8,47.35,40,48.58,40,53c0,6-10,6-10,6s-10,0-10-6c0-4.42,1.2-5.65,2.08-7.97A16.217,16.217,0,0,0,23,39H37A16.217,16.217,0,0,0,37.92,45.03Z" style="fill:#c98c65"/><path d="M22.08,45.03C21.2,47.35,20,48.58,20,53c0,6,10,6,10,6s10,0,10-6c0-4.42-1.2-5.65-2.08-7.97L38,45l6,8,2-2s3.29.82,3.9,3.95a.433.433,0,0,0,.01.05L50,56v7H10V56l.09-.94C10.65,52,14,52,14,52l2,1,6-8Z" style="fill:#ffe2c2"/><path d="M47.25,41.07a26,26,0,0,1,2.14,8.21l.51,5.67C49.29,51.82,46,51,46,51l-2,2-6-8-.08.03A16.217,16.217,0,0,1,37,39l.01-.08A6.607,6.607,0,0,0,38,39c2.76,0,5-1.58,5-6V31.66a4.727,4.727,0,0,0-.04-.65L43,31l4,10,.19-.08Z" style="fill:#9a6948"/><path d="M23,39a16.217,16.217,0,0,1-.92,6.03L22,45l-6,8-2-1s-3.35,0-3.91,3.06l.52-5.78a26,26,0,0,1,2.14-8.21l.06-.15L13,41l4-10,.04.01a4.727,4.727,0,0,0-.04.65V33c0,4.42,2.24,6,5,6a6.607,6.607,0,0,0,.99-.08Z" style="fill:#9a6948"/><path d="M14.48,4.01l3.33-.95a10,10,0,0,0-3.28,4.35l-1.81,4.72a10.761,10.761,0,0,0,0,7.74L17,31,13,41l-.19-.08L9.73,39.69a5.948,5.948,0,0,1-2.76-2.24L3.34,32.02A8.066,8.066,0,0,1,2,27.58V25.8a7.961,7.961,0,0,1,.77-3.43L9.45,8.27A8,8,0,0,1,14.48,4.01Z" style="fill:#e9b789"/><path d="M58,25.8v1.78a8.066,8.066,0,0,1-1.34,4.44l-3.63,5.43a5.948,5.948,0,0,1-2.76,2.24l-3.08,1.23L47,41,43,31l4.28-11.13a10.761,10.761,0,0,0,0-7.74L45.47,7.41a10,10,0,0,0-3.28-4.35l3.33.95a8,8,0,0,1,5.03,4.26l6.68,14.1A7.961,7.961,0,0,1,58,25.8Z" style="fill:#e9b789"/><path d="M33,29l1-1a5,5,0,0,0-8,0l1,1a5,5,0,0,1,6,0Z" style="fill:#845335"/><path d="M48.2,33.748l-.84-1.049a4,4,0,0,1-.671-3.763l3.561-10.682A6,6,0,0,0,50,13.843L45.458,3.992,42.19,3.06a10,10,0,0,1,3.28,4.35l1.81,4.72a10.761,10.761,0,0,1,0,7.74L43,31l4,10,.19-.08,3.08-1.23a5.948,5.948,0,0,0,2.76-2.24L54,36H52.884A6,6,0,0,1,48.2,33.748Z" style="fill:#af7a58"/><path d="M12,16a10.707,10.707,0,0,1,.72-3.87l1.81-4.72a10,10,0,0,1,3.28-4.35l-3.268.932L10,13.843a6,6,0,0,0-.245,4.411l3.561,10.682a4,4,0,0,1-.671,3.763l-.84,1.049A6,6,0,0,1,7.116,36H6l.969,1.45a5.948,5.948,0,0,0,2.76,2.24l3.08,1.23L13,41l4-10L12.72,19.87A10.707,10.707,0,0,1,12,16Z" style="fill:#af7a58"/><path d="M50.326,17.919c.659,2.965,2.56,8.381,7.674,9.013V25.8a7.961,7.961,0,0,0-.77-3.43L50.55,8.27a8,8,0,0,0-5.03-4.26l-.062-.018L50,13.843A5.98,5.98,0,0,1,50.326,17.919Z" style="fill:#f2cfa9"/><path d="M9.674,17.919C9.015,20.884,7.114,26.3,2,26.932V25.8a7.961,7.961,0,0,1,.77-3.43L9.45,8.27a8,8,0,0,1,5.03-4.26l.062-.018L10,13.843A5.98,5.98,0,0,0,9.674,17.919Z" style="fill:#f2cfa9"/><path d="M23.7,45H36.3a7.987,7.987,0,0,0,1.552-.157A16.462,16.462,0,0,1,37,39H23a16.462,16.462,0,0,1-.854,5.843A7.987,7.987,0,0,0,23.7,45Z" style="fill:#af7a58"/><path d="M10.09,55.06,10,56v7h3V52.141A3.614,3.614,0,0,0,10.09,55.06Z" style="fill:#ffefde"/><path d="M49.91,55a.433.433,0,0,1-.01-.05A5.085,5.085,0,0,0,47,51.39V63h3V56Z" style="fill:#ffefde"/><path d="M45.383,43.227A20,20,0,0,1,47,51.105v.285a5.085,5.085,0,0,1,2.9,3.56l-.51-5.67a26,26,0,0,0-2.14-8.21l-.06-.15L47,41l-2.16.96Z" style="fill:#af7a58"/><path d="M43,31l-.04.01a4.727,4.727,0,0,1,.04.65V33a8.283,8.283,0,0,1-.585,3.3A4.449,4.449,0,0,1,38,39a6.607,6.607,0,0,1-.99-.08L37,39a16.462,16.462,0,0,0,.854,5.843,7.942,7.942,0,0,0,1.7-.533l5.289-2.35L47,41Z" style="fill:#845335"/><path d="M13,52.141V51.105a20,20,0,0,1,1.617-7.878l.543-1.267L13,41l-.19-.08-.06.15a26,26,0,0,0-2.14,8.21l-.52,5.78A3.614,3.614,0,0,1,13,52.141Z" style="fill:#af7a58"/><path d="M22.99,38.92A6.607,6.607,0,0,1,22,39a4.449,4.449,0,0,1-4.415-2.7A8.283,8.283,0,0,1,17,33V31.66a4.727,4.727,0,0,1,.04-.65L17,31,13,41l2.16.96,5.289,2.35a7.942,7.942,0,0,0,1.7.533A16.462,16.462,0,0,0,23,39Z" style="fill:#845335"/><path d="M33,29l-3,3-3-3a4.6,4.6,0,0,0-1,1l2.586,2.586a2,2,0,0,0,2.828,0L34,30A4.6,4.6,0,0,0,33,29Z" style="fill:#f2cfa9"/><path d="M42.538,29.379C41.045,31.736,36.009,34,30,34s-11.045-2.264-12.538-4.621a5.9,5.9,0,0,0-.422,1.631,4.727,4.727,0,0,0-.04.65V33c0,4.42,2.24,6,5,6a6.607,6.607,0,0,0,.99-.08C26.63,38.37,30,35,30,35s3.37,3.37,7.01,3.92A6.607,6.607,0,0,0,38,39c2.76,0,5-1.58,5-6V31.66a4.727,4.727,0,0,0-.04-.65A5.9,5.9,0,0,0,42.538,29.379Z" style="fill:#f2cfa9"/><path d="M26.556,3h6.89A3.982,3.982,0,0,0,30,1a4.025,4.025,0,0,0-2.83,1.17A4.12,4.12,0,0,0,26.556,3Z" style="fill:#ffefde"/><path d="M14.72,14.13l1.81-4.72A10.075,10.075,0,0,1,25.87,3h.686a4.12,4.12,0,0,1,.614-.83A4.025,4.025,0,0,1,30,1H23.87a10.075,10.075,0,0,0-9.34,6.41l-1.81,4.72A10.707,10.707,0,0,0,12,16a5.251,5.251,0,0,0,2.666,4.263A4.322,4.322,0,0,1,14,18,10.707,10.707,0,0,1,14.72,14.13Z" style="fill:#f2cfa9"/><path d="M48,16a10.707,10.707,0,0,0-.72-3.87L45.47,7.41A10.075,10.075,0,0,0,36.13,1H30a3.982,3.982,0,0,1,3.446,2h.684a10.075,10.075,0,0,1,9.34,6.41l1.81,4.72A10.707,10.707,0,0,1,46,18a4.322,4.322,0,0,1-.666,2.263A5.252,5.252,0,0,0,48,16Z" style="fill:#f2cfa9"/><ellipse cx="38.5" cy="16" rx="1.5" ry="2.893" style="fill:#5e3117"/><ellipse cx="21.5" cy="16" rx="1.5" ry="2.893" style="fill:#5e3117"/><ellipse cx="52.682" cy="18.708" rx="0.825" ry="1.148" transform="translate(2.21 42.748) rotate(-45.02)" style="fill:#f6fafd"/><ellipse cx="54.684" cy="22.695" rx="1.642" ry="2.286" transform="translate(-0.023 45.333) rotate(-45.02)" style="fill:#f6fafd"/><rect x="46" y="51" width="16" height="7" style="fill:#31c0e5"/><polygon points="61 36 61 42 59 42 49 42 47 42 47 36 49 36 52 36 56 36 59 36 61 36" style="fill:#7baef5"/><path d="M49,36V33c0-2,3-4,3-6h4c0,2,3,4,3,6v3H49Z" style="fill:#31c0e5"/><path d="M62,58v3a2.006,2.006,0,0,1-2,2H48a2.006,2.006,0,0,1-2-2V58Z" style="fill:#fecfd5"/><path d="M62,50v1H46V50c0-4,3-5,3-8H59C59,45,62,46,62,50Z" style="fill:#fecfd5"/><path d="M54,27H52c0,2-3,4-3,6h2C51,31,54,29,54,27Z" style="fill:#696cd1"/><path d="M59,33c0-2-3-4-3-6H54c0,2-3,4-3,6Z" style="fill:#8a8dff"/><path d="M53,35a2,2,0,0,1-2-2H49v3H59V35Z" style="fill:#2b8ffc"/><path d="M53,35h6V33H51A2,2,0,0,0,53,35Z" style="fill:#25b1e8"/><path d="M49,36v2a2,2,0,0,0,2,2h6a2,2,0,0,0,2-2V36h2v6H47V36Z" style="fill:#71a2e6"/><rect x="47" y="41" width="14" height="1" style="fill:#7a7ef4"/><rect x="46" y="51" width="4" height="7" style="fill:#1da7ea"/><path d="M50,61V58H46v3a2.006,2.006,0,0,0,2,2h4A2.006,2.006,0,0,1,50,61Z" style="fill:#f3afba"/><path d="M59,42H49a5.234,5.234,0,0,1-1.084,3A8.218,8.218,0,0,0,46,50v1h4V50c0-.064,0-.128,0-.19A4.976,4.976,0,0,1,55,45h5.081A5.234,5.234,0,0,1,59,42Z" style="fill:#f3afba"/><path d="M46,61V51l-2,2-2-2.667V61a2.006,2.006,0,0,0,2,2h3v-.279A2,2,0,0,1,46,61Z" style="fill:#c98c65"/><path d="M47.359,32.7l.84,1.049a5.936,5.936,0,0,0,.8.815V33c0-2,3-4,3-6H48a5.71,5.71,0,0,1-1.508,3.011A4,4,0,0,0,47.359,32.7Z" style="fill:#c98c65"/><path d="M45,36l2,5V36h2V34.563a5.936,5.936,0,0,1-.8-.815l-.84-1.049a4,4,0,0,1-.867-2.688A5.661,5.661,0,0,0,45,33Z" style="fill:#845335"/><path d="M47.619,42H47V41l-2.16.96.017.04H45c0,.1-.012.194-.018.291C44.793,45.065,42,46.135,42,50v.333L44,53l2-2V50a6.577,6.577,0,0,1,.606-2.823c.521-1.138,1.264-2,1.785-2.962Q48.057,43.092,47.619,42Z" style="fill:#845335"/><polygon points="43 36 43 42 44.75 42 44.84 41.96 47 41 45 36 43 36" style="fill:#714226"/><ellipse cx="57.682" cy="47.708" rx="0.825" ry="1.148" transform="translate(-16.838 54.786) rotate(-45.02)" style="fill:#f6fafd"/><ellipse cx="55.682" cy="30.708" rx="0.825" ry="1.148" transform="translate(-5.399 48.388) rotate(-45.02)" style="fill:#f6fafd"/><ellipse cx="56.427" cy="46.208" rx="0.413" ry="0.574" transform="translate(-16.144 53.459) rotate(-45.02)" style="fill:#f6fafd"/><path d="M25.167,27.446a1,1,0,0,0,.126,1.261l4,4a1,1,0,0,0,1.414,0l4-4a1,1,0,0,0,.126-1.261,6,6,0,0,0-9.666,0ZM30,27a3.969,3.969,0,0,1,2.617.969L30,30.586l-2.616-2.617A3.963,3.963,0,0,1,30,27Z"/><path d="M39,12c-1.683,0-3,1.757-3,4s1.317,4,3,4,3-1.757,3-4S40.683,12,39,12Zm0,6c-.4,0-1-.8-1-2s.6-2,1-2,1,.8,1,2S39.4,18,39,18Z"/><path d="M21,20c1.683,0,3-1.757,3-4s-1.317-4-3-4-3,1.757-3,4S19.317,20,21,20Zm0-6c.4,0,1,.8,1,2s-.6,2-1,2-1-.8-1-2S20.6,14,21,14Z"/><path d="M44.05,51.4l-5.25-7-.031.023A14.251,14.251,0,0,1,38.024,40C39.839,39.994,44,39.293,44,33V31.66a5.454,5.454,0,0,0-.046-.754,6.923,6.923,0,0,0-1-2.911l-6.681-9.5A6.953,6.953,0,0,1,35,14.47V5a4.948,4.948,0,0,0-1.026-3H36.13a9.07,9.07,0,0,1,8.406,5.769l1.812,4.722a9.767,9.767,0,0,1,0,7.02L43.6,26.641l1.868.717,2.741-7.127a11.768,11.768,0,0,0,0-8.46L46.4,7.047A11.087,11.087,0,0,0,45.314,5a7,7,0,0,1,4.332,3.7l6.679,14.1a7.024,7.024,0,0,1,.64,2.3l1.99-.2a9.047,9.047,0,0,0-.821-2.96L51.453,7.84a9.01,9.01,0,0,0-5.659-4.792l-3.168-.9A10.981,10.981,0,0,0,36.13,0H23.87a10.985,10.985,0,0,0-6.485,2.136l-3.179.912A9.008,9.008,0,0,0,8.547,7.842l-6.68,14.1A8.9,8.9,0,0,0,1,25.8v1.78a9.052,9.052,0,0,0,1.509,5L6.137,38a6.918,6.918,0,0,0,3.222,2.616l.774.309h0l1.545.619A26.172,26.172,0,0,0,9.614,49.19l-.522,5.792A5.6,5.6,0,0,0,9,56v7a1,1,0,0,0,1,1H43V62H11L11,56.1l.071-.778c0-.025,0-.052.007-.077a2.824,2.824,0,0,1,2.714-2.228l1.766.883a1,1,0,0,0,1.247-.3l2.361-3.148A18.878,18.878,0,0,0,19,53c0,6.921,10.551,7,11,7s11-.079,11-7a18.877,18.877,0,0,0-.16-2.547L42.45,52.6ZM33,5v9.47a8.945,8.945,0,0,0,1.642,5.175l6.64,9.439a4.958,4.958,0,0,1,.688,2.062,3.853,3.853,0,0,1,.03.514V33c0,3.317-1.346,5-4,5a5.527,5.527,0,0,1-.841-.069c-3.263-.493-6.421-3.608-6.453-3.639a1,1,0,0,0-1.412,0c-.032.031-3.19,3.146-6.453,3.639A5.527,5.527,0,0,1,22,38c-2.654,0-4-1.683-4-5V31.66a3.993,3.993,0,0,1,.034-.546,4.867,4.867,0,0,1,.645-1.969l6.678-9.5A8.944,8.944,0,0,0,27,14.47V5a3,3,0,0,1,6,0Zm-.788,33H27.788A20,20,0,0,0,30,36.354,20,20,0,0,0,32.212,38ZM10.505,40l.371-.929-.775-.309A4.943,4.943,0,0,1,7.8,36.9L4.175,31.47A7.049,7.049,0,0,1,3,27.58V25.8a6.936,6.936,0,0,1,.673-3L10.354,8.7A7,7,0,0,1,14.687,5,11.047,11.047,0,0,0,13.6,7.052l-1.81,4.717a11.768,11.768,0,0,0,0,8.46l2.741,7.127,1.868-.717-2.743-7.13a9.77,9.77,0,0,1,0-7.021l1.809-4.715A9.072,9.072,0,0,1,23.87,2h2.155A4.971,4.971,0,0,0,25,5v9.47A6.952,6.952,0,0,1,23.722,18.5L17,28.055a6.862,6.862,0,0,0-.915,2.58l-.017-.007L12.443,39.7l-1.566-.628Zm5.2,11.732-1.254-.627A1,1,0,0,0,14,51a5.7,5.7,0,0,0-2.605.7l.211-2.328a25.459,25.459,0,0,1,2.307-7.965l-.006,0c.005-.012.017-.02.022-.033L16.278,35.5a5.536,5.536,0,0,0,5.7,4.5,14.356,14.356,0,0,1-.746,4.426L21.2,44.4ZM30,58c-.09,0-9-.058-9-5a12.006,12.006,0,0,1,1.333-6.036c.232-.5.466-1.009.683-1.58A15.951,15.951,0,0,0,23.983,40H36.017a15.576,15.576,0,0,0,1.651,6.957A12.043,12.043,0,0,1,39,53C39,57.93,30.089,58,30,58Z"/><path d="M61.169,44.826A7.527,7.527,0,0,1,60.176,43H61a1,1,0,0,0,1-1V36a1,1,0,0,0-1-1H60V33a6.374,6.374,0,0,0-1.7-3.6A5.247,5.247,0,0,1,57,27a1,1,0,0,0-1-1H52a1,1,0,0,0-1,1,5.247,5.247,0,0,1-1.3,2.4A6.374,6.374,0,0,0,48,33v2H47a1,1,0,0,0-1,1v6a1,1,0,0,0,1,1h.824a7.527,7.527,0,0,1-.993,1.826A8.613,8.613,0,0,0,45,50V61a3,3,0,0,0,3,3H60a3,3,0,0,0,3-3V50A8.613,8.613,0,0,0,61.169,44.826ZM50,33a5.247,5.247,0,0,1,1.3-2.4A9.077,9.077,0,0,0,52.842,28h2.316A9.077,9.077,0,0,0,56.7,30.6,5.247,5.247,0,0,1,58,33v2H57V32H55v3H53V32H51v3H50Zm-2,4H60v4H48Zm.491,8.942A7.887,7.887,0,0,0,49.9,43h8.2a7.887,7.887,0,0,0,1.408,2.942A6.643,6.643,0,0,1,61,50H51v2H61v5H47V52h2V50H47A6.643,6.643,0,0,1,48.491,45.942ZM60,62H48a1,1,0,0,1-1-1V59H61v2A1,1,0,0,1,60,62Z"/></g></svg>