<svg xmlns="http://www.w3.org/2000/svg" viewBox="0 0 64 64"><title>08-scissors</title><g id="_08-scissors" data-name="08-scissors"><polygon points="53 30 53 58 48 63 48 61 46 59 48 57 46 55 48 53 46 51 48 49 46 47 48 45 46 43 48 41 46 39 48 37 46 35 48 33 46 31 50 27 53 30" style="fill:#bec3d2"/><polygon points="50 27 46 31 44 33 44 63 39 58 39 30 42 27 50 27" style="fill:#cdd2e1"/><polygon points="18 33 14 37 11 34 11 6 16 1 16 31 18 33" style="fill:#bec3d2"/><polygon points="25 6 25 34 22 37 14 37 18 33 20 31 20 1 25 6" style="fill:#cdd2e1"/><polygon points="55 21 55 24 52 27 50 27 42 27 40 27 37 24 37 21 41 21 43 23 49 23 51 21 55 21" style="fill:#cdd2e1"/><polygon points="27 40 27 43 23 43 21 41 15 41 13 43 9 43 9 40 12 37 14 37 22 37 24 37 27 40" style="fill:#afb4c8"/><path d="M13,43V57c0-2.9-1.72-5.32-4-5.88V43Z" style="fill:#31c0e5"/><path d="M27,43v8.12c-2.28.56-4,2.98-4,5.88V43Z" style="fill:#31c0e5"/><path d="M41,7V21H37V12.88C39.28,12.32,41,9.9,41,7Z" style="fill:#31c0e5"/><path d="M51,7c0,2.9,1.72,5.32,4,5.88V21H51Z" style="fill:#31c0e5"/><path d="M58,7c0-1.66-.9-3-2-3s-2,1.34-2,3,.9,3,2,3S58,8.66,58,7ZM56,1c2.76,0,5,2.69,5,6s-2.24,6-5,6a4.148,4.148,0,0,1-1-.12C52.72,12.32,51,9.9,51,7,51,3.69,53.24,1,56,1Z" style="fill:#f9bbc6"/><path d="M38,7c0-1.66-.9-3-2-3s-2,1.34-2,3,.9,3,2,3S38,8.66,38,7ZM36,1c2.76,0,5,2.69,5,6,0,2.9-1.72,5.32-4,5.88A4.148,4.148,0,0,1,36,13c-2.76,0-5-2.69-5-6S33.24,1,36,1Z" style="fill:#f9bbc6"/><path d="M10,57c0-1.66-.9-3-2-3s-2,1.34-2,3,.9,3,2,3S10,58.66,10,57ZM9,51.12c2.28.56,4,2.98,4,5.88,0,3.31-2.24,6-5,6s-5-2.69-5-6,2.24-6,5-6A4.148,4.148,0,0,1,9,51.12Z" style="fill:#f9bbc6"/><path d="M28,60c1.1,0,2-1.34,2-3s-.9-3-2-3-2,1.34-2,3S26.9,60,28,60Zm0-9c2.76,0,5,2.69,5,6s-2.24,6-5,6-5-2.69-5-6c0-2.9,1.72-5.32,4-5.88A4.148,4.148,0,0,1,28,51Z" style="fill:#f9bbc6"/><polygon points="13 40 13 43 15 41 14 39 13 40" style="fill:#707789"/><polygon points="14 39 22 39 23 40 27 40 24 37 22 37 14 37 12 37 9 40 13 40 14 39" style="fill:#cdd2e1"/><polygon points="22 39 21 41 23 43 23 40 22 39" style="fill:#707789"/><polygon points="14 39 15 41 21 41 22 39 14 39" style="fill:#8a90a0"/><polygon points="51 24 51 21 49 23 50 25 51 24" style="fill:#afb4c8"/><polygon points="50 25 42 25 41 24 37 24 40 27 42 27 50 27 52 27 55 24 51 24 50 25" style="fill:#8a90a0"/><polygon points="42 25 43 23 41 21 41 24 42 25" style="fill:#afb4c8"/><polygon points="50 25 49 23 43 23 42 25 50 25" style="fill:#cdd2e1"/><polygon points="22 3 20 1 20 31 22 31 22 3" style="fill:#eef2fa"/><path d="M20.707,32.293,22,31H20l-2,2-4,4h8l3-3H21.414A1,1,0,0,1,20.707,32.293Z" style="fill:#7e8596"/><path d="M20.707,32.293A1,1,0,0,0,21.414,34H25V31H22Z" style="fill:#afb4c8"/><polygon points="42 61 44 63 44 33 42 33 42 61" style="fill:#eef2fa"/><path d="M43.293,31.707,42,33h2l2-2,4-4H42l-3,3h3.586A1,1,0,0,1,43.293,31.707Z" style="fill:#7e8596"/><path d="M43.293,31.707A1,1,0,0,0,42.586,30H39v3h3Z" style="fill:#afb4c8"/><polygon points="16 31 16 1 14 3 14 33 16 31" style="fill:#eef2fa"/><polygon points="16 31 14 33 13 34 11 34 14 37 18 33 16 31" style="fill:#afb4c8"/><path d="M11,48.382a1,1,0,0,1-1.447.894L9,49v2.12c2.28.56,4,2.98,4,5.88V43H11Z" style="fill:#2b8ffc"/><path d="M25,48.382V43H23V57c0-2.9,1.72-5.32,4-5.88V49l-.553.276A1,1,0,0,1,25,48.382Z" style="fill:#2b8ffc"/><path d="M53,15.618a1,1,0,0,1,1.447-.894L55,15V12.88C52.72,12.32,51,9.9,51,7V21h2Z" style="fill:#2b8ffc"/><path d="M39,15.618V21h2V7c0,2.9-1.72,5.32-4,5.88V15l.553-.276A1,1,0,0,1,39,15.618Z" style="fill:#2b8ffc"/><path d="M28,60c-1.1,0-2-1.34-2-3s.9-3,2-3,2,1.34,2,3S29.1,60,28,60Z" style="fill:#e0a3ab"/><path d="M56,10c-1.1,0-2-1.34-2-3s.9-3,2-3,2,1.34,2,3S57.1,10,56,10Z" style="fill:#e0a3ab"/><polygon points="51 28 50 27 46 31 48 31 51 28" style="fill:#afb4c8"/><path d="M28,50V40a1,1,0,0,0-.293-.707l-3-3a.982.982,0,0,0-.362-.224l1.362-1.362A1,1,0,0,0,26,34V15H24V33.586L21.586,36H16.414l4.293-4.293A1,1,0,0,0,21,31V3.414l3,3V9h2V6a1,1,0,0,0-.293-.707l-5-5A1,1,0,0,0,19,1V30.586l-5,5-2-2V6.414l3-3V31h2V1A1,1,0,0,0,15.293.293l-5,5A1,1,0,0,0,10,6V34a1,1,0,0,0,.293.707l1.362,1.362a.982.982,0,0,0-.362.224l-3,3A1,1,0,0,0,8,40V50c-3.309,0-6,3.14-6,7s2.691,7,6,7,6-3.14,6-7V43.414L15.414,42h5.172L22,43.414V57c0,3.86,2.691,7,6,7s6-3.14,6-7S31.309,50,28,50ZM8,62c-2.206,0-4-2.243-4-5s1.794-5,4-5a3.172,3.172,0,0,1,.761.091C10.638,52.552,12,54.617,12,57,12,59.757,10.206,62,8,62Zm2-11.581V44h2v7.8A5.856,5.856,0,0,0,10,50.419ZM21,40H15a1,1,0,0,0-.707.293L12.586,42H10V40.414L12.414,38H23.586L26,40.414V42H23.414l-1.707-1.707A1,1,0,0,0,21,40Zm3,4h2v6.419A5.873,5.873,0,0,0,24,51.8Zm4,18c-2.206,0-4-2.243-4-5,0-2.383,1.362-4.448,3.239-4.909h0A3.165,3.165,0,0,1,28,52c2.206,0,4,2.243,4,5S30.206,62,28,62Z"/><path d="M28,53c-1.682,0-3,1.757-3,4s1.318,4,3,4,3-1.757,3-4S29.682,53,28,53Zm0,6c-.4,0-1-.8-1-2s.6-2,1-2,1,.8,1,2S28.4,59,28,59Z"/><path d="M8,53c-1.682,0-3,1.757-3,4s1.318,4,3,4,3-1.757,3-4S9.682,53,8,53Zm0,6c-.4,0-1-.8-1-2s.6-2,1-2,1,.8,1,2S8.4,59,8,59Z"/><rect x="24" y="11" width="2" height="2"/><path d="M56,0c-3.309,0-6,3.14-6,7V20.586L48.586,22H43.414L42,20.586V7c0-3.86-2.691-7-6-7s-6,3.14-6,7,2.691,7,6,7a5.128,5.128,0,0,0,1.24-.149A5.714,5.714,0,0,0,40,12.2V20H38V15H36v9a1,1,0,0,0,.293.707l3,3a.982.982,0,0,0,.362.224l-1.362,1.362A1,1,0,0,0,38,30V58a1,1,0,0,0,.293.707l5,5A1,1,0,0,0,45,63V33.414l5-5,2,2V57.586l-3.063,3.063a1.01,1.01,0,0,0-.23-.356L47.414,59l1.293-1.293a1,1,0,0,0,0-1.414L47.414,55l1.293-1.293a1,1,0,0,0,0-1.414L47.414,51l1.293-1.293a1,1,0,0,0,0-1.414L47.414,47l1.293-1.293a1,1,0,0,0,0-1.414L47.414,43l1.293-1.293a1,1,0,0,0,0-1.414L47.414,39l1.293-1.293a1,1,0,0,0,0-1.414L47.414,35l1.293-1.293-1.414-1.414-2,2a1,1,0,0,0,0,1.414L46.586,37l-1.293,1.293a1,1,0,0,0,0,1.414L46.586,41l-1.293,1.293a1,1,0,0,0,0,1.414L46.586,45l-1.293,1.293a1,1,0,0,0,0,1.414L46.586,49l-1.293,1.293a1,1,0,0,0,0,1.414L46.586,53l-1.293,1.293a1,1,0,0,0,0,1.414L46.586,57l-1.293,1.293a1,1,0,0,0,0,1.414L47,61.414V63a1,1,0,0,0,1.707.707l5-5A1,1,0,0,0,54,58V30a1,1,0,0,0-.293-.707l-1.362-1.362a.982.982,0,0,0,.362-.224l3-3A1,1,0,0,0,56,24V15H54v5H52V12.2a5.7,5.7,0,0,0,2.757,1.647A5.1,5.1,0,0,0,56,14c3.309,0,6-3.14,6-7S59.309,0,56,0ZM36.761,11.909h0A3.165,3.165,0,0,1,36,12c-2.206,0-4-2.243-4-5s1.794-5,4-5,4,2.243,4,5C40,9.383,38.638,11.448,36.761,11.909Zm6.532,20.384A1,1,0,0,0,43,33V60.586l-3-3V30.414L42.414,28h5.172ZM54,23.586,51.586,26H40.414L38,23.586V22h2.586l1.707,1.707A1,1,0,0,0,43,24h6a1,1,0,0,0,.707-.293L51.414,22H54ZM56,12a3.172,3.172,0,0,1-.761-.091C53.362,11.448,52,9.383,52,7c0-2.757,1.794-5,4-5s4,2.243,4,5S58.206,12,56,12Z"/><path d="M36,3c-1.682,0-3,1.757-3,4s1.318,4,3,4,3-1.757,3-4S37.682,3,36,3Zm0,6c-.4,0-1-.8-1-2s.6-2,1-2,1,.8,1,2S36.4,9,36,9Z"/><path d="M56,3c-1.682,0-3,1.757-3,4s1.318,4,3,4,3-1.757,3-4S57.682,3,56,3Zm0,6c-.4,0-1-.8-1-2s.6-2,1-2,1,.8,1,2S56.4,9,56,9Z"/></g></svg>