<svg xmlns="http://www.w3.org/2000/svg" viewBox="0 0 64 64"><title>17-nail trimming</title><g id="_17-nail_trimming" data-name="17-nail trimming"><path d="M50,29a14.285,14.285,0,0,0-.56-3.89A7.787,7.787,0,0,0,52,19c0-3.87-2.24-7-5-7a3.8,3.8,0,0,0-2.03.61c.02-.2.03-.41.03-.61A6.994,6.994,0,0,0,32,8.41,6.994,6.994,0,0,0,19,12c0,.2.01.41.03.61A3.8,3.8,0,0,0,17,12c-2.76,0-5,3.13-5,7a7.787,7.787,0,0,0,2.56,6.11A14.285,14.285,0,0,0,14,29a15.575,15.575,0,0,0,7.84,13.2c-.144,1.453-.373,2.858-.627,4.314A101.8,101.8,0,0,0,19.078,63H44.922a101.8,101.8,0,0,0-2.135-16.486c-.254-1.456-.483-2.861-.627-4.314A15.575,15.575,0,0,0,50,29Z" style="fill:#f2cfa9"/><path d="M51,14.8A4.727,4.727,0,0,0,47,12l2-4S50.95,9.95,51,14.8Z" style="fill:#e1f1fa"/><path d="M38,1a6.538,6.538,0,0,1,2.97,4.67,6.918,6.918,0,0,0-5.94,0A6.538,6.538,0,0,1,38,1Z" style="fill:#e1f1fa"/><path d="M26,1a6.538,6.538,0,0,1,2.97,4.67,6.918,6.918,0,0,0-5.94,0A6.538,6.538,0,0,1,26,1Z" style="fill:#e1f1fa"/><path d="M15,8l2,4a4.727,4.727,0,0,0-4,2.8C13.05,9.95,15,8,15,8Z" style="fill:#e1f1fa"/><ellipse cx="17" cy="19" rx="2" ry="3" style="fill:#f9bbc6"/><circle cx="26" cy="12" r="3" style="fill:#f9bbc6"/><circle cx="38" cy="12" r="3" style="fill:#f9bbc6"/><ellipse cx="47" cy="19" rx="2" ry="3" style="fill:#f9bbc6"/><path d="M38,28c3.31,0,6,2.24,6,5s-2.69,5-6,5c-2.91,0-5.33-1.72-5.88-4.01-.04,0-.08.01-.12.01s-.08-.01-.12-.01C31.33,36.28,28.91,38,26,38c-3.31,0-6-2.24-6-5s2.69-5,6-5a6,6,0,0,1,12,0Z" style="fill:#f2aab5"/><path d="M42.787,47.514c-.122-.7-.236-1.383-.34-2.068-.094-.624-.171-1.252-.241-1.884A6.64,6.64,0,0,1,38,45c-2.91,0-5.33-1.72-5.88-4.01-.04,0-.08.01-.12.01s-.08-.01-.12-.01C31.33,43.28,28.91,45,26,45a6.642,6.642,0,0,1-4.206-1.438v.006c-.145,1.322-.349,2.614-.581,3.946a107.339,107.339,0,0,0-2.04,14.6l0,.072c-.015.263-.026.542-.04.811H44.876A104.556,104.556,0,0,0,42.787,47.514Z" style="fill:#e9b789"/><path d="M39,55v5l-2,2H30l-2-2V57h3a1.959,1.959,0,0,0,2,2,3.7,3.7,0,0,0,3-2V53a3.7,3.7,0,0,0-3-2,1.959,1.959,0,0,0-2,2H28V50l2-2h7l2,2v5Z" style="fill:#cdd2e1"/><path d="M39,55s2,4,5,4,8-1,10-1,2,3,2,3a1.959,1.959,0,0,1-2,2c-2,0-12-1-12-1l-3-3Z" style="fill:#31c0e5"/><path d="M44,51c-3,0-5,4-5,4V51l3-3s10-1,12-1a1.959,1.959,0,0,1,2,2s0,3-2,3S47,51,44,51Z" style="fill:#31c0e5"/><path d="M47,22c-.866,0-1.6-.836-1.877-2A4.285,4.285,0,0,0,45,21c0,1.66.9,3,2,3s2-1.34,2-3a4.285,4.285,0,0,0-.123-1C48.6,21.164,47.866,22,47,22Z" style="fill:#e9b789"/><path d="M38,13a2.986,2.986,0,0,1-2.817-2,3,3,0,1,0,5.634,0A2.986,2.986,0,0,1,38,13Z" style="fill:#f2aab5"/><path d="M26,13a2.986,2.986,0,0,1-2.817-2,3,3,0,1,0,5.634,0A2.986,2.986,0,0,1,26,13Z" style="fill:#f2aab5"/><path d="M26,31a6,6,0,0,1,12,0,5.989,5.989,0,0,1,5.724,3.5A4.228,4.228,0,0,0,44,33c0-2.76-2.69-5-6-5a6,6,0,0,0-12,0c-3.31,0-6,2.24-6,5a4.228,4.228,0,0,0,.276,1.5A5.989,5.989,0,0,1,26,31Z" style="fill:#f9bbc6"/><path d="M17,15a3.8,3.8,0,0,1,2.03.61c-.02-.2-.03-.41-.03-.61a6.994,6.994,0,0,1,13-3.59A6.994,6.994,0,0,1,45,15c0,.2-.01.41-.03.61A3.8,3.8,0,0,1,47,15c2.385,0,4.379,2.34,4.877,5.473A9.565,9.565,0,0,0,52,19c0-3.87-2.24-7-5-7a3.8,3.8,0,0,0-2.03.61c.02-.2.03-.41.03-.61A6.994,6.994,0,0,0,32,8.41,6.994,6.994,0,0,0,19,12c0,.2.01.41.03.61A3.8,3.8,0,0,0,17,12c-2.76,0-5,3.13-5,7a9.565,9.565,0,0,0,.123,1.473C12.621,17.34,14.615,15,17,15Z" style="fill:#ffe2c2"/><path d="M38,15a2.986,2.986,0,0,1-2.817-2,3,3,0,1,0,5.634,0A2.986,2.986,0,0,1,38,15Z" style="fill:#e9b789"/><path d="M26,15a2.986,2.986,0,0,1-2.817-2,3,3,0,1,0,5.634,0A2.986,2.986,0,0,1,26,15Z" style="fill:#e9b789"/><path d="M47,20c-.866,0-1.6-.836-1.877-2A4.285,4.285,0,0,0,45,19c0,1.66.9,3,2,3s2-1.34,2-3a4.285,4.285,0,0,0-.123-1C48.6,19.164,47.866,20,47,20Z" style="fill:#f2aab5"/><path d="M17,20c-.866,0-1.6-.836-1.877-2A4.285,4.285,0,0,0,15,19c0,1.66.9,3,2,3s2-1.34,2-3a4.285,4.285,0,0,0-.123-1C18.6,19.164,17.866,20,17,20Z" style="fill:#f2aab5"/><path d="M17,22c-.866,0-1.6-.836-1.877-2A4.285,4.285,0,0,0,15,21c0,1.66.9,3,2,3s2-1.34,2-3a4.285,4.285,0,0,0-.123-1C18.6,21.164,17.866,22,17,22Z" style="fill:#e9b789"/><path d="M38,38c-2.91,0-5.33-1.72-5.88-4.01-.04,0-.08.01-.12.01s-.08-.01-.12-.01C31.33,36.28,28.91,38,26,38a5.989,5.989,0,0,1-5.724-3.5A4.228,4.228,0,0,0,20,36c0,2.76,2.69,5,6,5,2.91,0,5.33-1.72,5.88-4.01.04,0,.08.01.12.01s.08-.01.12-.01C32.67,39.28,35.09,41,38,41c3.31,0,6-2.24,6-5a4.228,4.228,0,0,0-.276-1.5A5.989,5.989,0,0,1,38,38Z" style="fill:#e9b789"/><path d="M44,61c3,0,8-1,10-1,1.128,0,1.62.954,1.834,1.786A2.713,2.713,0,0,0,56,61s0-3-2-3-7,1-10,1-5-4-5-4v2S41,61,44,61Z" style="fill:#1da7ea"/><path d="M44,51c3,0,8,1,10,1s2-3,2-3a2.713,2.713,0,0,0-.166-.786C55.62,49.046,55.128,50,54,50c-2,0-7-1-10-1s-5,4-5,4v2S41,51,44,51Z" style="fill:#1da7ea"/><path d="M33,51a1.959,1.959,0,0,0-2,2H28v2h3a1.959,1.959,0,0,1,2-2,3.7,3.7,0,0,1,3,2V53A3.7,3.7,0,0,0,33,51Z" style="fill:#d99c64"/><path d="M39,55a10.016,10.016,0,0,0,.606,1c.778-1.142,2.263-2.86,4.181-2.983-.114-.681-.23-1.335-.346-1.97C40.754,51.493,39,55,39,55Z" style="fill:#d99c64"/><path d="M44.834,62.275C43.192,62.119,42,62,42,62l-3-3v1l-2,2H30l-2-2v2l1,1h9l1-1V61l2,2h3.876C44.863,62.753,44.848,62.516,44.834,62.275Z" style="fill:#d99c64"/><ellipse cx="34.684" cy="27.695" rx="1.642" ry="2.286" transform="translate(-9.423 32.652) rotate(-45.02)" style="fill:#f6fafd"/><ellipse cx="24.682" cy="33.708" rx="0.825" ry="1.148" transform="translate(-16.608 27.34) rotate(-45.02)" style="fill:#f6fafd"/><rect x="37" y="52" width="2" height="6" rx="1" ry="1" style="fill:#e9edf5"/><ellipse cx="53.682" cy="48.708" rx="0.825" ry="1.148" transform="translate(-18.718 52.25) rotate(-45.02)" style="fill:#f6fafd"/><ellipse cx="53.682" cy="60.708" rx="0.825" ry="1.148" transform="translate(-27.206 55.767) rotate(-45.02)" style="fill:#f6fafd"/><ellipse cx="51.427" cy="48.208" rx="0.413" ry="0.574" transform="translate(-19.025 50.509) rotate(-45.02)" style="fill:#f6fafd"/><path d="M32,36.09A7.333,7.333,0,0,0,38,39c3.859,0,7-2.691,7-6,0-3.037-2.645-5.553-6.063-5.947a7,7,0,0,0-13.874,0C21.645,27.447,19,29.963,19,33c0,3.309,3.141,6,7,6A7.333,7.333,0,0,0,32,36.09Zm-1.093-2.333C30.456,35.636,28.393,37,26,37c-2.757,0-5-1.794-5-4s2.243-4,5-4a1,1,0,0,0,1-1,5,5,0,0,1,10,0,1,1,0,0,0,1,1c2.757,0,5,1.794,5,4s-2.243,4-5,4c-2.393,0-4.456-1.364-4.907-3.243a1,1,0,0,0-.973-.767c-.041,0-.081,0-.124.007s-.091-.007-.116-.007A1,1,0,0,0,30.907,33.757Z"/><path d="M22,12a4,4,0,1,0,4-4A4,4,0,0,0,22,12Zm6,0a2,2,0,1,1-2-2A2,2,0,0,1,28,12Z"/><path d="M17,15c-1.683,0-3,1.757-3,4s1.317,4,3,4,3-1.757,3-4S18.683,15,17,15Zm0,6c-.4,0-1-.8-1-2s.6-2,1-2,1,.8,1,2S17.4,21,17,21Z"/><path d="M50,19c0-2.243-1.317-4-3-4s-3,1.757-3,4,1.317,4,3,4S50,21.243,50,19Zm-3,2c-.4,0-1-.8-1-2s.6-2,1-2,1,.8,1,2S47.4,21,47,21Z"/><path d="M38,8a4,4,0,1,0,4,4A4,4,0,0,0,38,8Zm0,6a2,2,0,1,1,2-2A2,2,0,0,1,38,14Z"/><path d="M21.829,48.665c.127-.676.25-1.333.365-1.978.245-1.37.493-2.848.641-4.391a1,1,0,0,0-.475-.95A14.589,14.589,0,0,1,15,29a13.387,13.387,0,0,1,.522-3.619,1,1,0,0,0-.345-1.058A6.811,6.811,0,0,1,13,19a7.883,7.883,0,0,1,.882-3.728c1.089-2.035,3.013-2.823,4.616-1.815a1,1,0,0,0,1.527-.949A5.082,5.082,0,0,1,20,12,6,6,0,0,1,31.142,8.922a1.037,1.037,0,0,0,1.716,0A6,6,0,0,1,44,12a5.082,5.082,0,0,1-.025.508,1,1,0,0,0,1.527.949c1.606-1.007,3.527-.22,4.617,1.817A7.881,7.881,0,0,1,51,19a6.811,6.811,0,0,1-2.177,5.323,1,1,0,0,0-.345,1.058A13.387,13.387,0,0,1,49,29a14.589,14.589,0,0,1-7.36,12.346,1,1,0,0,0-.475.949c.082.864.206,1.8.378,2.865l1.975-.32c-.127-.785-.224-1.475-.3-2.126A16.487,16.487,0,0,0,51,29a15.061,15.061,0,0,0-.437-3.549A9.141,9.141,0,0,0,53,19a9.93,9.93,0,0,0-1.008-4.429c-.112-5.037-2.2-7.188-2.285-7.278a1,1,0,0,0-1.6.26l-1.758,3.516c-.132.019-.264.023-.4.055a7.975,7.975,0,0,0-4.072-6.1A7.526,7.526,0,0,0,38.555.168a1,1,0,0,0-1.11,0A7.531,7.531,0,0,0,34.12,5.023,7.906,7.906,0,0,0,32,6.717a7.934,7.934,0,0,0-2.122-1.7A7.532,7.532,0,0,0,26.555.168a1,1,0,0,0-1.11,0,7.53,7.53,0,0,0-3.327,4.863,7.984,7.984,0,0,0-4.069,6.093c-.132-.031-.264-.036-.4-.055L15.9,7.553a1,1,0,0,0-1.6-.26c-.09.09-2.17,2.238-2.285,7.277A9.941,9.941,0,0,0,11,19a9.141,9.141,0,0,0,2.437,6.451A15.061,15.061,0,0,0,13,29a16.489,16.489,0,0,0,7.78,13.714c-.143,1.257-.349,2.476-.554,3.62-.115.642-.237,1.293-.363,1.963a91.517,91.517,0,0,0-1.782,14.665,1,1,0,0,0,1,1.038H26V62H20.125A90.587,90.587,0,0,1,21.829,48.665ZM49.092,10.052a9.854,9.854,0,0,1,.585,1.815,5.259,5.259,0,0,0-1.189-.607ZM38,2.246a5.642,5.642,0,0,1,1.485,1.907,8.027,8.027,0,0,0-2.972,0A5.641,5.641,0,0,1,38,2.246Zm-12,0a5.623,5.623,0,0,1,1.485,1.908,8.027,8.027,0,0,0-2.972,0A5.641,5.641,0,0,1,26,2.246ZM15.512,11.259a5.289,5.289,0,0,0-1.188.606,9.911,9.911,0,0,1,.584-1.813Z"/><path d="M54,57a38.026,38.026,0,0,0-4.194.434A50.2,50.2,0,0,1,44,58c-1.684,0-3.17-1.871-3.851-2.994C40.717,54.079,42.189,52,44,52a50.2,50.2,0,0,1,5.806.566A38.026,38.026,0,0,0,54,53c2.373,0,3-2.616,3-4a2.916,2.916,0,0,0-3-3c-2.026,0-11.689.964-12.1,1.005a1,1,0,0,0-.607.288L39.5,49.086l-1.793-1.793A1,1,0,0,0,37,47H34v2h2.586L38,50.414v9.172L36.586,61H30.414L29,59.586V58h1.167A2.818,2.818,0,0,0,33,60a4.693,4.693,0,0,0,3.9-2.553A1,1,0,0,0,37,57V53a1,1,0,0,0-.1-.447A4.693,4.693,0,0,0,33,50a2.818,2.818,0,0,0-2.833,2H29V50.414L30.414,49H32V47H30a1,1,0,0,0-.707.293l-2,2A1,1,0,0,0,27,50v3a1,1,0,0,0,1,1h3a1.012,1.012,0,0,0,1-.988A.918.918,0,0,1,33,52a2.572,2.572,0,0,1,2,1.272v3.456A2.572,2.572,0,0,1,33,58a.915.915,0,0,1-1-1,1,1,0,0,0-1-1H28a1,1,0,0,0-1,1v3a1,1,0,0,0,.293.707l2,2A1,1,0,0,0,30,63h7a1,1,0,0,0,.707-.293L39.5,60.914l1.793,1.793A1,1,0,0,0,41.9,63C42.311,63.036,51.974,64,54,64a2.916,2.916,0,0,0,3-3C57,59.616,56.373,57,54,57ZM42.454,48.96C44.247,48.783,52.281,48,54,48a.914.914,0,0,1,1,1c0,.02-.056,2-1,2a38.342,38.342,0,0,1-3.928-.416A51.436,51.436,0,0,0,44,50a5.722,5.722,0,0,0-4,1.944v-.53ZM54,62c-1.719,0-9.753-.783-11.546-.96L40,58.586v-.53A5.722,5.722,0,0,0,44,60a51.436,51.436,0,0,0,6.072-.584A38.342,38.342,0,0,1,54,59c.944,0,1,1.983,1,1.988A.918.918,0,0,1,54,62Z"/></g></svg>