<svg xmlns="http://www.w3.org/2000/svg" viewBox="0 0 64 64"><title>21-anti flea</title><g id="_21-anti_flea" data-name="21-anti flea"><circle cx="18" cy="47" r="13" style="fill:#fafcff"/><rect x="28" y="31" width="34" height="24" style="fill:#fecfd5"/><polygon points="36 15 36 19 54 19 54 15 47 15 43 15 36 15" style="fill:#fecfd5"/><polygon points="29 5 32 8 35 5 39 5 39 1 33 1 29 5" style="fill:#fecfd5"/><polygon points="42 5 42 9 43 9 47 9 48 9 48 5 42 5" style="fill:#fecfd5"/><polygon points="39 1 39 5 42 5 48 5 51 5 51 1 39 1" style="fill:#7dd5f5"/><rect x="43" y="9" width="4" height="6" style="fill:#31c0e5"/><polygon points="28 59 28 63 62 63 62 55 28 55 28 59" style="fill:#31c0e5"/><path d="M28,27v4H62V27a8,8,0,0,0-8-8H36A8,8,0,0,0,28,27Z" style="fill:#31c0e5"/><circle cx="45" cy="43" r="12" style="fill:#e68d79"/><circle cx="45" cy="43" r="8" style="fill:#af7a58"/><path d="M23,49a4.941,4.941,0,0,1-1,3,5,5,0,0,1-7,1l-.08-.08,8-8L23,45v4Z" style="fill:#80dbff"/><path d="M18,40a4.985,4.985,0,0,1,3,1l.09.09-8,8L13,49V45A5,5,0,0,1,18,40Z" style="fill:#80dbff"/><path d="M31,15a3,3,0,0,1-6,0c0-1.66,3-5,3-5S31,13.34,31,15Z" style="fill:#fecfd5"/><path d="M23,23a3,3,0,0,1-6,0c0-1.66,3-5,3-5S23,21.34,23,23Z" style="fill:#fecfd5"/><rect x="13" y="40" width="10" height="14" rx="5" ry="5" style="fill:#349c9d"/><path d="M18,51a5,5,0,0,1-5-5v3a5,5,0,0,0,10,0V46A5,5,0,0,1,18,51Z" style="fill:#287585"/><path d="M18,40a5,5,0,0,0-5,5v3a5,5,0,0,1,10,0V45A5,5,0,0,0,18,40Z" style="fill:#43ae9b"/><rect x="28" y="31" width="34" height="24" style="fill:#fecfd5"/><polygon points="36 15 36 19 54 19 54 15 47 15 43 15 36 15" style="fill:#fecfd5"/><polygon points="29 5 32 8 35 5 39 5 39 1 33 1 29 5" style="fill:#fecfd5"/><polygon points="42 5 42 9 43 9 47 9 48 9 48 5 42 5" style="fill:#fecfd5"/><path d="M17,23a3,3,0,0,0,6,0c0-1.66-3-5-3-5S17,21.34,17,23Z" style="fill:#fecfd5"/><path d="M25,15a3,3,0,0,0,6,0c0-1.66-3-5-3-5S25,13.34,25,15Z" style="fill:#fecfd5"/><polygon points="39 1 39 5 42 5 48 5 51 5 51 1 39 1" style="fill:#7dd5f5"/><polygon points="28 59 28 63 62 63 62 55 28 55 28 59" style="fill:#31c0e5"/><path d="M28,27v4H62V27a8,8,0,0,0-8-8H36A8,8,0,0,0,28,27Z" style="fill:#31c0e5"/><circle cx="45" cy="43" r="12" style="fill:#f2aab5"/><circle cx="45" cy="43" r="8" style="fill:#8cb8f5"/><path d="M44,15h2V11a1,1,0,0,0-1-1h0a1,1,0,0,0-1,1Z" style="fill:#7dd5f5"/><rect x="43" y="9" width="4" height="6" style="fill:#31c0e5"/><path d="M30,13a2.081,2.081,0,0,0-.082-.513A5.519,5.519,0,0,1,31,15a2.993,2.993,0,0,1-5.976.244A2.989,2.989,0,0,0,30,13Z" style="fill:#f3afba"/><path d="M22,21a2.081,2.081,0,0,0-.082-.513A5.519,5.519,0,0,1,23,23a2.993,2.993,0,0,1-5.976.244A2.989,2.989,0,0,0,22,21Z" style="fill:#f3afba"/><rect x="58" y="31" width="4" height="24" style="fill:#fed9d8"/><rect x="28" y="31" width="4" height="24" style="fill:#fed9d8"/><rect x="58" y="55" width="4" height="8" style="fill:#7dd5f5"/><rect x="28" y="55" width="4" height="8" style="fill:#7dd5f5"/><path d="M32,27v4H28V27a8,8,0,0,1,8-8h4A8,8,0,0,0,32,27Z" style="fill:#7dd5f5"/><path d="M58,27a8,8,0,0,0-8-8h4a8,8,0,0,1,8,8v4H58Z" style="fill:#7dd5f5"/><path d="M54,15H51v1a2,2,0,0,1-2,2H41a2,2,0,0,1-2-2V15H36v4H54Z" style="fill:#f3afba"/><path d="M46,9V8a2,2,0,0,0-2-2H42V5h6V9Z" style="fill:#f3afba"/><path d="M49,1V2a2,2,0,0,1-2,2H43a2,2,0,0,1-2-2V1H39V5H51V1Z" style="fill:#31c0e5"/><polygon points="33 1 34 3 30.5 6.5 29 5 33 1" style="fill:#fecfd5"/><path d="M36,3a1,1,0,0,0,1-1V1h2V5H35L34,3Z" style="fill:#e0a3ab"/><polygon points="35 5 32 8 30.5 6.5 34 3 35 5" style="fill:#f3afba"/><ellipse cx="36.316" cy="23.695" rx="2.286" ry="1.642" transform="translate(-6.121 32.605) rotate(-44.98)" style="fill:#f6fafd"/><ellipse cx="38.318" cy="26.708" rx="1.148" ry="0.825" transform="translate(-7.665 34.902) rotate(-44.98)" style="fill:#f6fafd"/><ellipse cx="19.318" cy="22.708" rx="1.148" ry="0.825" transform="translate(-10.398 20.301) rotate(-44.98)" style="fill:#f6fafd"/><ellipse cx="27.318" cy="14.708" rx="1.148" ry="0.825" transform="translate(-2.402 23.615) rotate(-44.98)" style="fill:#f6fafd"/><ellipse cx="47.573" cy="24.208" rx="0.574" ry="0.413" transform="translate(-3.19 40.712) rotate(-44.98)" style="fill:#f6fafd"/><path d="M50,41a1.993,1.993,0,0,0-1.768,1.084c-.075-.123-.154-.242-.239-.358A2,2,0,1,0,45,40a2,2,0,1,0-2.993,1.726c-.085.116-.164.235-.239.358a2,2,0,1,0-.762,2.636C41.036,46.892,42.81,48,45,48s3.964-1.108,3.994-3.28A2,2,0,1,0,50,41Z" style="fill:#e9b789"/><circle cx="47" cy="40" r="1" style="fill:#ffc9bd"/><circle cx="43" cy="40" r="1" style="fill:#ffc9bd"/><circle cx="50" cy="43" r="1" style="fill:#ffc9bd"/><circle cx="40" cy="43" r="1" style="fill:#ffc9bd"/><path d="M48,44.5c0,1.657-1.343,2.5-3,2.5s-3-.843-3-2.5S43.343,41,45,41,48,42.843,48,44.5Z" style="fill:#ffc9bd"/><path d="M46,43a1,1,0,0,0-2,0,1,1,0,0,0-1,1,2,2,0,0,0,4,0A1,1,0,0,0,46,43Z" style="fill:#faa592"/><path d="M31,47a12.893,12.893,0,0,0-2.51-7.66l-5.57,5.58-8,8-4.58,4.57A12.986,12.986,0,0,0,31,47ZM18,63a15.984,15.984,0,1,1,14.07-8.37A16,16,0,0,1,18,63Zm7.66-26.49A12.986,12.986,0,0,0,7.51,54.66l5.58-5.57,8-8Z" style="fill:#e68d79"/><path d="M32.949,55.106A17.058,17.058,0,0,0,35,47a16.985,16.985,0,1,0-2.051,8.106ZM18,62a15,15,0,0,1,0-30,14.848,14.848,0,0,1,9.14,3.1h0A15,15,0,0,1,18,62Z"/><path d="M13.8,49.8,26.368,37.216a1,1,0,0,0-.116-1.512A13.842,13.842,0,0,0,18,33,14.015,14.015,0,0,0,4,47a13.846,13.846,0,0,0,2.7,8.252,1,1,0,0,0,.73.4c.025,0,.05,0,.076,0a1,1,0,0,0,.706-.292L13.8,49.8Zm.2-3.04V45a3.977,3.977,0,0,1,5.468-3.71ZM7.667,53.09A11.853,11.853,0,0,1,6,47,12.013,12.013,0,0,1,18,35a11.85,11.85,0,0,1,6.09,1.667L20.961,39.8A5.936,5.936,0,0,0,18,39a6,6,0,0,0-5.65,4h-.936L9.707,41.293,8.293,42.707l2,2A1,1,0,0,0,11,45h1v2H9v2h2.757Z"/><path d="M29.3,38.748a1,1,0,0,0-.731-.4.986.986,0,0,0-.782.291L9.633,56.782A1,1,0,0,0,9.748,58.3,13.842,13.842,0,0,0,18,61,14.015,14.015,0,0,0,32,47,13.846,13.846,0,0,0,29.3,38.748ZM21.2,51.4A4.027,4.027,0,0,1,18,53a3.968,3.968,0,0,1-1.463-.288L22,47.253V49A3.924,3.924,0,0,1,21.2,51.4ZM18,59a11.852,11.852,0,0,1-6.088-1.666l3.13-3.128A5.936,5.936,0,0,0,18,55a6.035,6.035,0,0,0,4.461-2h1.125l1.707,1.707,1.414-1.414-2-2A1,1,0,0,0,24,51h-.346A5.989,5.989,0,0,0,24,49h3V47H24V45.253l4.334-4.341A11.854,11.854,0,0,1,30,47,12.013,12.013,0,0,1,18,59Z"/><path d="M55,18.059V15a1,1,0,0,0-1-1H48V10a1,1,0,0,0,1-1V6h2a1,1,0,0,0,1-1V1a1,1,0,0,0-1-1H33a1,1,0,0,0-.707.293l-4,4a1,1,0,0,0,0,1.414l3,3a1,1,0,0,0,1.414,0L35.414,6H41V9a1,1,0,0,0,1,1v4H36a1,1,0,0,0-1,1v3.059A9.01,9.01,0,0,0,27,27v2h2V27a7.008,7.008,0,0,1,7-7H54a7.008,7.008,0,0,1,7,7v3H28v2H38.075a12.9,12.9,0,0,0-1.742,1.3l1.334,1.49a11.005,11.005,0,1,1,0,16.4l-1.334,1.491A13,13,0,0,0,38.087,54H35v2H61v6H28v2H62a1,1,0,0,0,1-1V52H61v2H51.9a12.964,12.964,0,0,0,0-22H61V46h2V27A9.01,9.01,0,0,0,55,18.059ZM35,4a1,1,0,0,0-.707.293L32,6.586,30.414,5l3-3H38V4Zm5-2H50V4H40Zm7,4V8H43V6Zm-3,4h2v4H44Zm9,6v2H37V16Z"/><rect x="61" y="48" width="2" height="2"/><path d="M45,52a9,9,0,1,0-9-9A9.01,9.01,0,0,0,45,52Zm0-16a7,7,0,1,1-7,7A7.008,7.008,0,0,1,45,36Z"/><path d="M28,19a4,4,0,0,0,4-4c0-1.944-2.712-5.062-3.256-5.668a1.033,1.033,0,0,0-1.488,0C26.712,9.938,24,13.056,24,15A4,4,0,0,0,28,19Zm0-7.452c1.062,1.332,2,2.831,2,3.452a2,2,0,0,1-4,0C26,14.361,26.939,12.873,28,11.548Z"/><path d="M20,27a4,4,0,0,0,4-4c0-1.944-2.712-5.062-3.256-5.668a1.033,1.033,0,0,0-1.488,0C18.712,17.938,16,21.056,16,23A4,4,0,0,0,20,27Zm0-7.452c1.062,1.332,2,2.831,2,3.452a2,2,0,0,1-4,0C18,22.361,18.939,20.873,20,19.548Z"/></g></svg>