<svg xmlns="http://www.w3.org/2000/svg" viewBox="0 0 64 64"><title>28-pet grooming</title><g id="_28-pet_grooming" data-name="28-pet grooming"><path d="M14,23v5a3,3,0,0,1-6,0V23Z" style="fill:#b5d4ff"/><path d="M26,23v5a3,3,0,0,1-6,0V23Z" style="fill:#b5d4ff"/><path d="M38,23v5a3,3,0,0,1-6,0V23Z" style="fill:#b5d4ff"/><path d="M50,23v5a3,3,0,0,1-6,0V23Z" style="fill:#b5d4ff"/><path d="M62,23v5a3,3,0,0,1-6,0V23Z" style="fill:#b5d4ff"/><path d="M56,23v5a3,3,0,0,1-6,0V23Z" style="fill:#8a8dff"/><path d="M44,23v5a3,3,0,0,1-6,0V23Z" style="fill:#8a8dff"/><path d="M32,23v5a3,3,0,0,1-6,0V23Z" style="fill:#8a8dff"/><path d="M20,23v5a3,3,0,0,1-6,0V23Z" style="fill:#8a8dff"/><path d="M8,23v5a3,3,0,0,1-6,0V23Z" style="fill:#8a8dff"/><path d="M27,35V63H9V35ZM23,47V39H13v8Z" style="fill:#c98c65"/><rect x="31" y="45" width="24" height="4" style="fill:#7baef5"/><polygon points="58 6 62 19 2 19 6 6 18 6 18 15 46 15 46 6 58 6" style="fill:#fecfd5"/><path d="M59,31V63H27V35H9V63H5V31a3,3,0,0,0,3-3,3,3,0,0,0,6,0,3,3,0,0,0,6,0,3,3,0,0,0,6,0,3,3,0,0,0,6,0,3,3,0,0,0,6,0,3,3,0,0,0,6,0,3,3,0,0,0,6,0,3,3,0,0,0,6,0A3,3,0,0,0,59,31ZM55,49V35H31V49Z" style="fill:#fecfd5"/><rect x="13" y="39" width="10" height="8" style="fill:#82dfff"/><rect x="31" y="35" width="24" height="10" style="fill:#82dfff"/><polygon points="46 6 46 15 18 15 18 6 18 1 46 1 46 6" style="fill:#a8cdff"/><rect x="1" y="19" width="62" height="4" style="fill:#eba5af"/><polygon points="31 35 41 45 50 45 40 35 31 35" style="fill:#82dfff"/><polygon points="31 45 41 45 31 35 31 45" style="fill:#b5ecff"/><polygon points="55 35 45 35 55 45 55 35" style="fill:#82dfff"/><polygon points="45 35 40 35 50 45 55 45 45 35" style="fill:#b5ecff"/><polygon points="13 44 16 47 21 47 13 39 13 44" style="fill:#b5ecff"/><polygon points="13 47 16 47 13 44 13 47" style="fill:#82dfff"/><polygon points="23 45 17 39 13 39 21 47 23 47 23 45" style="fill:#82dfff"/><polygon points="23 39 17 39 23 45 23 39" style="fill:#b5ecff"/><path d="M56,28a3,3,0,0,1-6,0,3,3,0,0,1-6,0,3,3,0,0,1-6,0,3,3,0,0,1-6,0,3,3,0,0,1-6,0,3,3,0,0,1-6,0,3,3,0,0,1-6,0,3,3,0,0,1-6,0,3,3,0,0,1-3,3v3a3,3,0,0,0,3-3,3,3,0,0,0,6,0,3,3,0,0,0,6,0,3,3,0,0,0,6,0,3,3,0,0,0,6,0,3,3,0,0,0,6,0,3,3,0,0,0,6,0,3,3,0,0,0,6,0,3,3,0,0,0,6,0,3,3,0,0,0,3,3V31A3,3,0,0,1,56,28Z" style="fill:#eba5af"/><path d="M4,19H4a2,2,0,0,0,2,2H58a2,2,0,0,0,2-2h3v4H1V19Z" style="fill:#ce98a2"/><rect x="16" y="6" width="2" height="9" style="fill:#eba5af"/><rect x="46" y="6" width="2" height="9" style="fill:#eba5af"/><path d="M18,1V15H46V1ZM45,14H19V2H45Z" style="fill:#71a2e6"/><path d="M35,9.5c0,1.657-1.343,2.5-3,2.5s-3-.843-3-2.5S30.343,6,32,6,35,7.843,35,9.5Z" style="fill:#ffc9bd"/><circle cx="34" cy="5" r="1" style="fill:#ffc9bd"/><circle cx="30" cy="5" r="1" style="fill:#ffc9bd"/><circle cx="37" cy="8" r="1" style="fill:#ffc9bd"/><circle cx="27" cy="8" r="1" style="fill:#ffc9bd"/><path d="M61,24h1V23H56v5a3,3,0,0,0,3,3V26A2,2,0,0,1,61,24Z" style="fill:#8cb8f5"/><path d="M49,24h1V23H44v5a3,3,0,0,0,3,3V26A2,2,0,0,1,49,24Z" style="fill:#8cb8f5"/><path d="M37,24h1V23H32v5a3,3,0,0,0,3,3V26A2,2,0,0,1,37,24Z" style="fill:#8cb8f5"/><path d="M25,24h1V23H20v5a3,3,0,0,0,3,3V26A2,2,0,0,1,25,24Z" style="fill:#8cb8f5"/><path d="M13,24h1V23H8v5a3,3,0,0,0,3,3V26A2,2,0,0,1,13,24Z" style="fill:#8cb8f5"/><path d="M55,24h1V23H50v5a3,3,0,0,0,3,3V26A2,2,0,0,1,55,24Z" style="fill:#696cd1"/><path d="M43,24h1V23H38v5a3,3,0,0,0,3,3V26A2,2,0,0,1,43,24Z" style="fill:#696cd1"/><path d="M31,24h1V23H26v5a3,3,0,0,0,3,3V26A2,2,0,0,1,31,24Z" style="fill:#696cd1"/><path d="M19,24h1V23H14v5a3,3,0,0,0,3,3V26A2,2,0,0,1,19,24Z" style="fill:#696cd1"/><path d="M7,24H8V23H2v5a3,3,0,0,0,3,3V26A2,2,0,0,1,7,24Z" style="fill:#696cd1"/><path d="M23,38H13a1,1,0,0,0-1,1v8a1,1,0,0,0,1,1H23a1,1,0,0,0,1-1V39A1,1,0,0,0,23,38Zm0,9H13V39H23Z" style="fill:#9a6948"/><ellipse cx="51.684" cy="38.695" rx="1.642" ry="2.286" transform="translate(-12.22 47.901) rotate(-45.02)" style="fill:#f6fafd"/><ellipse cx="41.684" cy="4.695" rx="1.642" ry="2.286" transform="translate(8.898 30.861) rotate(-45.02)" style="fill:#f6fafd"/><ellipse cx="42.682" cy="41.708" rx="0.825" ry="1.148" transform="translate(-16.991 42.417) rotate(-45.02)" style="fill:#f6fafd"/><ellipse cx="22.682" cy="11.708" rx="0.825" ry="1.148" transform="translate(-1.633 19.476) rotate(-45.02)" style="fill:#f6fafd"/><ellipse cx="16.682" cy="44.708" rx="0.825" ry="1.148" transform="translate(-26.734 24.905) rotate(-45.02)" style="fill:#f6fafd"/><ellipse cx="40.427" cy="39.208" rx="0.413" ry="0.574" transform="translate(-15.883 40.09) rotate(-45.02)" style="fill:#f6fafd"/><ellipse cx="17.427" cy="42.208" rx="0.413" ry="0.574" transform="translate(-24.747 24.7) rotate(-45.02)" style="fill:#f6fafd"/><path d="M63,18h-.261L58.956,5.706A1,1,0,0,0,58,5H49V7h8.262l3.384,11H3.354L6.738,7H15V5H6a1,1,0,0,0-.956.706L1.261,18H1a1,1,0,0,0-1,1v4a1,1,0,0,0,1,1v4a3.983,3.983,0,0,0,7,2.618,3.947,3.947,0,0,0,6,0,3.947,3.947,0,0,0,6,0,3.947,3.947,0,0,0,6,0,3.947,3.947,0,0,0,6,0,3.947,3.947,0,0,0,6,0,3.947,3.947,0,0,0,6,0,3.947,3.947,0,0,0,6,0,3.947,3.947,0,0,0,6,0A3.983,3.983,0,0,0,63,28V24a1,1,0,0,0,1-1V19A1,1,0,0,0,63,18ZM2,22V20H62v2Zm3,8a2,2,0,0,1-2-2V24H7v4A2,2,0,0,1,5,30Zm6,0a2,2,0,0,1-2-2V24h4v4A2,2,0,0,1,11,30Zm6,0a2,2,0,0,1-2-2V24h4v4A2,2,0,0,1,17,30Zm6,0a2,2,0,0,1-2-2V24h4v4A2,2,0,0,1,23,30Zm6,0a2,2,0,0,1-2-2V24h4v4A2,2,0,0,1,29,30Zm6,0a2,2,0,0,1-2-2V24h4v4A2,2,0,0,1,35,30Zm6,0a2,2,0,0,1-2-2V24h4v4A2,2,0,0,1,41,30Zm6,0a2,2,0,0,1-2-2V24h4v4A2,2,0,0,1,47,30Zm6,0a2,2,0,0,1-2-2V24h4v4A2,2,0,0,1,53,30Zm8-2a2,2,0,0,1-4,0V24h4Z"/><path d="M18,16H46a1,1,0,0,0,1-1V1a1,1,0,0,0-1-1H18a1,1,0,0,0-1,1V15A1,1,0,0,0,18,16ZM19,2H45V14H19Z"/><rect x="58" y="34" width="2" height="2"/><path d="M58,62H28V35a1,1,0,0,0-1-1H9a1,1,0,0,0-1,1V62H6V34H4V63a1,1,0,0,0,1,1H59a1,1,0,0,0,1-1V38H58ZM10,36H26V62H10Z"/><path d="M55,50a1,1,0,0,0,1-1V35a1,1,0,0,0-1-1H31a1,1,0,0,0-1,1V49a1,1,0,0,0,1,1ZM54,36v8H36v2H54v2H32V46h2V44H32V36Z"/><path d="M23,38H13a1,1,0,0,0-1,1v8a1,1,0,0,0,1,1H23a1,1,0,0,0,1-1V39A1,1,0,0,0,23,38Zm-1,8H14V40h8Z"/><path d="M37,6a1.993,1.993,0,0,0-1.739,1.032c-.07-.114-.15-.22-.228-.328A2,2,0,1,0,32,5a2,2,0,1,0-3.033,1.7c-.078.108-.158.214-.228.328a2,2,0,1,0-.718,2.678C28.128,11.684,29.691,13,32,13s3.872-1.316,3.979-3.29A1.978,1.978,0,0,0,37,10a2,2,0,0,0,0-4Zm-5,5c-.6,0-2-.146-2-1.5,0-1.125.923-2.5,2-2.5s2,1.375,2,2.5C34,10.854,32.6,11,32,11Z"/></g></svg>