<svg xmlns="http://www.w3.org/2000/svg" viewBox="0 0 64 64"><title>27-consult</title><g id="_27-consult" data-name="27-consult"><path d="M21,24v7a4,4,0,0,1-4-4V26a2,2,0,0,1,2-2Z" style="fill:#ffc9bd"/><path d="M45,23a2,2,0,0,1,2,2v1a4,4,0,0,1-4,4V23Z" style="fill:#ffc9bd"/><path d="M49,47.6l-4-.8L36,45V41.25A10.994,10.994,0,0,0,43,31V30a4,4,0,0,0,4-4V25a2,2,0,0,0-2-2H43V21c-15,0-15-7-15-7,0,7-7,7-7,7v3H19a2,2,0,0,0-2,2v1a4,4,0,0,0,4,4,11,11,0,0,0,7,10.25V45l-9,1.8-4,.8-3.99.8c.119-8.806,2.936-19.418,2.989-29.124A18.267,18.267,0,0,1,31.862,1,18,18,0,0,1,50,19c0,9.78,2.87,20.51,2.99,29.4Z" style="fill:#e9b789"/><polygon points="49 47.6 49 63 15 63 15 47.6 19 46.8 19 52 45 52 45 46.8 49 47.6" style="fill:#fecfd5"/><polygon points="11.01 48.4 15 47.6 15 63 8 63 8 49 11.01 48.4" style="fill:#7baef5"/><polygon points="52.99 48.4 56 49 56 63 49 63 49 47.6 52.99 48.4" style="fill:#7baef5"/><path d="M45,46.8V52H19V46.8L28,45V41.25a11.042,11.042,0,0,0,8,0V45Z" style="fill:#ffc9bd"/><path d="M43,23v8a11,11,0,1,1-22,0V21s7,0,7-7c0,0,0,7,15,7Z" style="fill:#ffc9bd"/><path d="M45,47v9a2,2,0,0,0,4,0V47.6l-3.98-.8A1.807,1.807,0,0,0,45,47Z" style="fill:#f2aab5"/><path d="M17,58a2,2,0,0,0,2-2V47a1.807,1.807,0,0,0-.02-.2L15,47.6V56A2,2,0,0,0,17,58Z" style="fill:#f2aab5"/><path d="M45,23H44a2,2,0,0,1,2,2v1a3.99,3.99,0,0,1-3,3.859V30a4,4,0,0,0,4-4V25A2,2,0,0,0,45,23Z" style="fill:#fdddd7"/><path d="M19,24h1a2,2,0,0,0-2,2v1a3.99,3.99,0,0,0,3,3.859V31a4,4,0,0,1-4-4V26A2,2,0,0,1,19,24Z" style="fill:#fdddd7"/><path d="M41,20.951V31A10.976,10.976,0,0,1,31,41.952c.33.03.663.048,1,.048A10.99,10.99,0,0,0,43,31V21C42.3,21,41.638,20.98,41,20.951Z" style="fill:#fdddd7"/><path d="M28,14a6.383,6.383,0,0,1-5,6.688A8.9,8.9,0,0,1,21.04,21H21V31A10.99,10.99,0,0,0,32,42c.337,0,.67-.018,1-.048a10.947,10.947,0,0,1-6.78-3.172A10.965,10.965,0,0,1,23,31V25.719a2.972,2.972,0,0,1,1.6-2.646A6.29,6.29,0,0,0,28,17s0,7,15,7V21C28,21,28,14,28,14Z" style="fill:#ffb4a3"/><path d="M18.921,34.512,19,34.55v3.028a5.774,5.774,0,0,1-4.7,5.564l-3.022.638c-.148,1.582-.25,3.128-.27,4.62L15,47.6l4-.8L28,45V41.25A11,11,0,0,1,21,31a4,4,0,0,1-4-4v4.56A3.288,3.288,0,0,0,18.921,34.512Z" style="fill:#d99c64"/><path d="M49.276,43.369A5.746,5.746,0,0,1,45,37.909V34.55a3.422,3.422,0,0,0,2-3.074V26a4,4,0,0,1-4,4v1a10.994,10.994,0,0,1-7,10.25V45l9,1.8,4,.8,3.99.8c-.018-1.307-.1-2.658-.218-4.035Z" style="fill:#d99c64"/><path d="M19,24h2V21s7,0,7-7c0,0,0,7,15,7v2h2a2,2,0,0,1,2,2V21.654a4.01,4.01,0,0,0-3.538-3.97C29.715,16,28,10,28,10c-.637,3.187-4.932,5.562-7.962,6.865A5,5,0,0,0,17,21.462V26A2,2,0,0,1,19,24Z" style="fill:#d99c64"/><path d="M36,41.25a11.042,11.042,0,0,1-8,0v1.578C29.493,44.118,32.51,45,36,45Z" style="fill:#ffb4a3"/><path d="M42.738,46.348C41.532,49.36,36.363,51,32,51c-5.7,0-9.724-1.987-10.74-4.652L19,46.8V52H45V46.8Z" style="fill:#71a2e6"/><path d="M12,56a4,4,0,0,1-4,4v3h7V47.6l-3,.6Z" style="fill:#71a2e6"/><path d="M52,56V48.2l-3-.6V63h7V60A4,4,0,0,1,52,56Z" style="fill:#71a2e6"/><path d="M47,58a2,2,0,0,1-2-2v2a2.018,2.018,0,0,0,.1.639A.994.994,0,0,1,44.2,60H19.8a.994.994,0,0,1-.9-1.361A2.018,2.018,0,0,0,19,58V56a2,2,0,0,1-4,0v7H49V56A2,2,0,0,1,47,58Z" style="fill:#f2aab5"/><path d="M37,56a1.993,1.993,0,0,0-1.768,1.084c-.075-.123-.154-.242-.239-.358A2,2,0,1,0,32,55a2,2,0,1,0-2.993,1.726c-.085.116-.164.235-.239.358a2,2,0,1,0-.762,2.636C28.036,61.892,29.81,63,32,63s3.964-1.108,3.994-3.28A2,2,0,1,0,37,56Z" style="fill:#af7a58"/><circle cx="34" cy="55" r="1" style="fill:#ffc9bd"/><circle cx="30" cy="55" r="1" style="fill:#ffc9bd"/><circle cx="37" cy="58" r="1" style="fill:#ffc9bd"/><circle cx="27" cy="58" r="1" style="fill:#ffc9bd"/><path d="M35,59.5c0,1.657-1.343,2.5-3,2.5s-3-.843-3-2.5S30.343,56,32,56,35,57.843,35,59.5Z" style="fill:#ffc9bd"/><path d="M33,58a1,1,0,0,0-2,0,1,1,0,0,0-1,1,2,2,0,0,0,4,0A1,1,0,0,0,33,58Z" style="fill:#faa592"/><ellipse cx="38.684" cy="6.695" rx="1.642" ry="2.286" transform="translate(6.604 29.326) rotate(-45.02)" style="fill:#f6fafd"/><ellipse cx="42.682" cy="8.708" rx="0.825" ry="1.148" transform="translate(6.352 32.743) rotate(-45.02)" style="fill:#f6fafd"/><ellipse cx="42.427" cy="56.208" rx="0.413" ry="0.574" transform="translate(-27.322 46.488) rotate(-45.02)" style="fill:#f6fafd"/><polygon points="1 1 1 15 5 15 4 19 12 15 19 15 19 1 1 1" style="fill:#fecfd5"/><polygon points="45 5 45 19 49 19 48 23 56 19 63 19 63 5 45 5" style="fill:#7baef5"/><path d="M32,2a16.908,16.908,0,0,1,9.445,2.864L42.558,3.2A19.009,19.009,0,0,0,21.5,3.166L22.6,4.832A16.919,16.919,0,0,1,32,2Z"/><path d="M14.962,21.036C14.987,20.354,15,19.674,15,19H13q0,.975-.037,1.964Z"/><path d="M19,16a1,1,0,0,0,1-1V1a1,1,0,0,0-1-1H1A1,1,0,0,0,0,1V15a1,1,0,0,0,1,1H3.719L3.03,18.758A1,1,0,0,0,4.447,19.9L12.236,16Zm-7.447-1.895L5.5,17.133l.472-1.891A1,1,0,0,0,5,14H2V2H18V14H12A1,1,0,0,0,11.553,14.105Z"/><path d="M63,4H45a1,1,0,0,0-1,1V19a1,1,0,0,0,1,1h2.719l-.689,2.758c0,.014,0,.029-.005.043A2.976,2.976,0,0,0,45,22H44V21a1,1,0,0,0-1-1c-7.263,0-10.7-1.688-12.3-3.1A4.444,4.444,0,0,1,29,14a1,1,0,0,0-2,0c0,5.8-5.389,6-6,6a1,1,0,0,0-1,1v2H19a3,3,0,0,0-3,3v1a5.005,5.005,0,0,0,4.044,4.9A11.886,11.886,0,0,0,27,41.894v2.287l-14.952,2.99A120.807,120.807,0,0,1,13.434,34.9c.569-3.887,1.157-7.908,1.421-11.834l-2-.134c-.259,3.847-.841,7.829-1.4,11.678a116.515,116.515,0,0,0-1.421,12.963l-2.229.446A1,1,0,0,0,7,49V63a1,1,0,0,0,1,1H56a1,1,0,0,0,1-1V60H55v2H50V48.82l5,1V58h2V49a1,1,0,0,0-.8-.98l-2.23-.446a116.439,116.439,0,0,0-1.42-12.964c-.466-3.188-.949-6.485-1.246-9.7l-1.991.184c.3,3.268.788,6.593,1.258,9.806a121.129,121.129,0,0,1,1.386,12.272L37,44.181V41.905A11.917,11.917,0,0,0,44,31v-.1A5.009,5.009,0,0,0,48,26V25a2.984,2.984,0,0,0-.194-1.033A.984.984,0,0,0,48,24a1.008,1.008,0,0,0,.447-.105L56.236,20H63a1,1,0,0,0,1-1V5A1,1,0,0,0,63,4ZM18,27V26a1,1,0,0,1,1-1h1v4.816A3,3,0,0,1,18,27ZM9,49.82l5-1V62H9ZM48,62H16V48.42l2-.4V52a1,1,0,0,0,1,1H45a1,1,0,0,0,1-1V48.02l2,.4ZM44,47.62V51H20V47.62l8.2-1.64A1,1,0,0,0,29,45V42.61a11.719,11.719,0,0,0,6,0V45a1,1,0,0,0,.8.98ZM42,31a9.938,9.938,0,0,1-6.361,9.317,10.076,10.076,0,0,1-7.275,0A9.995,9.995,0,0,1,22,31V21.935a7.766,7.766,0,0,0,6.388-4.559c1.681,2.1,5.4,4.438,13.612,4.613Zm4-5a3,3,0,0,1-2,2.816V24h1a1,1,0,0,1,1,1Zm16-8H56a1,1,0,0,0-.447.105L49.5,21.133l.472-1.891A1,1,0,0,0,49,18H46V6H62Z"/><path d="M10,3A3,3,0,0,0,7,6H9a1,1,0,1,1,1,1A1,1,0,0,0,9,8v2h2V8.829A3,3,0,0,0,10,3Z"/><rect x="9" y="11" width="2" height="2"/><rect x="48" y="7" width="12" height="2"/><rect x="48" y="11" width="12" height="2"/><rect x="48" y="15" width="12" height="2"/></g></svg>