<svg xmlns="http://www.w3.org/2000/svg" viewBox="0 0 64 64"><title>19-teeth cleaning</title><g id="_19-teeth_cleaning" data-name="19-teeth cleaning"><path d="M12,23c0,17,1,17,5,17,0,0,0,4,3,4H44c3,0,3-4,3-4,4,0,5,0,5-17a4.75,4.75,0,0,0-.13-.97L52,22a1.959,1.959,0,0,0,2-2c0-.36,0-.7-.01-1H54s3.43,0,3.94-3.01L58,16c0,13,5,36,5,47H1C1,52,6,29,6,16l.06-.01C6.57,19,10,19,10,19h.01c-.01.3-.01.64-.01,1a1.959,1.959,0,0,0,2,2l.13.03A4.75,4.75,0,0,0,12,23Z" style="fill:#c98c65"/><path d="M12,22a1.959,1.959,0,0,1-2-2c0-.36,0-.7.01-1,.06-1.4.35-2.36,1.99-4H28s4,0,4-4c0,4,4,4,4,4H52c1.64,1.64,1.93,2.6,1.99,4,.01.3.01.64.01,1a1.959,1.959,0,0,1-2,2l-.13.03A3.683,3.683,0,0,0,48,19c-4,0-4,4-4,4a3,3,0,0,0-6,0,3,3,0,0,0-6,0,3,3,0,0,0-6,0,3,3,0,0,0-6,0s0-4-4-4a3.683,3.683,0,0,0-3.87,3.03Z" style="fill:#e68d79"/><path d="M32,1a7.5,7.5,0,0,1,6,3s-3,4-6,4-6-4-6-4A7.5,7.5,0,0,1,32,1Z" style="fill:#af7a58"/><path d="M12,15c-1.64,1.64-1.93,2.6-1.99,4H10s-3.43,0-3.94-3.01A4.752,4.752,0,0,1,6,15.21V6.79A3.917,3.917,0,0,1,10.16,3C16.55,3.25,26,4,26,4s3,4,6,4v3c0,4-4,4-4,4Z" style="fill:#f2cfa9"/><path d="M57.94,15.99C57.43,19,54,19,54,19h-.01c-.06-1.4-.35-2.36-1.99-4H36s-4,0-4-4V8c3,0,6-4,6-4s9.45-.75,15.84-1A3.917,3.917,0,0,1,58,6.79v8.42A4.752,4.752,0,0,1,57.94,15.99Z" style="fill:#f2cfa9"/><path d="M29,40a2.938,2.938,0,0,0,3-3,3,3,0,0,0,6,0,3,3,0,0,0,6,0,2.938,2.938,0,0,0,3,3s0,4-3,4H20c-3,0-3-4-3-4a2.938,2.938,0,0,0,3-3,3,3,0,0,0,6,0A2.938,2.938,0,0,0,29,40Z" style="fill:#e68d79"/><path d="M17,40c-4,0-5,0-5-17a10.8,10.8,0,0,0,4,8l4-8c0,4,3,5,3,5l3-5c0,4,3,5,3,5l3-5,3,5s3-1,3-5l3,5s3-1,3-5l4,8a10.8,10.8,0,0,0,4-8c0,17-1,17-5,17a2.938,2.938,0,0,0,3-3c0-4-3-5-3-5l-3,5c0-4-3-5-3-5l-3,5c0-4-3-5-3-5l-3,5-3-5s-3,1-3,5l-3-5s-3,1-3,5l-3-5s-3,1-3,5A2.938,2.938,0,0,0,17,40Z" style="fill:#f2aab5"/><path d="M17,32l3,5a3,3,0,0,1-6,0C14,33,17,32,17,32Z" style="fill:#f7faff"/><path d="M23,32l3,5a3,3,0,0,1-6,0C20,33,23,32,23,32Z" style="fill:#f7faff"/><path d="M29,32l3,5a3,3,0,0,1-6,0C26,33,29,32,29,32Z" style="fill:#f7faff"/><path d="M38,37a3,3,0,0,1-6,0l3-5S38,33,38,37Z" style="fill:#f7faff"/><path d="M41,32s3,1,3,5a3,3,0,0,1-6,0Z" style="fill:#f7faff"/><path d="M50,37a3,3,0,0,1-6,0l3-5S50,33,50,37Z" style="fill:#f7faff"/><path d="M51.87,22.03A4.75,4.75,0,0,1,52,23a10.8,10.8,0,0,1-4,8l-4-8s0-4,4-4A3.683,3.683,0,0,1,51.87,22.03Z" style="fill:#f7faff"/><path d="M41,20a2.938,2.938,0,0,1,3,3c0,4-3,5-3,5l-3-5A2.938,2.938,0,0,1,41,20Z" style="fill:#f7faff"/><path d="M35,20a2.938,2.938,0,0,1,3,3c0,4-3,5-3,5l-3-5A2.938,2.938,0,0,1,35,20Z" style="fill:#f7faff"/><path d="M32,23l-3,5s-3-1-3-5a3,3,0,0,1,6,0Z" style="fill:#f7faff"/><path d="M23,20a2.938,2.938,0,0,1,3,3l-3,5s-3-1-3-5A2.938,2.938,0,0,1,23,20Z" style="fill:#f7faff"/><path d="M16,19c4,0,4,4,4,4l-4,8a10.8,10.8,0,0,1-4-8,4.75,4.75,0,0,1,.13-.97A3.683,3.683,0,0,1,16,19Z" style="fill:#f7faff"/><path d="M37.124,5.022C37.669,4.438,38,4,38,4A7.5,7.5,0,0,0,26,4s.331.438.876,1.022a7.5,7.5,0,0,1,10.248,0Z" style="fill:#db996e"/><path d="M53.99,19c-.06-1.4-.35-2.36-1.99-4H36s-4,0-4-4c0,4-4,4-4,4H12c-1.64,1.64-1.93,2.6-1.99,4-.01.3-.01.64-.01,1a2.151,2.151,0,0,0,.163.829A5.942,5.942,0,0,1,12,18H28s4,0,4-4c0,4,4,4,4,4H52a5.942,5.942,0,0,1,1.837,2.829A2.151,2.151,0,0,0,54,20C54,19.64,54,19.3,53.99,19Z" style="fill:#d47c69"/><path d="M10.64,6c5.024.176,11.718.6,15.246.835A25.041,25.041,0,0,1,24,4.143s.058-.109.163-.284C21.1,3.63,14.824,3.182,10.16,3A3.917,3.917,0,0,0,6,6.79v3C6,7.64,8.108,5.92,10.64,6Z" style="fill:#ffe2c2"/><path d="M53.84,3c-4.664.182-10.944.63-14,.859.1.175.163.284.163.284a25.041,25.041,0,0,1-1.886,2.692C41.642,6.6,48.336,6.176,53.36,6,55.892,5.92,58,7.64,58,9.79v-3A3.917,3.917,0,0,0,53.84,3Z" style="fill:#ffe2c2"/><path d="M26,4s-.7-.056-1.837-.141c-.105.175-.163.284-.163.284S28,11,32,11V8C29,8,26,4,26,4Z" style="fill:#e9b789"/><path d="M40,4.143s-.058-.109-.163-.284C38.705,3.944,38,4,38,4s-3,4-6,4v3C36,11,40,4.143,40,4.143Z" style="fill:#e9b789"/><path d="M29,6.882V9c0,4-4.154,4-4.154,4h-14.3a4.309,4.309,0,0,0-4.328,3.6C7.059,19,10,19,10,19h.01c.06-1.4.35-2.36,1.99-4H28s4,0,4-4V8A5.494,5.494,0,0,1,29,6.882Z" style="fill:#e9b789"/><path d="M53.451,13h-14.3S35,13,35,9V6.882A5.494,5.494,0,0,1,32,8v3c0,4,4,4,4,4H52c1.64,1.64,1.93,2.6,1.99,4H54s2.941,0,3.779-2.4A4.309,4.309,0,0,0,53.451,13Z" style="fill:#e9b789"/><path d="M20,39a3,3,0,0,0,6,0,3,3,0,0,0,6,0,3,3,0,0,0,6,0,3,3,0,0,0,6,0,2.957,2.957,0,0,0,2.633,2.977A6.449,6.449,0,0,0,47,40a2.938,2.938,0,0,1-3-3,3,3,0,0,1-6,0,3,3,0,0,1-6,0,3,3,0,0,1-6,0,3,3,0,0,1-6,0,2.938,2.938,0,0,1-3,3,6.449,6.449,0,0,0,.367,1.977A2.957,2.957,0,0,0,20,39Z" style="fill:#d47c69"/><path d="M51.675,25.414A11.293,11.293,0,0,1,48,31l-3.228-6.455L44,23a6.234,6.234,0,0,1-.439,2.388A4.67,4.67,0,0,1,41,28l-2-3.327L38,23a6.234,6.234,0,0,1-.439,2.388A4.67,4.67,0,0,1,35,28l-2-3.327L32,23l-1,1.673L29,28a4.67,4.67,0,0,1-2.561-2.612A6.234,6.234,0,0,1,26,23l-1,1.673L23,28a4.67,4.67,0,0,1-2.561-2.612A6.234,6.234,0,0,1,20,23l-.772,1.545L16,31a11.293,11.293,0,0,1-3.675-5.586A9.278,9.278,0,0,1,12,23c0,1.337.007,2.557.02,3.692,0,.344.009.681.014,1.007a10.494,10.494,0,0,0,2.782,6.176A4.6,4.6,0,0,1,17,32l.273.455L20,27c0,4,3,5,3,5l3-5c0,4,3,5,3,5l3-5,3,5s3-1,3-5l3,5s3-1,3-5l2.727,5.455L47,32a4.6,4.6,0,0,1,2.184,1.875A10.494,10.494,0,0,0,51.966,27.7c0-.326.01-.663.014-1.007.013-1.135.02-2.355.02-3.692A9.278,9.278,0,0,1,51.675,25.414Z" style="fill:#da9ea8"/><circle cx="41" cy="53" r="2" style="fill:#7dd5f5"/><circle cx="31" cy="50" r="2" style="fill:#7dd5f5"/><path d="M41,54a2,2,0,0,1-1.929-1.5A1.966,1.966,0,0,0,39,53a2,2,0,0,0,4,0,1.966,1.966,0,0,0-.071-.5A2,2,0,0,1,41,54Z" style="fill:#25b1e8"/><path d="M31,51a2,2,0,0,1-1.929-1.5A1.966,1.966,0,0,0,29,50a2,2,0,0,0,4,0,1.966,1.966,0,0,0-.071-.5A2,2,0,0,1,31,51Z" style="fill:#25b1e8"/><path d="M22,58H9V53a2.938,2.938,0,0,0-3-3H25v8Z" style="fill:#ffc9bd"/><polygon points="25 58 40 58 40 61 27 61 25 63 6 63 6 58 9 58 22 58 25 58" style="fill:#8a8dff"/><polygon points="58 58 58 63 40 63 40 61 40 58 58 58" style="fill:#f3afba"/><path d="M18,54.256c-2.429-.333-4.671-1.6-7.114-1.814a9.544,9.544,0,0,0-1.941.048A3.3,3.3,0,0,1,9,53v1.485a9.589,9.589,0,0,1,1.886-.043c2.443.209,4.685,1.481,7.114,1.814,2.332.319,4.663-.242,7-.637v-2C22.663,54.014,20.332,54.575,18,54.256Z" style="fill:#ffb4a3"/><path d="M21,50H6a2.8,2.8,0,0,1,2.945,2.49,9.544,9.544,0,0,1,1.941-.048c2.443.209,4.685,1.481,7.114,1.814,2.332.319,4.663-.242,7-.637V50Z" style="fill:#7dd5f5"/><path d="M37,58h0a2,2,0,0,1-2,2H26l-2,2H6v1H25l2-2H40V58Z" style="fill:#696cd1"/><path d="M43,58v1a2,2,0,0,0,2,2h8a2,2,0,0,0,2-2V58h3v5H40V58Z" style="fill:#da9ea8"/><rect x="7" y="58" width="13" height="3" rx="1.5" ry="1.5" style="fill:#a3a6ff"/><rect x="21" y="58" width="4" height="3" rx="1.5" ry="1.5" style="fill:#a3a6ff"/><ellipse cx="52.684" cy="8.695" rx="1.642" ry="2.286" transform="translate(9.294 39.815) rotate(-45.02)" style="fill:#f6fafd"/><ellipse cx="47.682" cy="7.708" rx="0.825" ry="1.148" transform="translate(8.525 35.987) rotate(-45.02)" style="fill:#f6fafd"/><ellipse cx="34.427" cy="4.208" rx="0.413" ry="0.574" transform="translate(7.115 25.586) rotate(-45.02)" style="fill:#f6fafd"/><path d="M61.646,41.2C60.345,32.106,59,22.7,59,16h-.057A5.8,5.8,0,0,0,59,15.21V6.79a4.655,4.655,0,0,0-1.451-3.372A5.173,5.173,0,0,0,53.8,2c-5.48.215-13.275.8-15.348.961a8.51,8.51,0,0,0-12.906,0C23.474,2.8,15.678,2.216,10.2,2A5.08,5.08,0,0,0,6.451,3.418,4.655,4.655,0,0,0,5,6.79v8.42a5.8,5.8,0,0,0,.057.79H5c0,6.7-1.345,16.106-2.646,25.2C1.143,49.665,0,57.658,0,63H2c0-5.2,1.133-13.124,2.333-21.515,1.125-7.864,2.281-15.954,2.586-22.416A5.568,5.568,0,0,0,9,19.9V20a2.819,2.819,0,0,0,2.006,2.834c0,.086-.006.15-.006.166,0,15.607.8,17.769,5.078,17.98C16.347,42.736,17.368,45,20,45H44c2.633,0,3.651-2.263,3.92-4.02C52.2,40.769,53,38.609,53,23c0-.016,0-.08-.006-.166A2.819,2.819,0,0,0,55,20c0-.036,0-.064,0-.1a5.591,5.591,0,0,0,2.082-.832c.3,6.462,1.461,14.552,2.586,22.416C60.867,49.876,62,57.8,62,63h2C64,57.658,62.857,49.665,61.646,41.2ZM32,2a6.479,6.479,0,0,1,4.7,2c-1.038,1.181-3,3-4.7,3s-3.666-1.814-4.7-3A6.5,6.5,0,0,1,32,2ZM7,15.21V6.79a2.674,2.674,0,0,1,.84-1.934A3.2,3.2,0,0,1,10.121,4c5.526.216,13.446.815,15.366.964.791.967,2.982,3.374,5.513,3.918V11a2.852,2.852,0,0,1-3,3H12a1,1,0,0,0-.707.293,6.645,6.645,0,0,0-2.166,3.6A2.554,2.554,0,0,1,7,15.21Zm12.613,10.8a5.652,5.652,0,0,0,3.071,2.938,1,1,0,0,0,1.173-.433l1.65-2.75a5.67,5.67,0,0,0,3.177,3.183,1,1,0,0,0,1.173-.433L32,24.944l2.143,3.571a1,1,0,0,0,1.173.433,5.67,5.67,0,0,0,3.177-3.183l1.65,2.75a1,1,0,0,0,1.173.433,5.652,5.652,0,0,0,3.071-2.938l2.5,5.007a.992.992,0,0,0-.747.468l-1.65,2.75a5.67,5.67,0,0,0-3.177-3.183,1,1,0,0,0-1.173.433l-1.65,2.75a5.67,5.67,0,0,0-3.177-3.183,1,1,0,0,0-1.173.433L32,35.056l-2.143-3.571a1,1,0,0,0-1.173-.433,5.67,5.67,0,0,0-3.177,3.183l-1.65-2.75a1,1,0,0,0-1.173-.433,5.67,5.67,0,0,0-3.177,3.183l-1.65-2.75a.991.991,0,0,0-.747-.468ZM21,23a1.882,1.882,0,0,1,2-2,1.83,1.83,0,0,1,1.983,1.75l-2.349,3.917A4.3,4.3,0,0,1,21,23Zm6,0a1.882,1.882,0,0,1,2-2,1.83,1.83,0,0,1,1.983,1.75l-2.349,3.917A4.3,4.3,0,0,1,27,23Zm6.015-.253A1.83,1.83,0,0,1,35,21a1.884,1.884,0,0,1,2,2,4.3,4.3,0,0,1-1.635,3.66Zm6,0A1.83,1.83,0,0,1,41,21a1.884,1.884,0,0,1,2,2,4.3,4.3,0,0,1-1.635,3.66ZM51,23a9.46,9.46,0,0,1-2.7,6.354L45.01,22.784A2.8,2.8,0,0,1,48,20a2.7,2.7,0,0,1,2.9,2.257A3.886,3.886,0,0,1,51,23ZM47,39a1.83,1.83,0,0,1-1.983-1.751l2.349-3.916A4.3,4.3,0,0,1,49,37,1.882,1.882,0,0,1,47,39Zm-4-2a1.882,1.882,0,0,1-2,2,1.83,1.83,0,0,1-1.983-1.75l2.349-3.917A4.3,4.3,0,0,1,43,37Zm-6,0a1.882,1.882,0,0,1-2,2,1.83,1.83,0,0,1-1.983-1.75l2.349-3.917A4.3,4.3,0,0,1,37,37Zm-6.015.253A1.83,1.83,0,0,1,29,39a1.884,1.884,0,0,1-2-2.005,4.3,4.3,0,0,1,1.635-3.66Zm-6,0A1.83,1.83,0,0,1,23,39a1.884,1.884,0,0,1-2-2.005,4.3,4.3,0,0,1,1.635-3.66ZM17,39a1.882,1.882,0,0,1-2-2,4.3,4.3,0,0,1,1.635-3.665l2.35,3.918A1.83,1.83,0,0,1,17,39Zm-1.3-9.642A9.46,9.46,0,0,1,13,23h0a3.856,3.856,0,0,1,.1-.742A2.7,2.7,0,0,1,16,20a2.8,2.8,0,0,1,2.99,2.784Zm-.325,2.425a5.79,5.79,0,0,0-2.019,2.852c-.148-1.335-.244-3.076-.3-5.354A11.97,11.97,0,0,0,15.378,31.783ZM44,43H20c-1.289,0-1.745-1.246-1.908-2.133A3.568,3.568,0,0,0,20,39.705,3.767,3.767,0,0,0,23,41a3.767,3.767,0,0,0,3-1.3A3.767,3.767,0,0,0,29,41a3.767,3.767,0,0,0,3-1.3,4.122,4.122,0,0,0,6,0,4.122,4.122,0,0,0,6,0,3.568,3.568,0,0,0,1.908,1.162C45.745,41.755,45.289,43,44,43Zm6.641-8.365a5.79,5.79,0,0,0-2.019-2.852,11.97,11.97,0,0,0,2.318-2.5C50.885,31.559,50.789,33.3,50.641,34.635Zm4.232-16.746a6.637,6.637,0,0,0-2.166-3.6A1,1,0,0,0,52,14H40v2H51.578a3.986,3.986,0,0,1,1.413,3.032c.009.29.009.619.009.968a.884.884,0,0,1-.461.874A4.614,4.614,0,0,0,48,18a4.605,4.605,0,0,0-4.164,2.127A4.127,4.127,0,0,0,38,20.3a4.122,4.122,0,0,0-6,0A3.767,3.767,0,0,0,29,19a3.767,3.767,0,0,0-3,1.3A3.767,3.767,0,0,0,23,19a3.789,3.789,0,0,0-2.836,1.127A4.605,4.605,0,0,0,16,18a4.615,4.615,0,0,0-4.539,2.875A.885.885,0,0,1,11,20c0-.349,0-.678.009-.957A3.992,3.992,0,0,1,12.422,16H28a5.267,5.267,0,0,0,4-1.843A5.267,5.267,0,0,0,36,16h2V14H36.005A2.853,2.853,0,0,1,33,11V8.881c2.531-.544,4.722-2.951,5.513-3.918,1.92-.149,9.84-.748,15.362-.964a3.147,3.147,0,0,1,2.285.857A2.674,2.674,0,0,1,57,6.79v8.42A2.553,2.553,0,0,1,54.873,17.889Z"/><path d="M58,57H26V50a1,1,0,0,0-1-1H6a1,1,0,0,0,0,2,1.882,1.882,0,0,1,2,2v4H6a1,1,0,0,0-1,1v5a1,1,0,0,0,1,1H25a1,1,0,0,0,.707-.293L27.414,62H37V60H27a1,1,0,0,0-.707.293L24.586,62H7V59H39v4a1,1,0,0,0,1,1H58a1,1,0,0,0,1-1V58A1,1,0,0,0,58,57ZM10,57V53a4.373,4.373,0,0,0-.506-2H12v5h2V51h2v5h2V51h2v5h2V51h2v6H10Zm47,5H41V59H57Z"/><path d="M34,50a3,3,0,1,0-3,3A3,3,0,0,0,34,50Zm-4,0a1,1,0,1,1,1,1A1,1,0,0,1,30,50Z"/><path d="M44,53a3,3,0,1,0-3,3A3,3,0,0,0,44,53Zm-4,0a1,1,0,1,1,1,1A1,1,0,0,1,40,53Z"/></g></svg>