<svg xmlns="http://www.w3.org/2000/svg" viewBox="0 0 64 64"><title>02-dog grooming</title><g id="_02-dog_grooming" data-name="02-dog grooming"><rect x="59" y="60" width="4" height="3" style="fill:#555a66"/><rect x="59" y="47" width="4" height="13" style="fill:#fec9d3"/><path d="M27,36V29H9V43H27V36ZM63,25V47H1V25H33v6a2.006,2.006,0,0,0,2,2,2.015,2.015,0,0,0,2-2V29a2.006,2.006,0,0,1,2-2,2.015,2.015,0,0,1,2,2v6a2.006,2.006,0,0,0,2,2,2.015,2.015,0,0,0,2-2V25H63Z" style="fill:#eef2fa"/><polygon points="63 5 63 25 59 25 59 9 56 9 53.38 11.62 50.38 8.62 54 5 63 5" style="fill:#7e8596"/><path d="M63,1V5H54L50.38,8.62,49.76,8H46.94L45.53,9.41v.01l-.71-.71L42,11.53,50.47,20l2.82-2.82-.7-.7v-.01L54,15.06V12.24l-.62-.62L56,9h3V25H46a8,8,0,0,0-8-8,7.708,7.708,0,0,0-1.53.15A8,8,0,0,0,29,12a7.9,7.9,0,0,0-1.63.17A8,8,0,0,0,13,17a8,8,0,0,0-8,8H1V1ZM36,7a2,2,0,1,0-2,2A2.006,2.006,0,0,0,36,7ZM10,11a2,2,0,1,0-2,2A2.006,2.006,0,0,0,10,11Z" style="fill:#dce1eb"/><polygon points="50.38 8.62 53.38 11.62 54 12.24 54 15.06 52.59 16.47 52.59 16.48 45.53 9.42 45.53 9.41 46.94 8 49.76 8 50.38 8.62" style="fill:#414952"/><polygon points="53.29 17.18 50.47 20 42 11.53 44.82 8.71 45.53 9.42 52.59 16.48 53.29 17.18" style="fill:#fec9d3"/><path d="M9,25H5a8,8,0,0,1,8-8,8,8,0,0,1,14.37-4.83A7.9,7.9,0,0,1,29,12a8,8,0,0,1,7.47,5.15A7.708,7.708,0,0,1,38,17a8,8,0,0,1,8,8H45V35a2.015,2.015,0,0,1-2,2,2.006,2.006,0,0,1-2-2V29a2.015,2.015,0,0,0-2-2,2.006,2.006,0,0,0-2,2v2a2.015,2.015,0,0,1-2,2,2.006,2.006,0,0,1-2-2V25Z" style="fill:#25b1e8"/><circle cx="34" cy="7" r="2" style="fill:#7dd5f5"/><polygon points="27 38 27 43 9 43 9 29 27 29 27 34 21 34 21 38 27 38" style="fill:#fec9d3"/><polygon points="27 36 27 38 21 38 21 34 27 34 27 36" style="fill:#555a66"/><polygon points="27 47 26 57 10 57 9 47 27 47" style="fill:#555a66"/><circle cx="8" cy="11" r="2" style="fill:#7dd5f5"/><rect x="1" y="60" width="4" height="3" style="fill:#555a66"/><rect x="1" y="47" width="4" height="13" style="fill:#fec9d3"/><path d="M61,21V7H56.828a2,2,0,0,0-1.414.586,2,2,0,0,1-2.828,0L52,7,50.38,8.62l3,3L56,9h3V25h4V23A2,2,0,0,1,61,21Z" style="fill:#636978"/><polygon points="46.94 8 45.53 9.41 45.53 9.42 52.59 16.48 52.59 16.47 54 15.06 54 15 47 8 46.94 8" style="fill:#2a2e33"/><path d="M52.59,16.48l-1.035-1.035-.141.141a2,2,0,0,1-2.828,0l-5.321-5.321L42,11.53,50.47,20l2.82-2.82Z" style="fill:#e0a3ab"/><path d="M5.084,23.9a8.306,8.306,0,0,1,.177-.9A8.072,8.072,0,0,0,5.084,23.9Z" style="fill:#6af8ff"/><path d="M5,25a7.533,7.533,0,0,1,.066-.979A7.916,7.916,0,0,0,5,25Z" style="fill:#6af8ff"/><path d="M38,17a7.708,7.708,0,0,0-1.53.15A8,8,0,0,0,29,12a7.9,7.9,0,0,0-1.63.17A8,8,0,0,0,13,17a7.994,7.994,0,0,0-7.738,6H7.74A7.932,7.932,0,0,1,13,21a8,8,0,0,1,14.37-4.83A7.9,7.9,0,0,1,29,16a8,8,0,0,1,7.47,5.15A7.708,7.708,0,0,1,38,21a7.993,7.993,0,0,1,7,4.129V25h1A8,8,0,0,0,38,17Z" style="fill:#7dd5f5"/><polygon points="5.262 23 5.261 23.002 5.262 23 5.262 23" style="fill:#52aff4"/><path d="M5.066,24.021c0-.04.012-.079.018-.12C5.078,23.942,5.071,23.981,5.066,24.021Z" style="fill:#52aff4"/><path d="M31,23H5.262v0a8.306,8.306,0,0,0-.177.9c-.006.041-.013.08-.018.12A7.533,7.533,0,0,0,5,25H33A2,2,0,0,0,31,23Z" style="fill:#216fc4"/><path d="M63,49h0a2,2,0,0,0-2,2v9H59V47h4Z" style="fill:#e0a3ab"/><rect x="59" y="60" width="2" height="3" style="fill:#2a2e33"/><path d="M1,49H1a2,2,0,0,1,2,2v9H5V47H1Z" style="fill:#e0a3ab"/><rect x="3" y="60" width="2" height="3" transform="translate(8 123) rotate(-180)" style="fill:#2a2e33"/><path d="M9,47l1,10h2l-.719-5.752A2,2,0,0,1,13.266,49h9.468a2,2,0,0,1,1.985,2.248L24,57h2l1-10Z" style="fill:#2a2e33"/><path d="M24.465,50H11.535a1.986,1.986,0,0,0-.258,1H24.723A1.986,1.986,0,0,0,24.465,50Z" style="fill:#2a2e33"/><polygon points="24.625 52 11.375 52 11.5 53 24.5 53 24.625 52" style="fill:#2a2e33"/><polygon points="24.375 54 11.625 54 11.75 55 24.25 55 24.375 54" style="fill:#2a2e33"/><polygon points="11.875 56 12 57 24 57 24.125 56 11.875 56" style="fill:#2a2e33"/><path d="M22,34v2a1,1,0,0,0,1,1h2a1,1,0,0,0,1-1V34h1v4H21V34Z" style="fill:#2a2e33"/><polygon points="21 35 21 38 27 38 27 43 9 43 9 29 11 29 11 41 24 41 24 40 20 40 20 35 21 35" style="fill:#e0a3ab"/><path d="M59,25V42a2,2,0,0,1-2,2H7a2,2,0,0,1-2-2V29a2,2,0,0,1,2-2H30a2,2,0,0,1,2,2v6a2,2,0,0,0,2,2h1a2.015,2.015,0,0,0,2-2V33.112a2.075,2.075,0,0,1,1.823-2.1A2.012,2.012,0,0,1,41,33V29a2.012,2.012,0,0,0-2.177-1.992A2.075,2.075,0,0,0,37,29.112V31a2.012,2.012,0,0,1-2.177,1.992A2.075,2.075,0,0,1,33,30.888V25H1V47H63V25Z" style="fill:#dce1eb"/><path d="M41,39a2.006,2.006,0,0,0,2,2,2.015,2.015,0,0,0,2-2V35a2.015,2.015,0,0,1-2,2,2.006,2.006,0,0,1-2-2Z" style="fill:#cdd2e1"/><rect x="43.821" y="10.776" width="2.828" height="11.978" transform="translate(1.394 36.896) rotate(-45)" style="fill:#cdd2e1"/><polygon points="56 9 55.38 9.62 54 11 53.38 11.62 54 12.24 54 15.06 52.59 16.47 52.59 16.48 53.29 17.18 55.29 15.18 54.59 14.48 54.59 14.47 56 13.06 56 11 57 11 57 25 59 25 59 9 56 9" style="fill:#cdd2e1"/><rect x="1" y="1" width="62" height="2" style="fill:#eef2fa"/><path d="M47.049,23a8.2,8.2,0,0,0-8.39-8,8.465,8.465,0,0,0-1.6.15A8.387,8.387,0,0,0,29.219,10a8.673,8.673,0,0,0-1.709.17A8.544,8.544,0,0,0,20.829,7a8.2,8.2,0,0,0-8.39,8,8.2,8.2,0,0,0-8.39,8H1v2H5a7.992,7.992,0,0,1,6.665-7.88l.064-.01c.2-.031.391-.059.591-.076.136-.012.275-.015.413-.021.09,0,.177-.013.267-.013a8,8,0,0,1,8-8h.049a8.006,8.006,0,0,1,6.364,3.163A7.93,7.93,0,0,1,29,12l.02,0,.029,0a8,8,0,0,1,7.467,5.143A7.715,7.715,0,0,1,38,17h.049a7.992,7.992,0,0,1,7.737,6h-.048A7.992,7.992,0,0,1,46,25H59V23Z" style="fill:#cdd2e1"/><path d="M27,28H9a1,1,0,0,0-1,1V43a1,1,0,0,0,1,1H27a1,1,0,0,0,1-1V29A1,1,0,0,0,27,28Zm0,15H9V29H27Z" style="fill:#7e8596"/><rect x="61" y="13" width="2" height="7" rx="1" ry="1" style="fill:#9da3b5"/><rect x="61" y="8" width="2" height="4" rx="1" ry="1" style="fill:#9da3b5"/><circle cx="22" cy="16" r="1" style="fill:#6af8ff"/><circle cx="41" cy="24" r="1" style="fill:#2b8ffc"/><circle cx="20.125" cy="20" r="1" style="fill:#2b8ffc"/><circle cx="16" cy="21" r="1" style="fill:#2b8ffc"/><circle cx="33.625" cy="19.5" r="0.5" style="fill:#6af8ff"/><circle cx="38.5" cy="24.5" r="0.5" style="fill:#2b8ffc"/><circle cx="19.5" cy="17.5" r="0.5" style="fill:#6af8ff"/><circle cx="22.5" cy="21.5" r="0.5" style="fill:#2b8ffc"/><circle cx="29.5" cy="18.5" r="0.5" style="fill:#6af8ff"/><ellipse cx="55.684" cy="39.695" rx="1.642" ry="2.286" transform="translate(-11.755 51.024) rotate(-45.02)" style="fill:#f6fafd"/><ellipse cx="55.682" cy="35.708" rx="0.825" ry="1.148" transform="translate(-8.936 49.854) rotate(-45.02)" style="fill:#f6fafd"/><ellipse cx="32.682" cy="15.708" rx="0.716" ry="1.137" transform="translate(-2.575 24.183) rotate(-39.187)" style="fill:#f6fafd"/><ellipse cx="30.427" cy="15.208" rx="0.413" ry="0.574" transform="translate(-1.838 25.981) rotate(-45.02)" style="fill:#f6fafd"/><path d="M28,34V29a1,1,0,0,0-1-1H9a1,1,0,0,0-1,1V43a1,1,0,0,0,1,1H27a1,1,0,0,0,1-1V37h3V35H28ZM10,42V30H26v3H21a1,1,0,0,0-1,1v4a1,1,0,0,0,1,1h5v3Zm16-7v2H22V35Z"/><rect x="51" y="24" width="2" height="2"/><path d="M63,0H1A1,1,0,0,0,0,1V63a1,1,0,0,0,1,1H5a1,1,0,0,0,1-1V50H4v9H2V48H8.1l.91,9.1A1,1,0,0,0,10,58H26a1,1,0,0,0,1-.9l.91-9.1H62V59H60V50H58V63a1,1,0,0,0,1,1h4a1,1,0,0,0,1-1V1A1,1,0,0,0,63,0ZM4,61v1H2V61ZM2,26H30V24H10.184A3,3,0,0,1,13,22V20a5.009,5.009,0,0,0-4.9,4H6.08A7,7,0,0,1,13,18a1,1,0,0,0,1-1,7,7,0,0,1,12.576-4.222,1,1,0,0,0,1,.37A6.916,6.916,0,0,1,29,13a7.04,7.04,0,0,1,6.536,4.507,1,1,0,0,0,1.134.623A6.594,6.594,0,0,1,38,18a7,7,0,0,1,6.923,6.016A.991.991,0,0,0,44,25V35a.974.974,0,0,1-.306.712A.957.957,0,0,1,43,36a1,1,0,0,1-1-1V29a3.015,3.015,0,0,0-3-3,3,3,0,0,0-3,3v2a.974.974,0,0,1-.306.712A.957.957,0,0,1,35,32a1,1,0,0,1-1-1V25a1,1,0,0,0-1-1H32v7a3,3,0,0,0,3,3,3.015,3.015,0,0,0,3-3V29a1,1,0,0,1,1-1,.974.974,0,0,1,.712.306A.957.957,0,0,1,40,29v6a3,3,0,0,0,3,3,3.015,3.015,0,0,0,3-3V26h3V24H46.941a9,9,0,0,0-9.862-7.953A9.057,9.057,0,0,0,29,11a8.836,8.836,0,0,0-1.227.085A8.993,8.993,0,0,0,12.05,16.05,9.012,9.012,0,0,0,4.061,24H2V2H62V4H54a1,1,0,0,0-.707.293l-2.93,2.93A1,1,0,0,0,49.76,7H46.94a1,1,0,0,0-.707.293L45.525,8a1,1,0,0,0-1.412,0l-2.82,2.82a1,1,0,0,0,0,1.414l8.47,8.47a1,1,0,0,0,1.414,0L54,17.887a1,1,0,0,0,0-1.412l.708-.708A1,1,0,0,0,55,15.06V12.24a1,1,0,0,0-.223-.6L56.414,10H58V24H55v2h7V46H2ZM59,8H56a1,1,0,0,0-.707.293L53.38,10.206,51.794,8.62,54.414,6H62V24H60V9A1,1,0,0,0,59,8Zm-7.124,9.18L50.47,18.586,43.414,11.53l1.406-1.406ZM46.939,9.415,47.354,9h1.992L53,12.654v1.992l-.415.415ZM25.1,56H10.905l-.8-8H25.9ZM60,62V61h2v1Z"/><path d="M21,12a5.006,5.006,0,0,0-5,5h2a3,3,0,0,1,6,0h2A5.006,5.006,0,0,0,21,12Z"/><path d="M34,4a3,3,0,1,0,3,3A3,3,0,0,0,34,4Zm0,4a1,1,0,1,1,1-1A1,1,0,0,1,34,8Z"/><path d="M8,8a3,3,0,1,0,3,3A3,3,0,0,0,8,8Zm0,4a1,1,0,1,1,1-1A1,1,0,0,1,8,12Z"/></g></svg>