<svg xmlns="http://www.w3.org/2000/svg" viewBox="0 0 756.2 137.89"><g id="Layer_2" data-name="Layer 2"><g id="logo"><path d="M33.8,112c-5.6,0-9.1.7-12.4,2l5.9-11.7a26.65,26.65,0,0,0,4.8.4c14,0,27.8-8.8,27.8-22.4a20.56,20.56,0,0,0-4.4-12.7l6.1-12.2L45.7,51l-3.8,7.8a31.88,31.88,0,0,0-9.8-1.5c-14,0-27.8,9-27.8,23,0,6.1,3.5,11.8,8,15.8L0,120.39,10.6,131c6.2-3,11-4.5,18.3-4.5,9.1,0,13.8,4.3,16.2,11.4l16.9-4.8C57.5,119.19,47,112,33.8,112Zm-1.7-40.9c5.5,0,9.3,3.4,9.3,8.8,0,5.6-3.8,9.3-9.3,9.3s-9.3-3.7-9.3-9.3C22.8,74.49,26.6,71.09,32.1,71.09Z"/><path d="M136.5,64.79a20,20,0,0,0-15.7-7.5,26,26,0,0,0-26.1,26.2c0,13.8,11.7,26.7,26.1,26.7a19.9,19.9,0,0,0,15.7-7.4v6.1h18.2V58.59H136.5Zm.8,20.6a11.48,11.48,0,0,1-11.7,9.8c-7.6,0-12.1-5.2-12.1-11.7,0-7.1,4.1-11.2,12.1-11.2a11.56,11.56,0,0,1,11.7,9.9Z"/><path d="M191.7,78.29c-8-2.7-9.6-3.4-9.6-5.3,0-1.5,1.1-2.2,5.9-2.2a25.86,25.86,0,0,1,13.3,3.6l5.9-11.9c-5.8-3.5-11.8-5.2-20.4-5.2-12.4,0-23.2,3.8-23.2,15.8,0,8.6,6.7,12.4,14.2,15.1,8.4,3,11,4.1,11,6.3,0,1.4-1.4,2.1-6.4,2.1-4.1,0-10.9-2-15.6-4.7l-5.5,12.7c6.4,3.6,13.2,5.6,22.9,5.6,13,0,23.1-3.4,23.1-16.1C207.3,85,200.9,81.39,191.7,78.29Z"/><path d="M241.6,78.29c-8-2.7-9.6-3.4-9.6-5.3,0-1.5,1.1-2.2,5.9-2.2a25.86,25.86,0,0,1,13.3,3.6l5.9-11.9c-5.8-3.5-11.8-5.2-20.4-5.2-12.4,0-23.2,3.8-23.2,15.8,0,8.6,6.7,12.4,14.2,15.1,8.4,3,11,4.1,11,6.3,0,1.4-1.4,2.1-6.4,2.1-4.1,0-10.9-2-15.6-4.7l-5.5,12.7c6.4,3.6,13.2,5.6,22.9,5.6,13,0,23.1-3.4,23.1-16.1C257.2,85,250.8,81.39,241.6,78.29Z"/><path d="M318.3,112c-5.6,0-9.1.7-12.4,2l5.9-11.7a26.65,26.65,0,0,0,4.8.4c14,0,27.8-8.8,27.8-22.4a20.56,20.56,0,0,0-4.4-12.7l6.1-12.2L330.2,51l-3.8,7.8a31.88,31.88,0,0,0-9.8-1.5c-14,0-27.8,9-27.8,23,0,6.1,3.5,11.8,8,15.8l-12.3,24.3L295.1,131c6.2-3,11-4.5,18.3-4.5,9.1,0,13.8,4.3,16.2,11.4l16.9-4.8C342,119.19,331.5,112,318.3,112Zm-1.7-40.9c5.5,0,9.3,3.4,9.3,8.8,0,5.6-3.8,9.3-9.3,9.3s-9.3-3.7-9.3-9.3C307.3,74.49,311.1,71.09,316.6,71.09Z"/><path d="M385.2,57.29c-5.1,0-11.7,3.9-14.4,8.6v-7.3H353v50.3h18.2V90c0-10.9,3.9-15.4,9.8-15.4a15.85,15.85,0,0,1,6.8,1.6l8-15.8A18.34,18.34,0,0,0,385.2,57.29Z"/><path d="M423.3,57.29c-16.2,0-28.5,10.4-28.5,26.4,0,16.3,13.5,26.5,29.4,26.5,7,0,13.8-.8,19.6-3.1L440,94.49a41.7,41.7,0,0,1-14.1,2.3c-6.6,0-10.6-1.8-12-7.3h35.5a27.09,27.09,0,0,0,1.7-8.9C451.1,67.29,440,57.29,423.3,57.29Zm-9.8,21.2c1.4-5.1,4.5-8.2,9.8-8.2,5.6,0,8.6,3.1,9.8,8.2Z"/><path d="M485.6,57.29c-16.2,0-28.5,10.4-28.5,26.4,0,16.3,13.5,26.5,29.4,26.5,7,0,13.8-.8,19.6-3.1l-3.8-12.6a41.7,41.7,0,0,1-14.1,2.3c-6.6,0-10.6-1.8-12-7.3h35.5a27.09,27.09,0,0,0,1.7-8.9C513.4,67.29,502.3,57.29,485.6,57.29Zm-9.8,21.2c1.4-5.1,4.5-8.2,9.8-8.2,5.6,0,8.6,3.1,9.8,8.2Z"/><path d="M554.9,57.29a20.27,20.27,0,0,0-15.8,7.4v-6.1H521.39v50.3H539.6V82.09c1-6,4.5-9.8,9.8-9.8,5.9,0,7.5,2.4,7.5,9.3v27.3h18.2V81.59C575.1,66.09,569.1,57.29,554.9,57.29Z"/><path d="M611.2,57.29c-16.2,0-28.51,10.4-28.51,26.4,0,16.3,13.51,26.5,29.41,26.5,7,0,13.8-.8,19.6-3.1l-3.8-12.6a41.7,41.7,0,0,1-14.1,2.3c-6.6,0-10.6-1.8-12-7.3h35.5a27.09,27.09,0,0,0,1.7-8.9C639,67.29,627.9,57.29,611.2,57.29Zm-9.8,21.2c1.4-5.1,4.5-8.2,9.8-8.2,5.6,0,8.6,3.1,9.8,8.2Z"/><path d="M664.79,65.89v-7.3H647v50.3h18.2V90c0-10.9,3.9-15.4,9.81-15.4a15.85,15.85,0,0,1,6.8,1.6l8-15.8a18.34,18.34,0,0,0-10.6-3.1C674.09,57.29,667.5,61.19,664.79,65.89Z"/><polygon points="736.69 58.59 725.49 84.99 712.29 58.59 691.79 58.59 716.29 103.19 699.89 136.69 719.39 136.69 756.2 58.59 736.69 58.59"/><path d="M89.23,47.22a13.85,13.85,0,0,0-5.67,2.67l-.64.46a107.75,107.75,0,0,1,3.76-10.63c1.86.11,3.64.25,5.43.3a7.74,7.74,0,0,0,6.53-2.78c1.08-1.32,1.55-3.87.18-5.35a3.46,3.46,0,0,0-2.94-1,11.33,11.33,0,0,0-4,1.2c-.71.33-1.4.73-2.24,1.17.28-.6.47-1.09.72-1.53,1.43-2.53,2.9-5,4.32-7.56.23-.42.47-.17.68-.11,1.63.45,3.24,1,4.88,1.37A8.6,8.6,0,0,0,106,25a5,5,0,0,0,3.21-4.92,3,3,0,0,0-2.79-2.84,10.86,10.86,0,0,0-5,.54c-1,.31-2,.74-3.11,1.17.25-.38.42-.68.64-.95,1.46-1.76,2.92-3.52,4.4-5.27a1.61,1.61,0,0,1,.69-.41,26,26,0,0,0,5.88-2.39c2.16-1.32,3.71-3.16,3.76-5.84a3.79,3.79,0,0,0-2.74-4,3.78,3.78,0,0,0-3.22.94,15.62,15.62,0,0,0-4.47,5.46A17.64,17.64,0,0,0,102,10.06a2.9,2.9,0,0,1-.62,1.16c-1,1.26-2.14,2.49-3.22,3.75,0-1.1,0-2.17-.16-3.23a11.61,11.61,0,0,0-1.49-5c-1.34-2.19-3.73-2.44-5.67-.33a5.72,5.72,0,0,0-1.25,4.89,10.56,10.56,0,0,0,2.64,5.28c.72.89,1.5,1.73,2.25,2.59a.56.56,0,0,1,.09.79c-1.19,1.85-2.35,3.73-3.52,5.6-.34.54-.66,1.07-1,1.68,0-.2-.09-.37-.11-.54a12.81,12.81,0,0,0-1.3-5.4c-1.23-2.24-3.31-2.53-5.2-1.07a5.37,5.37,0,0,0-2,4.58,10.12,10.12,0,0,0,2.43,6c.74,1,1.56,2,2.34,2.94a.69.69,0,0,1,.1.84c-.88,2-1.72,3.92-2.5,5.9s-1.43,3.85-2.14,5.77c0,.07-.08.12-.06.09-.61-1.41-1.15-2.88-1.85-4.27a8,8,0,0,0-2.62-3.15A3.1,3.1,0,0,0,72.55,40c-1.47,2.29-1,4.51.34,6.65s3.27,3.2,5.17,4.49c.26.17.54.31.82.46,1,.54,1,.54.68,1.64-.34,1.29-.72,2.57-1,3.87C78,59.63,77.5,62.19,77,64.76c0,.2-.1.39-.16.67-.57-.92-1-1.78-1.62-2.56a11.08,11.08,0,0,0-3.33-3.21,3.16,3.16,0,0,0-4.75,1.71C66.07,64,67,66,68.76,67.91a10.67,10.67,0,0,0,3.53,2.34c1.07.48,2.16.91,3.22,1.4a.73.73,0,0,1,.35.55c-.2,2.87-.42,5.73-.64,8.6A15,15,0,0,1,75,82.94c-.31-.43-.59-.87-.92-1.28a15.86,15.86,0,0,0-3.82-3.58c-3-1.89-5.45-.06-5.61,3.06a5.89,5.89,0,0,0,2.19,4.69c1.7,1.61,3.85,2.22,6,2.89.64.2,1.3.34,1.93.55.16,0,.38.26.39.4.22,3.4.42,6.79.63,10.18-.48-.51-1-1.09-1.52-1.63a12.7,12.7,0,0,0-4-2.86c-2.84-1.18-4.73.37-5,3.09-.19,2.31,1,4,2.8,5.26,2,1.48,4.38,1.85,6.73,2.31.54.11,1.08.16,1.62.24a.43.43,0,0,1,.43.42q.5,2.56,1.09,5.1c.34,1.4.72,2.79,1.13,4.17a1.25,1.25,0,0,0,1.6.83c.71-.24.93-.73.72-1.55q-.82-3.24-1.64-6.48a3.6,3.6,0,0,1-.08-.56c1.28,0,2.53.07,3.77,0,2.94-.21,5.44-1.25,6.92-4a4.27,4.27,0,0,0-.55-4.82,3.43,3.43,0,0,0-3.59-.63,21.25,21.25,0,0,0-6.92,3.9c-.16.12-.33.22-.6.39a90.64,90.64,0,0,1-1-10c1.21,0,2.36.06,3.5,0,3-.19,5.64-1.2,7.13-4.09a4.12,4.12,0,0,0-.69-4.85,3.26,3.26,0,0,0-2.6-.69,8.36,8.36,0,0,0-3.8,1.44c-1.28.81-2.48,1.76-3.74,2.68,0-.79-.06-1.62,0-2.45.11-2.76.25-5.52.34-8.28,0-.56.25-.65.72-.61a14.55,14.55,0,0,0,4.88-.25,7.23,7.23,0,0,0,5-3.74,4.22,4.22,0,0,0-.14-4.32,3.18,3.18,0,0,0-3.54-1.25A13.35,13.35,0,0,0,79,69.75a2.44,2.44,0,0,1-.28.17c0-.53,0-1,.13-1.4.54-3,1.08-5.92,1.65-8.88.17-.9.42-1.78.62-2.68.08-.39.28-.46.66-.46a52.8,52.8,0,0,0,5.63-.09A6.85,6.85,0,0,0,92.8,53a4.21,4.21,0,0,0-.27-5A3.4,3.4,0,0,0,89.23,47.22Z"/></g></g></svg>